<?xml version="1.0" encoding="utf-8" standalone="no"?>
<!DOCTYPE svg PUBLIC "-//W3C//DTD SVG 1.1//EN"
  "http://www.w3.org/Graphics/SVG/1.1/DTD/svg11.dtd">
<!-- Created with matplotlib (https://matplotlib.org/) -->
<svg height="345.6pt" version="1.1" viewBox="0 0 460.8 345.6" width="460.8pt" xmlns="http://www.w3.org/2000/svg" xmlns:xlink="http://www.w3.org/1999/xlink">
 <defs>
  <style type="text/css">
*{stroke-linecap:butt;stroke-linejoin:round;}
  </style>
 </defs>
 <g id="figure_1">
  <g id="patch_1">
   <path d="M 0 345.6 
L 460.8 345.6 
L 460.8 0 
L 0 0 
z
" style="fill:#ffffff;"/>
  </g>
  <g id="axes_1">
   <g id="patch_2">
    <path d="M 57.6 307.584 
L 414.72 307.584 
L 414.72 41.472 
L 57.6 41.472 
z
" style="fill:#ffffff;"/>
   </g>
   <g id="matplotlib.axis_1">
    <g id="xtick_1">
     <g id="line2d_1">
      <defs>
       <path d="M 0 0 
L 0 3.5 
" id="m151800d55e" style="stroke:#000000;stroke-width:0.8;"/>
      </defs>
      <g>
       <use style="stroke:#000000;stroke-width:0.8;" x="73.832727" xlink:href="#m151800d55e" y="307.584"/>
      </g>
     </g>
     <g id="text_1">
      <!-- 0.0 -->
      <defs>
       <path d="M 31.78125 66.40625 
Q 24.171875 66.40625 20.328125 58.90625 
Q 16.5 51.421875 16.5 36.375 
Q 16.5 21.390625 20.328125 13.890625 
Q 24.171875 6.390625 31.78125 6.390625 
Q 39.453125 6.390625 43.28125 13.890625 
Q 47.125 21.390625 47.125 36.375 
Q 47.125 51.421875 43.28125 58.90625 
Q 39.453125 66.40625 31.78125 66.40625 
z
M 31.78125 74.21875 
Q 44.046875 74.21875 50.515625 64.515625 
Q 56.984375 54.828125 56.984375 36.375 
Q 56.984375 17.96875 50.515625 8.265625 
Q 44.046875 -1.421875 31.78125 -1.421875 
Q 19.53125 -1.421875 13.0625 8.265625 
Q 6.59375 17.96875 6.59375 36.375 
Q 6.59375 54.828125 13.0625 64.515625 
Q 19.53125 74.21875 31.78125 74.21875 
z
" id="DejaVuSans-48"/>
       <path d="M 10.6875 12.40625 
L 21 12.40625 
L 21 0 
L 10.6875 0 
z
" id="DejaVuSans-46"/>
      </defs>
      <g transform="translate(65.881165 322.182437)scale(0.1 -0.1)">
       <use xlink:href="#DejaVuSans-48"/>
       <use x="63.623047" xlink:href="#DejaVuSans-46"/>
       <use x="95.410156" xlink:href="#DejaVuSans-48"/>
      </g>
     </g>
    </g>
    <g id="xtick_2">
     <g id="line2d_2">
      <g>
       <use style="stroke:#000000;stroke-width:0.8;" x="114.622657" xlink:href="#m151800d55e" y="307.584"/>
      </g>
     </g>
     <g id="text_2">
      <!-- 0.5 -->
      <defs>
       <path d="M 10.796875 72.90625 
L 49.515625 72.90625 
L 49.515625 64.59375 
L 19.828125 64.59375 
L 19.828125 46.734375 
Q 21.96875 47.46875 24.109375 47.828125 
Q 26.265625 48.1875 28.421875 48.1875 
Q 40.625 48.1875 47.75 41.5 
Q 54.890625 34.8125 54.890625 23.390625 
Q 54.890625 11.625 47.5625 5.09375 
Q 40.234375 -1.421875 26.90625 -1.421875 
Q 22.3125 -1.421875 17.546875 -0.640625 
Q 12.796875 0.140625 7.71875 1.703125 
L 7.71875 11.625 
Q 12.109375 9.234375 16.796875 8.0625 
Q 21.484375 6.890625 26.703125 6.890625 
Q 35.15625 6.890625 40.078125 11.328125 
Q 45.015625 15.765625 45.015625 23.390625 
Q 45.015625 31 40.078125 35.4375 
Q 35.15625 39.890625 26.703125 39.890625 
Q 22.75 39.890625 18.8125 39.015625 
Q 14.890625 38.140625 10.796875 36.28125 
z
" id="DejaVuSans-53"/>
      </defs>
      <g transform="translate(106.671095 322.182437)scale(0.1 -0.1)">
       <use xlink:href="#DejaVuSans-48"/>
       <use x="63.623047" xlink:href="#DejaVuSans-46"/>
       <use x="95.410156" xlink:href="#DejaVuSans-53"/>
      </g>
     </g>
    </g>
    <g id="xtick_3">
     <g id="line2d_3">
      <g>
       <use style="stroke:#000000;stroke-width:0.8;" x="155.412587" xlink:href="#m151800d55e" y="307.584"/>
      </g>
     </g>
     <g id="text_3">
      <!-- 1.0 -->
      <defs>
       <path d="M 12.40625 8.296875 
L 28.515625 8.296875 
L 28.515625 63.921875 
L 10.984375 60.40625 
L 10.984375 69.390625 
L 28.421875 72.90625 
L 38.28125 72.90625 
L 38.28125 8.296875 
L 54.390625 8.296875 
L 54.390625 0 
L 12.40625 0 
z
" id="DejaVuSans-49"/>
      </defs>
      <g transform="translate(147.461025 322.182437)scale(0.1 -0.1)">
       <use xlink:href="#DejaVuSans-49"/>
       <use x="63.623047" xlink:href="#DejaVuSans-46"/>
       <use x="95.410156" xlink:href="#DejaVuSans-48"/>
      </g>
     </g>
    </g>
    <g id="xtick_4">
     <g id="line2d_4">
      <g>
       <use style="stroke:#000000;stroke-width:0.8;" x="196.202517" xlink:href="#m151800d55e" y="307.584"/>
      </g>
     </g>
     <g id="text_4">
      <!-- 1.5 -->
      <g transform="translate(188.250955 322.182437)scale(0.1 -0.1)">
       <use xlink:href="#DejaVuSans-49"/>
       <use x="63.623047" xlink:href="#DejaVuSans-46"/>
       <use x="95.410156" xlink:href="#DejaVuSans-53"/>
      </g>
     </g>
    </g>
    <g id="xtick_5">
     <g id="line2d_5">
      <g>
       <use style="stroke:#000000;stroke-width:0.8;" x="236.992448" xlink:href="#m151800d55e" y="307.584"/>
      </g>
     </g>
     <g id="text_5">
      <!-- 2.0 -->
      <defs>
       <path d="M 19.1875 8.296875 
L 53.609375 8.296875 
L 53.609375 0 
L 7.328125 0 
L 7.328125 8.296875 
Q 12.9375 14.109375 22.625 23.890625 
Q 32.328125 33.6875 34.8125 36.53125 
Q 39.546875 41.84375 41.421875 45.53125 
Q 43.3125 49.21875 43.3125 52.78125 
Q 43.3125 58.59375 39.234375 62.25 
Q 35.15625 65.921875 28.609375 65.921875 
Q 23.96875 65.921875 18.8125 64.3125 
Q 13.671875 62.703125 7.8125 59.421875 
L 7.8125 69.390625 
Q 13.765625 71.78125 18.9375 73 
Q 24.125 74.21875 28.421875 74.21875 
Q 39.75 74.21875 46.484375 68.546875 
Q 53.21875 62.890625 53.21875 53.421875 
Q 53.21875 48.921875 51.53125 44.890625 
Q 49.859375 40.875 45.40625 35.40625 
Q 44.1875 33.984375 37.640625 27.21875 
Q 31.109375 20.453125 19.1875 8.296875 
z
" id="DejaVuSans-50"/>
      </defs>
      <g transform="translate(229.040885 322.182437)scale(0.1 -0.1)">
       <use xlink:href="#DejaVuSans-50"/>
       <use x="63.623047" xlink:href="#DejaVuSans-46"/>
       <use x="95.410156" xlink:href="#DejaVuSans-48"/>
      </g>
     </g>
    </g>
    <g id="xtick_6">
     <g id="line2d_6">
      <g>
       <use style="stroke:#000000;stroke-width:0.8;" x="277.782378" xlink:href="#m151800d55e" y="307.584"/>
      </g>
     </g>
     <g id="text_6">
      <!-- 2.5 -->
      <g transform="translate(269.830815 322.182437)scale(0.1 -0.1)">
       <use xlink:href="#DejaVuSans-50"/>
       <use x="63.623047" xlink:href="#DejaVuSans-46"/>
       <use x="95.410156" xlink:href="#DejaVuSans-53"/>
      </g>
     </g>
    </g>
    <g id="xtick_7">
     <g id="line2d_7">
      <g>
       <use style="stroke:#000000;stroke-width:0.8;" x="318.572308" xlink:href="#m151800d55e" y="307.584"/>
      </g>
     </g>
     <g id="text_7">
      <!-- 3.0 -->
      <defs>
       <path d="M 40.578125 39.3125 
Q 47.65625 37.796875 51.625 33 
Q 55.609375 28.21875 55.609375 21.1875 
Q 55.609375 10.40625 48.1875 4.484375 
Q 40.765625 -1.421875 27.09375 -1.421875 
Q 22.515625 -1.421875 17.65625 -0.515625 
Q 12.796875 0.390625 7.625 2.203125 
L 7.625 11.71875 
Q 11.71875 9.328125 16.59375 8.109375 
Q 21.484375 6.890625 26.8125 6.890625 
Q 36.078125 6.890625 40.9375 10.546875 
Q 45.796875 14.203125 45.796875 21.1875 
Q 45.796875 27.640625 41.28125 31.265625 
Q 36.765625 34.90625 28.71875 34.90625 
L 20.21875 34.90625 
L 20.21875 43.015625 
L 29.109375 43.015625 
Q 36.375 43.015625 40.234375 45.921875 
Q 44.09375 48.828125 44.09375 54.296875 
Q 44.09375 59.90625 40.109375 62.90625 
Q 36.140625 65.921875 28.71875 65.921875 
Q 24.65625 65.921875 20.015625 65.03125 
Q 15.375 64.15625 9.8125 62.3125 
L 9.8125 71.09375 
Q 15.4375 72.65625 20.34375 73.4375 
Q 25.25 74.21875 29.59375 74.21875 
Q 40.828125 74.21875 47.359375 69.109375 
Q 53.90625 64.015625 53.90625 55.328125 
Q 53.90625 49.265625 50.4375 45.09375 
Q 46.96875 40.921875 40.578125 39.3125 
z
" id="DejaVuSans-51"/>
      </defs>
      <g transform="translate(310.620745 322.182437)scale(0.1 -0.1)">
       <use xlink:href="#DejaVuSans-51"/>
       <use x="63.623047" xlink:href="#DejaVuSans-46"/>
       <use x="95.410156" xlink:href="#DejaVuSans-48"/>
      </g>
     </g>
    </g>
    <g id="xtick_8">
     <g id="line2d_8">
      <g>
       <use style="stroke:#000000;stroke-width:0.8;" x="359.362238" xlink:href="#m151800d55e" y="307.584"/>
      </g>
     </g>
     <g id="text_8">
      <!-- 3.5 -->
      <g transform="translate(351.410675 322.182437)scale(0.1 -0.1)">
       <use xlink:href="#DejaVuSans-51"/>
       <use x="63.623047" xlink:href="#DejaVuSans-46"/>
       <use x="95.410156" xlink:href="#DejaVuSans-53"/>
      </g>
     </g>
    </g>
    <g id="xtick_9">
     <g id="line2d_9">
      <g>
       <use style="stroke:#000000;stroke-width:0.8;" x="400.152168" xlink:href="#m151800d55e" y="307.584"/>
      </g>
     </g>
     <g id="text_9">
      <!-- 4.0 -->
      <defs>
       <path d="M 37.796875 64.3125 
L 12.890625 25.390625 
L 37.796875 25.390625 
z
M 35.203125 72.90625 
L 47.609375 72.90625 
L 47.609375 25.390625 
L 58.015625 25.390625 
L 58.015625 17.1875 
L 47.609375 17.1875 
L 47.609375 0 
L 37.796875 0 
L 37.796875 17.1875 
L 4.890625 17.1875 
L 4.890625 26.703125 
z
" id="DejaVuSans-52"/>
      </defs>
      <g transform="translate(392.200605 322.182437)scale(0.1 -0.1)">
       <use xlink:href="#DejaVuSans-52"/>
       <use x="63.623047" xlink:href="#DejaVuSans-46"/>
       <use x="95.410156" xlink:href="#DejaVuSans-48"/>
      </g>
     </g>
    </g>
    <g id="text_10">
     <!-- time [ s ] -->
     <defs>
      <path d="M 18.3125 70.21875 
L 18.3125 54.6875 
L 36.8125 54.6875 
L 36.8125 47.703125 
L 18.3125 47.703125 
L 18.3125 18.015625 
Q 18.3125 11.328125 20.140625 9.421875 
Q 21.96875 7.515625 27.59375 7.515625 
L 36.8125 7.515625 
L 36.8125 0 
L 27.59375 0 
Q 17.1875 0 13.234375 3.875 
Q 9.28125 7.765625 9.28125 18.015625 
L 9.28125 47.703125 
L 2.6875 47.703125 
L 2.6875 54.6875 
L 9.28125 54.6875 
L 9.28125 70.21875 
z
" id="DejaVuSans-116"/>
      <path d="M 9.421875 54.6875 
L 18.40625 54.6875 
L 18.40625 0 
L 9.421875 0 
z
M 9.421875 75.984375 
L 18.40625 75.984375 
L 18.40625 64.59375 
L 9.421875 64.59375 
z
" id="DejaVuSans-105"/>
      <path d="M 52 44.1875 
Q 55.375 50.25 60.0625 53.125 
Q 64.75 56 71.09375 56 
Q 79.640625 56 84.28125 50.015625 
Q 88.921875 44.046875 88.921875 33.015625 
L 88.921875 0 
L 79.890625 0 
L 79.890625 32.71875 
Q 79.890625 40.578125 77.09375 44.375 
Q 74.3125 48.1875 68.609375 48.1875 
Q 61.625 48.1875 57.5625 43.546875 
Q 53.515625 38.921875 53.515625 30.90625 
L 53.515625 0 
L 44.484375 0 
L 44.484375 32.71875 
Q 44.484375 40.625 41.703125 44.40625 
Q 38.921875 48.1875 33.109375 48.1875 
Q 26.21875 48.1875 22.15625 43.53125 
Q 18.109375 38.875 18.109375 30.90625 
L 18.109375 0 
L 9.078125 0 
L 9.078125 54.6875 
L 18.109375 54.6875 
L 18.109375 46.1875 
Q 21.1875 51.21875 25.484375 53.609375 
Q 29.78125 56 35.6875 56 
Q 41.65625 56 45.828125 52.96875 
Q 50 49.953125 52 44.1875 
z
" id="DejaVuSans-109"/>
      <path d="M 56.203125 29.59375 
L 56.203125 25.203125 
L 14.890625 25.203125 
Q 15.484375 15.921875 20.484375 11.0625 
Q 25.484375 6.203125 34.421875 6.203125 
Q 39.59375 6.203125 44.453125 7.46875 
Q 49.3125 8.734375 54.109375 11.28125 
L 54.109375 2.78125 
Q 49.265625 0.734375 44.1875 -0.34375 
Q 39.109375 -1.421875 33.890625 -1.421875 
Q 20.796875 -1.421875 13.15625 6.1875 
Q 5.515625 13.8125 5.515625 26.8125 
Q 5.515625 40.234375 12.765625 48.109375 
Q 20.015625 56 32.328125 56 
Q 43.359375 56 49.78125 48.890625 
Q 56.203125 41.796875 56.203125 29.59375 
z
M 47.21875 32.234375 
Q 47.125 39.59375 43.09375 43.984375 
Q 39.0625 48.390625 32.421875 48.390625 
Q 24.90625 48.390625 20.390625 44.140625 
Q 15.875 39.890625 15.1875 32.171875 
z
" id="DejaVuSans-101"/>
      <path id="DejaVuSans-32"/>
      <path d="M 8.59375 75.984375 
L 29.296875 75.984375 
L 29.296875 69 
L 17.578125 69 
L 17.578125 -6.203125 
L 29.296875 -6.203125 
L 29.296875 -13.1875 
L 8.59375 -13.1875 
z
" id="DejaVuSans-91"/>
      <path d="M 44.28125 53.078125 
L 44.28125 44.578125 
Q 40.484375 46.53125 36.375 47.5 
Q 32.28125 48.484375 27.875 48.484375 
Q 21.1875 48.484375 17.84375 46.4375 
Q 14.5 44.390625 14.5 40.28125 
Q 14.5 37.15625 16.890625 35.375 
Q 19.28125 33.59375 26.515625 31.984375 
L 29.59375 31.296875 
Q 39.15625 29.25 43.1875 25.515625 
Q 47.21875 21.78125 47.21875 15.09375 
Q 47.21875 7.46875 41.1875 3.015625 
Q 35.15625 -1.421875 24.609375 -1.421875 
Q 20.21875 -1.421875 15.453125 -0.5625 
Q 10.6875 0.296875 5.421875 2 
L 5.421875 11.28125 
Q 10.40625 8.6875 15.234375 7.390625 
Q 20.0625 6.109375 24.8125 6.109375 
Q 31.15625 6.109375 34.5625 8.28125 
Q 37.984375 10.453125 37.984375 14.40625 
Q 37.984375 18.0625 35.515625 20.015625 
Q 33.0625 21.96875 24.703125 23.78125 
L 21.578125 24.515625 
Q 13.234375 26.265625 9.515625 29.90625 
Q 5.8125 33.546875 5.8125 39.890625 
Q 5.8125 47.609375 11.28125 51.796875 
Q 16.75 56 26.8125 56 
Q 31.78125 56 36.171875 55.265625 
Q 40.578125 54.546875 44.28125 53.078125 
z
" id="DejaVuSans-115"/>
      <path d="M 30.421875 75.984375 
L 30.421875 -13.1875 
L 9.71875 -13.1875 
L 9.71875 -6.203125 
L 21.390625 -6.203125 
L 21.390625 69 
L 9.71875 69 
L 9.71875 75.984375 
z
" id="DejaVuSans-93"/>
     </defs>
     <g transform="translate(213.590469 335.860562)scale(0.1 -0.1)">
      <use xlink:href="#DejaVuSans-116"/>
      <use x="39.208984" xlink:href="#DejaVuSans-105"/>
      <use x="66.992188" xlink:href="#DejaVuSans-109"/>
      <use x="164.404297" xlink:href="#DejaVuSans-101"/>
      <use x="225.927734" xlink:href="#DejaVuSans-32"/>
      <use x="257.714844" xlink:href="#DejaVuSans-91"/>
      <use x="296.728516" xlink:href="#DejaVuSans-32"/>
      <use x="328.515625" xlink:href="#DejaVuSans-115"/>
      <use x="380.615234" xlink:href="#DejaVuSans-32"/>
      <use x="412.402344" xlink:href="#DejaVuSans-93"/>
     </g>
    </g>
   </g>
   <g id="matplotlib.axis_2">
    <g id="ytick_1">
     <g id="line2d_10">
      <defs>
       <path d="M 0 0 
L -3.5 0 
" id="me897cd0e33" style="stroke:#000000;stroke-width:0.8;"/>
      </defs>
      <g>
       <use style="stroke:#000000;stroke-width:0.8;" x="57.6" xlink:href="#me897cd0e33" y="275.714644"/>
      </g>
     </g>
     <g id="text_11">
      <!-- 0 -->
      <g transform="translate(44.2375 279.513863)scale(0.1 -0.1)">
       <use xlink:href="#DejaVuSans-48"/>
      </g>
     </g>
    </g>
    <g id="ytick_2">
     <g id="line2d_11">
      <g>
       <use style="stroke:#000000;stroke-width:0.8;" x="57.6" xlink:href="#me897cd0e33" y="236.167933"/>
      </g>
     </g>
     <g id="text_12">
      <!-- 2 -->
      <g transform="translate(44.2375 239.967152)scale(0.1 -0.1)">
       <use xlink:href="#DejaVuSans-50"/>
      </g>
     </g>
    </g>
    <g id="ytick_3">
     <g id="line2d_12">
      <g>
       <use style="stroke:#000000;stroke-width:0.8;" x="57.6" xlink:href="#me897cd0e33" y="196.621221"/>
      </g>
     </g>
     <g id="text_13">
      <!-- 4 -->
      <g transform="translate(44.2375 200.42044)scale(0.1 -0.1)">
       <use xlink:href="#DejaVuSans-52"/>
      </g>
     </g>
    </g>
    <g id="ytick_4">
     <g id="line2d_13">
      <g>
       <use style="stroke:#000000;stroke-width:0.8;" x="57.6" xlink:href="#me897cd0e33" y="157.07451"/>
      </g>
     </g>
     <g id="text_14">
      <!-- 6 -->
      <defs>
       <path d="M 33.015625 40.375 
Q 26.375 40.375 22.484375 35.828125 
Q 18.609375 31.296875 18.609375 23.390625 
Q 18.609375 15.53125 22.484375 10.953125 
Q 26.375 6.390625 33.015625 6.390625 
Q 39.65625 6.390625 43.53125 10.953125 
Q 47.40625 15.53125 47.40625 23.390625 
Q 47.40625 31.296875 43.53125 35.828125 
Q 39.65625 40.375 33.015625 40.375 
z
M 52.59375 71.296875 
L 52.59375 62.3125 
Q 48.875 64.0625 45.09375 64.984375 
Q 41.3125 65.921875 37.59375 65.921875 
Q 27.828125 65.921875 22.671875 59.328125 
Q 17.53125 52.734375 16.796875 39.40625 
Q 19.671875 43.65625 24.015625 45.921875 
Q 28.375 48.1875 33.59375 48.1875 
Q 44.578125 48.1875 50.953125 41.515625 
Q 57.328125 34.859375 57.328125 23.390625 
Q 57.328125 12.15625 50.6875 5.359375 
Q 44.046875 -1.421875 33.015625 -1.421875 
Q 20.359375 -1.421875 13.671875 8.265625 
Q 6.984375 17.96875 6.984375 36.375 
Q 6.984375 53.65625 15.1875 63.9375 
Q 23.390625 74.21875 37.203125 74.21875 
Q 40.921875 74.21875 44.703125 73.484375 
Q 48.484375 72.75 52.59375 71.296875 
z
" id="DejaVuSans-54"/>
      </defs>
      <g transform="translate(44.2375 160.873729)scale(0.1 -0.1)">
       <use xlink:href="#DejaVuSans-54"/>
      </g>
     </g>
    </g>
    <g id="ytick_5">
     <g id="line2d_14">
      <g>
       <use style="stroke:#000000;stroke-width:0.8;" x="57.6" xlink:href="#me897cd0e33" y="117.527798"/>
      </g>
     </g>
     <g id="text_15">
      <!-- 8 -->
      <defs>
       <path d="M 31.78125 34.625 
Q 24.75 34.625 20.71875 30.859375 
Q 16.703125 27.09375 16.703125 20.515625 
Q 16.703125 13.921875 20.71875 10.15625 
Q 24.75 6.390625 31.78125 6.390625 
Q 38.8125 6.390625 42.859375 10.171875 
Q 46.921875 13.96875 46.921875 20.515625 
Q 46.921875 27.09375 42.890625 30.859375 
Q 38.875 34.625 31.78125 34.625 
z
M 21.921875 38.8125 
Q 15.578125 40.375 12.03125 44.71875 
Q 8.5 49.078125 8.5 55.328125 
Q 8.5 64.0625 14.71875 69.140625 
Q 20.953125 74.21875 31.78125 74.21875 
Q 42.671875 74.21875 48.875 69.140625 
Q 55.078125 64.0625 55.078125 55.328125 
Q 55.078125 49.078125 51.53125 44.71875 
Q 48 40.375 41.703125 38.8125 
Q 48.828125 37.15625 52.796875 32.3125 
Q 56.78125 27.484375 56.78125 20.515625 
Q 56.78125 9.90625 50.3125 4.234375 
Q 43.84375 -1.421875 31.78125 -1.421875 
Q 19.734375 -1.421875 13.25 4.234375 
Q 6.78125 9.90625 6.78125 20.515625 
Q 6.78125 27.484375 10.78125 32.3125 
Q 14.796875 37.15625 21.921875 38.8125 
z
M 18.3125 54.390625 
Q 18.3125 48.734375 21.84375 45.5625 
Q 25.390625 42.390625 31.78125 42.390625 
Q 38.140625 42.390625 41.71875 45.5625 
Q 45.3125 48.734375 45.3125 54.390625 
Q 45.3125 60.0625 41.71875 63.234375 
Q 38.140625 66.40625 31.78125 66.40625 
Q 25.390625 66.40625 21.84375 63.234375 
Q 18.3125 60.0625 18.3125 54.390625 
z
" id="DejaVuSans-56"/>
      </defs>
      <g transform="translate(44.2375 121.327017)scale(0.1 -0.1)">
       <use xlink:href="#DejaVuSans-56"/>
      </g>
     </g>
    </g>
    <g id="ytick_6">
     <g id="line2d_15">
      <g>
       <use style="stroke:#000000;stroke-width:0.8;" x="57.6" xlink:href="#me897cd0e33" y="77.981087"/>
      </g>
     </g>
     <g id="text_16">
      <!-- 10 -->
      <g transform="translate(37.875 81.780306)scale(0.1 -0.1)">
       <use xlink:href="#DejaVuSans-49"/>
       <use x="63.623047" xlink:href="#DejaVuSans-48"/>
      </g>
     </g>
    </g>
    <g id="text_17">
     <!-- $V [ r ] $ [px] -->
     <defs>
      <path d="M 20.609375 0 
L 7.8125 72.90625 
L 17.484375 72.90625 
L 28.078125 10.203125 
L 63.484375 72.90625 
L 74.21875 72.90625 
L 32.078125 0 
z
" id="DejaVuSans-Oblique-86"/>
      <path d="M 44.578125 46.390625 
Q 43.21875 47.125 41.453125 47.515625 
Q 39.703125 47.90625 37.703125 47.90625 
Q 30.515625 47.90625 25.140625 42.453125 
Q 19.78125 37.015625 18.015625 27.875 
L 12.5 0 
L 3.515625 0 
L 14.203125 54.6875 
L 23.1875 54.6875 
L 21.484375 46.1875 
Q 25.046875 50.921875 30 53.453125 
Q 34.96875 56 40.578125 56 
Q 42.046875 56 43.453125 55.828125 
Q 44.875 55.671875 46.296875 55.28125 
z
" id="DejaVuSans-Oblique-114"/>
      <path d="M 18.109375 8.203125 
L 18.109375 -20.796875 
L 9.078125 -20.796875 
L 9.078125 54.6875 
L 18.109375 54.6875 
L 18.109375 46.390625 
Q 20.953125 51.265625 25.265625 53.625 
Q 29.59375 56 35.59375 56 
Q 45.5625 56 51.78125 48.09375 
Q 58.015625 40.1875 58.015625 27.296875 
Q 58.015625 14.40625 51.78125 6.484375 
Q 45.5625 -1.421875 35.59375 -1.421875 
Q 29.59375 -1.421875 25.265625 0.953125 
Q 20.953125 3.328125 18.109375 8.203125 
z
M 48.6875 27.296875 
Q 48.6875 37.203125 44.609375 42.84375 
Q 40.53125 48.484375 33.40625 48.484375 
Q 26.265625 48.484375 22.1875 42.84375 
Q 18.109375 37.203125 18.109375 27.296875 
Q 18.109375 17.390625 22.1875 11.75 
Q 26.265625 6.109375 33.40625 6.109375 
Q 40.53125 6.109375 44.609375 11.75 
Q 48.6875 17.390625 48.6875 27.296875 
z
" id="DejaVuSans-112"/>
      <path d="M 54.890625 54.6875 
L 35.109375 28.078125 
L 55.90625 0 
L 45.3125 0 
L 29.390625 21.484375 
L 13.484375 0 
L 2.875 0 
L 24.125 28.609375 
L 4.6875 54.6875 
L 15.28125 54.6875 
L 29.78125 35.203125 
L 44.28125 54.6875 
z
" id="DejaVuSans-120"/>
     </defs>
     <g transform="translate(31.775 195.578)rotate(-90)scale(0.1 -0.1)">
      <use transform="translate(0 0.015625)" xlink:href="#DejaVuSans-Oblique-86"/>
      <use transform="translate(68.408203 0.015625)" xlink:href="#DejaVuSans-91"/>
      <use transform="translate(107.421875 0.015625)" xlink:href="#DejaVuSans-Oblique-114"/>
      <use transform="translate(148.535156 0.015625)" xlink:href="#DejaVuSans-93"/>
      <use transform="translate(187.548828 0.015625)" xlink:href="#DejaVuSans-32"/>
      <use transform="translate(219.335938 0.015625)" xlink:href="#DejaVuSans-91"/>
      <use transform="translate(258.349609 0.015625)" xlink:href="#DejaVuSans-112"/>
      <use transform="translate(321.826172 0.015625)" xlink:href="#DejaVuSans-120"/>
      <use transform="translate(381.005859 0.015625)" xlink:href="#DejaVuSans-93"/>
     </g>
    </g>
   </g>
   <g id="LineCollection_1">
    <path clip-path="url(#p8e80de9d05)" d="M 73.832727 295.488 
L 73.832727 255.941289 
" style="fill:none;stroke:#000000;stroke-opacity:0.2;stroke-width:1.5;"/>
    <path clip-path="url(#p8e80de9d05)" d="M 82.157203 294.163162 
L 82.157203 254.616451 
" style="fill:none;stroke:#000000;stroke-opacity:0.2;stroke-width:1.5;"/>
    <path clip-path="url(#p8e80de9d05)" d="M 90.481678 293.741563 
L 90.481678 254.194851 
" style="fill:none;stroke:#000000;stroke-opacity:0.2;stroke-width:1.5;"/>
    <path clip-path="url(#p8e80de9d05)" d="M 98.806154 286.95488 
L 98.806154 247.408169 
" style="fill:none;stroke:#000000;stroke-opacity:0.2;stroke-width:1.5;"/>
    <path clip-path="url(#p8e80de9d05)" d="M 107.130629 278.813879 
L 107.130629 239.267167 
" style="fill:none;stroke:#000000;stroke-opacity:0.2;stroke-width:1.5;"/>
    <path clip-path="url(#p8e80de9d05)" d="M 115.455105 266.874682 
L 115.455105 227.32797 
" style="fill:none;stroke:#000000;stroke-opacity:0.2;stroke-width:1.5;"/>
    <path clip-path="url(#p8e80de9d05)" d="M 123.77958 245.563364 
L 123.77958 206.016653 
" style="fill:none;stroke:#000000;stroke-opacity:0.2;stroke-width:1.5;"/>
    <path clip-path="url(#p8e80de9d05)" d="M 132.104056 249.319877 
L 132.104056 209.773166 
" style="fill:none;stroke:#000000;stroke-opacity:0.2;stroke-width:1.5;"/>
    <path clip-path="url(#p8e80de9d05)" d="M 140.428531 256.18407 
L 140.428531 216.637359 
" style="fill:none;stroke:#000000;stroke-opacity:0.2;stroke-width:1.5;"/>
    <path clip-path="url(#p8e80de9d05)" d="M 148.753007 225.76024 
L 148.753007 186.213529 
" style="fill:none;stroke:#000000;stroke-opacity:0.2;stroke-width:1.5;"/>
    <path clip-path="url(#p8e80de9d05)" d="M 157.077482 228.9554 
L 157.077482 189.408688 
" style="fill:none;stroke:#000000;stroke-opacity:0.2;stroke-width:1.5;"/>
    <path clip-path="url(#p8e80de9d05)" d="M 165.401958 242.372697 
L 165.401958 202.825985 
" style="fill:none;stroke:#000000;stroke-opacity:0.2;stroke-width:1.5;"/>
    <path clip-path="url(#p8e80de9d05)" d="M 173.726434 248.221946 
L 173.726434 208.675235 
" style="fill:none;stroke:#000000;stroke-opacity:0.2;stroke-width:1.5;"/>
    <path clip-path="url(#p8e80de9d05)" d="M 182.050909 247.815716 
L 182.050909 208.269004 
" style="fill:none;stroke:#000000;stroke-opacity:0.2;stroke-width:1.5;"/>
    <path clip-path="url(#p8e80de9d05)" d="M 190.375385 235.472434 
L 190.375385 195.925722 
" style="fill:none;stroke:#000000;stroke-opacity:0.2;stroke-width:1.5;"/>
    <path clip-path="url(#p8e80de9d05)" d="M 198.69986 211.703364 
L 198.69986 172.156653 
" style="fill:none;stroke:#000000;stroke-opacity:0.2;stroke-width:1.5;"/>
    <path clip-path="url(#p8e80de9d05)" d="M 207.024336 205.853306 
L 207.024336 166.306594 
" style="fill:none;stroke:#000000;stroke-opacity:0.2;stroke-width:1.5;"/>
    <path clip-path="url(#p8e80de9d05)" d="M 215.348811 215.33769 
L 215.348811 175.790979 
" style="fill:none;stroke:#000000;stroke-opacity:0.2;stroke-width:1.5;"/>
    <path clip-path="url(#p8e80de9d05)" d="M 223.673287 202.03178 
L 223.673287 162.485068 
" style="fill:none;stroke:#000000;stroke-opacity:0.2;stroke-width:1.5;"/>
    <path clip-path="url(#p8e80de9d05)" d="M 231.997762 184.841007 
L 231.997762 145.294295 
" style="fill:none;stroke:#000000;stroke-opacity:0.2;stroke-width:1.5;"/>
    <path clip-path="url(#p8e80de9d05)" d="M 240.322238 165.056913 
L 240.322238 125.510201 
" style="fill:none;stroke:#000000;stroke-opacity:0.2;stroke-width:1.5;"/>
    <path clip-path="url(#p8e80de9d05)" d="M 248.646713 138.377498 
L 248.646713 98.830787 
" style="fill:none;stroke:#000000;stroke-opacity:0.2;stroke-width:1.5;"/>
    <path clip-path="url(#p8e80de9d05)" d="M 256.971189 142.417129 
L 256.971189 102.870417 
" style="fill:none;stroke:#000000;stroke-opacity:0.2;stroke-width:1.5;"/>
    <path clip-path="url(#p8e80de9d05)" d="M 265.295664 163.573726 
L 265.295664 124.027014 
" style="fill:none;stroke:#000000;stroke-opacity:0.2;stroke-width:1.5;"/>
    <path clip-path="url(#p8e80de9d05)" d="M 273.62014 132.442288 
L 273.62014 92.895576 
" style="fill:none;stroke:#000000;stroke-opacity:0.2;stroke-width:1.5;"/>
    <path clip-path="url(#p8e80de9d05)" d="M 281.944615 109.087339 
L 281.944615 69.540628 
" style="fill:none;stroke:#000000;stroke-opacity:0.2;stroke-width:1.5;"/>
    <path clip-path="url(#p8e80de9d05)" d="M 290.269091 123.473761 
L 290.269091 83.92705 
" style="fill:none;stroke:#000000;stroke-opacity:0.2;stroke-width:1.5;"/>
    <path clip-path="url(#p8e80de9d05)" d="M 298.593566 144.520497 
L 298.593566 104.973785 
" style="fill:none;stroke:#000000;stroke-opacity:0.2;stroke-width:1.5;"/>
    <path clip-path="url(#p8e80de9d05)" d="M 306.918042 200.066772 
L 306.918042 160.520061 
" style="fill:none;stroke:#000000;stroke-opacity:0.2;stroke-width:1.5;"/>
    <path clip-path="url(#p8e80de9d05)" d="M 315.242517 199.775454 
L 315.242517 160.228742 
" style="fill:none;stroke:#000000;stroke-opacity:0.2;stroke-width:1.5;"/>
    <path clip-path="url(#p8e80de9d05)" d="M 323.566993 226.224945 
L 323.566993 186.678234 
" style="fill:none;stroke:#000000;stroke-opacity:0.2;stroke-width:1.5;"/>
    <path clip-path="url(#p8e80de9d05)" d="M 331.891469 209.061575 
L 331.891469 169.514864 
" style="fill:none;stroke:#000000;stroke-opacity:0.2;stroke-width:1.5;"/>
    <path clip-path="url(#p8e80de9d05)" d="M 340.215944 206.353975 
L 340.215944 166.807264 
" style="fill:none;stroke:#000000;stroke-opacity:0.2;stroke-width:1.5;"/>
    <path clip-path="url(#p8e80de9d05)" d="M 348.54042 208.735246 
L 348.54042 169.188534 
" style="fill:none;stroke:#000000;stroke-opacity:0.2;stroke-width:1.5;"/>
    <path clip-path="url(#p8e80de9d05)" d="M 356.864895 182.379278 
L 356.864895 142.832567 
" style="fill:none;stroke:#000000;stroke-opacity:0.2;stroke-width:1.5;"/>
    <path clip-path="url(#p8e80de9d05)" d="M 365.189371 165.02716 
L 365.189371 125.480449 
" style="fill:none;stroke:#000000;stroke-opacity:0.2;stroke-width:1.5;"/>
    <path clip-path="url(#p8e80de9d05)" d="M 373.513846 170.708084 
L 373.513846 131.161372 
" style="fill:none;stroke:#000000;stroke-opacity:0.2;stroke-width:1.5;"/>
    <path clip-path="url(#p8e80de9d05)" d="M 381.838322 120.803731 
L 381.838322 81.25702 
" style="fill:none;stroke:#000000;stroke-opacity:0.2;stroke-width:1.5;"/>
    <path clip-path="url(#p8e80de9d05)" d="M 390.162797 99.467881 
L 390.162797 59.921169 
" style="fill:none;stroke:#000000;stroke-opacity:0.2;stroke-width:1.5;"/>
    <path clip-path="url(#p8e80de9d05)" d="M 398.487273 93.114711 
L 398.487273 53.568 
" style="fill:none;stroke:#000000;stroke-opacity:0.2;stroke-width:1.5;"/>
   </g>
   <g id="line2d_16">
    <path clip-path="url(#p8e80de9d05)" d="M 73.832727 275.714644 
L 82.157203 271.187914 
L 90.481678 266.661184 
L 98.806154 262.134454 
L 107.130629 257.607724 
L 115.455105 253.080994 
L 123.77958 248.554264 
L 132.104056 244.027534 
L 140.428531 239.500804 
L 148.753007 234.974074 
L 157.077482 230.447344 
L 165.401958 225.920614 
L 173.726434 221.393884 
L 182.050909 216.867153 
L 190.375385 212.340423 
L 198.69986 207.813693 
L 207.024336 203.286963 
L 215.348811 198.760233 
L 223.673287 194.233503 
L 231.997762 189.706773 
L 240.322238 185.180043 
L 248.646713 180.653313 
L 256.971189 176.126583 
L 265.295664 171.599853 
L 273.62014 167.073123 
L 281.944615 162.546393 
L 290.269091 158.019663 
L 298.593566 153.492933 
L 306.918042 148.966202 
L 315.242517 144.439472 
L 323.566993 139.912742 
L 331.891469 135.386012 
L 340.215944 130.859282 
L 348.54042 126.332552 
L 356.864895 121.805822 
L 365.189371 117.279092 
L 373.513846 112.752362 
L 381.838322 108.225632 
L 390.162797 103.698902 
L 398.487273 99.172172 
" style="fill:none;stroke:#008080;stroke-linecap:square;stroke-opacity:0.6;stroke-width:1.5;"/>
   </g>
   <g id="line2d_17">
    <defs>
     <path d="M 0 3 
C 0.795609 3 1.55874 2.683901 2.12132 2.12132 
C 2.683901 1.55874 3 0.795609 3 0 
C 3 -0.795609 2.683901 -1.55874 2.12132 -2.12132 
C 1.55874 -2.683901 0.795609 -3 0 -3 
C -0.795609 -3 -1.55874 -2.683901 -2.12132 -2.12132 
C -2.683901 -1.55874 -3 -0.795609 -3 0 
C -3 0.795609 -2.683901 1.55874 -2.12132 2.12132 
C -1.55874 2.683901 -0.795609 3 0 3 
z
" id="m3f7bf7b128" style="stroke:#000000;stroke-opacity:0.2;"/>
    </defs>
    <g clip-path="url(#p8e80de9d05)">
     <use style="fill-opacity:0.2;stroke:#000000;stroke-opacity:0.2;" x="73.832727" xlink:href="#m3f7bf7b128" y="275.714644"/>
     <use style="fill-opacity:0.2;stroke:#000000;stroke-opacity:0.2;" x="82.157203" xlink:href="#m3f7bf7b128" y="274.389806"/>
     <use style="fill-opacity:0.2;stroke:#000000;stroke-opacity:0.2;" x="90.481678" xlink:href="#m3f7bf7b128" y="273.968207"/>
     <use style="fill-opacity:0.2;stroke:#000000;stroke-opacity:0.2;" x="98.806154" xlink:href="#m3f7bf7b128" y="267.181524"/>
     <use style="fill-opacity:0.2;stroke:#000000;stroke-opacity:0.2;" x="107.130629" xlink:href="#m3f7bf7b128" y="259.040523"/>
     <use style="fill-opacity:0.2;stroke:#000000;stroke-opacity:0.2;" x="115.455105" xlink:href="#m3f7bf7b128" y="247.101326"/>
     <use style="fill-opacity:0.2;stroke:#000000;stroke-opacity:0.2;" x="123.77958" xlink:href="#m3f7bf7b128" y="225.790009"/>
     <use style="fill-opacity:0.2;stroke:#000000;stroke-opacity:0.2;" x="132.104056" xlink:href="#m3f7bf7b128" y="229.546522"/>
     <use style="fill-opacity:0.2;stroke:#000000;stroke-opacity:0.2;" x="140.428531" xlink:href="#m3f7bf7b128" y="236.410715"/>
     <use style="fill-opacity:0.2;stroke:#000000;stroke-opacity:0.2;" x="148.753007" xlink:href="#m3f7bf7b128" y="205.986885"/>
     <use style="fill-opacity:0.2;stroke:#000000;stroke-opacity:0.2;" x="157.077482" xlink:href="#m3f7bf7b128" y="209.182044"/>
     <use style="fill-opacity:0.2;stroke:#000000;stroke-opacity:0.2;" x="165.401958" xlink:href="#m3f7bf7b128" y="222.599341"/>
     <use style="fill-opacity:0.2;stroke:#000000;stroke-opacity:0.2;" x="173.726434" xlink:href="#m3f7bf7b128" y="228.448591"/>
     <use style="fill-opacity:0.2;stroke:#000000;stroke-opacity:0.2;" x="182.050909" xlink:href="#m3f7bf7b128" y="228.04236"/>
     <use style="fill-opacity:0.2;stroke:#000000;stroke-opacity:0.2;" x="190.375385" xlink:href="#m3f7bf7b128" y="215.699078"/>
     <use style="fill-opacity:0.2;stroke:#000000;stroke-opacity:0.2;" x="198.69986" xlink:href="#m3f7bf7b128" y="191.930009"/>
     <use style="fill-opacity:0.2;stroke:#000000;stroke-opacity:0.2;" x="207.024336" xlink:href="#m3f7bf7b128" y="186.07995"/>
     <use style="fill-opacity:0.2;stroke:#000000;stroke-opacity:0.2;" x="215.348811" xlink:href="#m3f7bf7b128" y="195.564335"/>
     <use style="fill-opacity:0.2;stroke:#000000;stroke-opacity:0.2;" x="223.673287" xlink:href="#m3f7bf7b128" y="182.258424"/>
     <use style="fill-opacity:0.2;stroke:#000000;stroke-opacity:0.2;" x="231.997762" xlink:href="#m3f7bf7b128" y="165.067651"/>
     <use style="fill-opacity:0.2;stroke:#000000;stroke-opacity:0.2;" x="240.322238" xlink:href="#m3f7bf7b128" y="145.283557"/>
     <use style="fill-opacity:0.2;stroke:#000000;stroke-opacity:0.2;" x="248.646713" xlink:href="#m3f7bf7b128" y="118.604142"/>
     <use style="fill-opacity:0.2;stroke:#000000;stroke-opacity:0.2;" x="256.971189" xlink:href="#m3f7bf7b128" y="122.643773"/>
     <use style="fill-opacity:0.2;stroke:#000000;stroke-opacity:0.2;" x="265.295664" xlink:href="#m3f7bf7b128" y="143.80037"/>
     <use style="fill-opacity:0.2;stroke:#000000;stroke-opacity:0.2;" x="273.62014" xlink:href="#m3f7bf7b128" y="112.668932"/>
     <use style="fill-opacity:0.2;stroke:#000000;stroke-opacity:0.2;" x="281.944615" xlink:href="#m3f7bf7b128" y="89.313984"/>
     <use style="fill-opacity:0.2;stroke:#000000;stroke-opacity:0.2;" x="290.269091" xlink:href="#m3f7bf7b128" y="103.700406"/>
     <use style="fill-opacity:0.2;stroke:#000000;stroke-opacity:0.2;" x="298.593566" xlink:href="#m3f7bf7b128" y="124.747141"/>
     <use style="fill-opacity:0.2;stroke:#000000;stroke-opacity:0.2;" x="306.918042" xlink:href="#m3f7bf7b128" y="180.293416"/>
     <use style="fill-opacity:0.2;stroke:#000000;stroke-opacity:0.2;" x="315.242517" xlink:href="#m3f7bf7b128" y="180.002098"/>
     <use style="fill-opacity:0.2;stroke:#000000;stroke-opacity:0.2;" x="323.566993" xlink:href="#m3f7bf7b128" y="206.451589"/>
     <use style="fill-opacity:0.2;stroke:#000000;stroke-opacity:0.2;" x="331.891469" xlink:href="#m3f7bf7b128" y="189.288219"/>
     <use style="fill-opacity:0.2;stroke:#000000;stroke-opacity:0.2;" x="340.215944" xlink:href="#m3f7bf7b128" y="186.580619"/>
     <use style="fill-opacity:0.2;stroke:#000000;stroke-opacity:0.2;" x="348.54042" xlink:href="#m3f7bf7b128" y="188.96189"/>
     <use style="fill-opacity:0.2;stroke:#000000;stroke-opacity:0.2;" x="356.864895" xlink:href="#m3f7bf7b128" y="162.605923"/>
     <use style="fill-opacity:0.2;stroke:#000000;stroke-opacity:0.2;" x="365.189371" xlink:href="#m3f7bf7b128" y="145.253805"/>
     <use style="fill-opacity:0.2;stroke:#000000;stroke-opacity:0.2;" x="373.513846" xlink:href="#m3f7bf7b128" y="150.934728"/>
     <use style="fill-opacity:0.2;stroke:#000000;stroke-opacity:0.2;" x="381.838322" xlink:href="#m3f7bf7b128" y="101.030375"/>
     <use style="fill-opacity:0.2;stroke:#000000;stroke-opacity:0.2;" x="390.162797" xlink:href="#m3f7bf7b128" y="79.694525"/>
     <use style="fill-opacity:0.2;stroke:#000000;stroke-opacity:0.2;" x="398.487273" xlink:href="#m3f7bf7b128" y="73.341356"/>
    </g>
   </g>
   <g id="patch_3">
    <path d="M 57.6 307.584 
L 57.6 41.472 
" style="fill:none;stroke:#000000;stroke-linecap:square;stroke-linejoin:miter;stroke-width:0.8;"/>
   </g>
   <g id="patch_4">
    <path d="M 414.72 307.584 
L 414.72 41.472 
" style="fill:none;stroke:#000000;stroke-linecap:square;stroke-linejoin:miter;stroke-width:0.8;"/>
   </g>
   <g id="patch_5">
    <path d="M 57.6 307.584 
L 414.72 307.584 
" style="fill:none;stroke:#000000;stroke-linecap:square;stroke-linejoin:miter;stroke-width:0.8;"/>
   </g>
   <g id="patch_6">
    <path d="M 57.6 41.472 
L 414.72 41.472 
" style="fill:none;stroke:#000000;stroke-linecap:square;stroke-linejoin:miter;stroke-width:0.8;"/>
   </g>
   <g id="text_18">
    <!--  $ V [ r ] $ as function of time r-g0.600-B5 -->
    <defs>
     <path d="M 34.28125 27.484375 
Q 23.390625 27.484375 19.1875 25 
Q 14.984375 22.515625 14.984375 16.5 
Q 14.984375 11.71875 18.140625 8.90625 
Q 21.296875 6.109375 26.703125 6.109375 
Q 34.1875 6.109375 38.703125 11.40625 
Q 43.21875 16.703125 43.21875 25.484375 
L 43.21875 27.484375 
z
M 52.203125 31.203125 
L 52.203125 0 
L 43.21875 0 
L 43.21875 8.296875 
Q 40.140625 3.328125 35.546875 0.953125 
Q 30.953125 -1.421875 24.3125 -1.421875 
Q 15.921875 -1.421875 10.953125 3.296875 
Q 6 8.015625 6 15.921875 
Q 6 25.140625 12.171875 29.828125 
Q 18.359375 34.515625 30.609375 34.515625 
L 43.21875 34.515625 
L 43.21875 35.40625 
Q 43.21875 41.609375 39.140625 45 
Q 35.0625 48.390625 27.6875 48.390625 
Q 23 48.390625 18.546875 47.265625 
Q 14.109375 46.140625 10.015625 43.890625 
L 10.015625 52.203125 
Q 14.9375 54.109375 19.578125 55.046875 
Q 24.21875 56 28.609375 56 
Q 40.484375 56 46.34375 49.84375 
Q 52.203125 43.703125 52.203125 31.203125 
z
" id="DejaVuSans-97"/>
     <path d="M 37.109375 75.984375 
L 37.109375 68.5 
L 28.515625 68.5 
Q 23.6875 68.5 21.796875 66.546875 
Q 19.921875 64.59375 19.921875 59.515625 
L 19.921875 54.6875 
L 34.71875 54.6875 
L 34.71875 47.703125 
L 19.921875 47.703125 
L 19.921875 0 
L 10.890625 0 
L 10.890625 47.703125 
L 2.296875 47.703125 
L 2.296875 54.6875 
L 10.890625 54.6875 
L 10.890625 58.5 
Q 10.890625 67.625 15.140625 71.796875 
Q 19.390625 75.984375 28.609375 75.984375 
z
" id="DejaVuSans-102"/>
     <path d="M 8.5 21.578125 
L 8.5 54.6875 
L 17.484375 54.6875 
L 17.484375 21.921875 
Q 17.484375 14.15625 20.5 10.265625 
Q 23.53125 6.390625 29.59375 6.390625 
Q 36.859375 6.390625 41.078125 11.03125 
Q 45.3125 15.671875 45.3125 23.6875 
L 45.3125 54.6875 
L 54.296875 54.6875 
L 54.296875 0 
L 45.3125 0 
L 45.3125 8.40625 
Q 42.046875 3.421875 37.71875 1 
Q 33.40625 -1.421875 27.6875 -1.421875 
Q 18.265625 -1.421875 13.375 4.4375 
Q 8.5 10.296875 8.5 21.578125 
z
M 31.109375 56 
z
" id="DejaVuSans-117"/>
     <path d="M 54.890625 33.015625 
L 54.890625 0 
L 45.90625 0 
L 45.90625 32.71875 
Q 45.90625 40.484375 42.875 44.328125 
Q 39.84375 48.1875 33.796875 48.1875 
Q 26.515625 48.1875 22.3125 43.546875 
Q 18.109375 38.921875 18.109375 30.90625 
L 18.109375 0 
L 9.078125 0 
L 9.078125 54.6875 
L 18.109375 54.6875 
L 18.109375 46.1875 
Q 21.34375 51.125 25.703125 53.5625 
Q 30.078125 56 35.796875 56 
Q 45.21875 56 50.046875 50.171875 
Q 54.890625 44.34375 54.890625 33.015625 
z
" id="DejaVuSans-110"/>
     <path d="M 48.78125 52.59375 
L 48.78125 44.1875 
Q 44.96875 46.296875 41.140625 47.34375 
Q 37.3125 48.390625 33.40625 48.390625 
Q 24.65625 48.390625 19.8125 42.84375 
Q 14.984375 37.3125 14.984375 27.296875 
Q 14.984375 17.28125 19.8125 11.734375 
Q 24.65625 6.203125 33.40625 6.203125 
Q 37.3125 6.203125 41.140625 7.25 
Q 44.96875 8.296875 48.78125 10.40625 
L 48.78125 2.09375 
Q 45.015625 0.34375 40.984375 -0.53125 
Q 36.96875 -1.421875 32.421875 -1.421875 
Q 20.0625 -1.421875 12.78125 6.34375 
Q 5.515625 14.109375 5.515625 27.296875 
Q 5.515625 40.671875 12.859375 48.328125 
Q 20.21875 56 33.015625 56 
Q 37.15625 56 41.109375 55.140625 
Q 45.0625 54.296875 48.78125 52.59375 
z
" id="DejaVuSans-99"/>
     <path d="M 30.609375 48.390625 
Q 23.390625 48.390625 19.1875 42.75 
Q 14.984375 37.109375 14.984375 27.296875 
Q 14.984375 17.484375 19.15625 11.84375 
Q 23.34375 6.203125 30.609375 6.203125 
Q 37.796875 6.203125 41.984375 11.859375 
Q 46.1875 17.53125 46.1875 27.296875 
Q 46.1875 37.015625 41.984375 42.703125 
Q 37.796875 48.390625 30.609375 48.390625 
z
M 30.609375 56 
Q 42.328125 56 49.015625 48.375 
Q 55.71875 40.765625 55.71875 27.296875 
Q 55.71875 13.875 49.015625 6.21875 
Q 42.328125 -1.421875 30.609375 -1.421875 
Q 18.84375 -1.421875 12.171875 6.21875 
Q 5.515625 13.875 5.515625 27.296875 
Q 5.515625 40.765625 12.171875 48.375 
Q 18.84375 56 30.609375 56 
z
" id="DejaVuSans-111"/>
     <path d="M 41.109375 46.296875 
Q 39.59375 47.171875 37.8125 47.578125 
Q 36.03125 48 33.890625 48 
Q 26.265625 48 22.1875 43.046875 
Q 18.109375 38.09375 18.109375 28.8125 
L 18.109375 0 
L 9.078125 0 
L 9.078125 54.6875 
L 18.109375 54.6875 
L 18.109375 46.1875 
Q 20.953125 51.171875 25.484375 53.578125 
Q 30.03125 56 36.53125 56 
Q 37.453125 56 38.578125 55.875 
Q 39.703125 55.765625 41.0625 55.515625 
z
" id="DejaVuSans-114"/>
     <path d="M 4.890625 31.390625 
L 31.203125 31.390625 
L 31.203125 23.390625 
L 4.890625 23.390625 
z
" id="DejaVuSans-45"/>
     <path d="M 45.40625 27.984375 
Q 45.40625 37.75 41.375 43.109375 
Q 37.359375 48.484375 30.078125 48.484375 
Q 22.859375 48.484375 18.828125 43.109375 
Q 14.796875 37.75 14.796875 27.984375 
Q 14.796875 18.265625 18.828125 12.890625 
Q 22.859375 7.515625 30.078125 7.515625 
Q 37.359375 7.515625 41.375 12.890625 
Q 45.40625 18.265625 45.40625 27.984375 
z
M 54.390625 6.78125 
Q 54.390625 -7.171875 48.1875 -13.984375 
Q 42 -20.796875 29.203125 -20.796875 
Q 24.46875 -20.796875 20.265625 -20.09375 
Q 16.0625 -19.390625 12.109375 -17.921875 
L 12.109375 -9.1875 
Q 16.0625 -11.328125 19.921875 -12.34375 
Q 23.78125 -13.375 27.78125 -13.375 
Q 36.625 -13.375 41.015625 -8.765625 
Q 45.40625 -4.15625 45.40625 5.171875 
L 45.40625 9.625 
Q 42.625 4.78125 38.28125 2.390625 
Q 33.9375 0 27.875 0 
Q 17.828125 0 11.671875 7.65625 
Q 5.515625 15.328125 5.515625 27.984375 
Q 5.515625 40.671875 11.671875 48.328125 
Q 17.828125 56 27.875 56 
Q 33.9375 56 38.28125 53.609375 
Q 42.625 51.21875 45.40625 46.390625 
L 45.40625 54.6875 
L 54.390625 54.6875 
z
" id="DejaVuSans-103"/>
     <path d="M 19.671875 34.8125 
L 19.671875 8.109375 
L 35.5 8.109375 
Q 43.453125 8.109375 47.28125 11.40625 
Q 51.125 14.703125 51.125 21.484375 
Q 51.125 28.328125 47.28125 31.5625 
Q 43.453125 34.8125 35.5 34.8125 
z
M 19.671875 64.796875 
L 19.671875 42.828125 
L 34.28125 42.828125 
Q 41.5 42.828125 45.03125 45.53125 
Q 48.578125 48.25 48.578125 53.8125 
Q 48.578125 59.328125 45.03125 62.0625 
Q 41.5 64.796875 34.28125 64.796875 
z
M 9.8125 72.90625 
L 35.015625 72.90625 
Q 46.296875 72.90625 52.390625 68.21875 
Q 58.5 63.53125 58.5 54.890625 
Q 58.5 48.1875 55.375 44.234375 
Q 52.25 40.28125 46.1875 39.3125 
Q 53.46875 37.75 57.5 32.78125 
Q 61.53125 27.828125 61.53125 20.40625 
Q 61.53125 10.640625 54.890625 5.3125 
Q 48.25 0 35.984375 0 
L 9.8125 0 
z
" id="DejaVuSans-66"/>
    </defs>
    <g transform="translate(127.08 35.472)scale(0.12 -0.12)">
     <use transform="translate(0 0.015625)" xlink:href="#DejaVuSans-32"/>
     <use transform="translate(31.787109 0.015625)" xlink:href="#DejaVuSans-Oblique-86"/>
     <use transform="translate(100.195312 0.015625)" xlink:href="#DejaVuSans-91"/>
     <use transform="translate(139.208984 0.015625)" xlink:href="#DejaVuSans-Oblique-114"/>
     <use transform="translate(180.322266 0.015625)" xlink:href="#DejaVuSans-93"/>
     <use transform="translate(219.335938 0.015625)" xlink:href="#DejaVuSans-32"/>
     <use transform="translate(251.123047 0.015625)" xlink:href="#DejaVuSans-97"/>
     <use transform="translate(312.402344 0.015625)" xlink:href="#DejaVuSans-115"/>
     <use transform="translate(364.501953 0.015625)" xlink:href="#DejaVuSans-32"/>
     <use transform="translate(396.289062 0.015625)" xlink:href="#DejaVuSans-102"/>
     <use transform="translate(431.494141 0.015625)" xlink:href="#DejaVuSans-117"/>
     <use transform="translate(494.873047 0.015625)" xlink:href="#DejaVuSans-110"/>
     <use transform="translate(558.251953 0.015625)" xlink:href="#DejaVuSans-99"/>
     <use transform="translate(613.232422 0.015625)" xlink:href="#DejaVuSans-116"/>
     <use transform="translate(652.441406 0.015625)" xlink:href="#DejaVuSans-105"/>
     <use transform="translate(680.224609 0.015625)" xlink:href="#DejaVuSans-111"/>
     <use transform="translate(741.40625 0.015625)" xlink:href="#DejaVuSans-110"/>
     <use transform="translate(804.785156 0.015625)" xlink:href="#DejaVuSans-32"/>
     <use transform="translate(836.572266 0.015625)" xlink:href="#DejaVuSans-111"/>
     <use transform="translate(897.753906 0.015625)" xlink:href="#DejaVuSans-102"/>
     <use transform="translate(932.958984 0.015625)" xlink:href="#DejaVuSans-32"/>
     <use transform="translate(964.746094 0.015625)" xlink:href="#DejaVuSans-116"/>
     <use transform="translate(1003.955078 0.015625)" xlink:href="#DejaVuSans-105"/>
     <use transform="translate(1031.738281 0.015625)" xlink:href="#DejaVuSans-109"/>
     <use transform="translate(1129.150391 0.015625)" xlink:href="#DejaVuSans-101"/>
     <use transform="translate(1190.673828 0.015625)" xlink:href="#DejaVuSans-32"/>
     <use transform="translate(1222.460938 0.015625)" xlink:href="#DejaVuSans-114"/>
     <use transform="translate(1263.574219 0.015625)" xlink:href="#DejaVuSans-45"/>
     <use transform="translate(1299.658203 0.015625)" xlink:href="#DejaVuSans-103"/>
     <use transform="translate(1363.134766 0.015625)" xlink:href="#DejaVuSans-48"/>
     <use transform="translate(1426.757812 0.015625)" xlink:href="#DejaVuSans-46"/>
     <use transform="translate(1458.544922 0.015625)" xlink:href="#DejaVuSans-54"/>
     <use transform="translate(1522.167969 0.015625)" xlink:href="#DejaVuSans-48"/>
     <use transform="translate(1585.791016 0.015625)" xlink:href="#DejaVuSans-48"/>
     <use transform="translate(1649.414062 0.015625)" xlink:href="#DejaVuSans-45"/>
     <use transform="translate(1685.498047 0.015625)" xlink:href="#DejaVuSans-66"/>
     <use transform="translate(1754.101562 0.015625)" xlink:href="#DejaVuSans-53"/>
    </g>
   </g>
   <g id="legend_1">
    <g id="patch_7">
     <path d="M 64.6 78.850125 
L 199.5 78.850125 
Q 201.5 78.850125 201.5 76.850125 
L 201.5 48.472 
Q 201.5 46.472 199.5 46.472 
L 64.6 46.472 
Q 62.6 46.472 62.6 48.472 
L 62.6 76.850125 
Q 62.6 78.850125 64.6 78.850125 
z
" style="fill:#ffffff;opacity:0.8;stroke:#cccccc;stroke-linejoin:miter;"/>
    </g>
    <g id="line2d_18">
     <path d="M 66.6 54.570437 
L 86.6 54.570437 
" style="fill:none;stroke:#008080;stroke-linecap:square;stroke-opacity:0.6;stroke-width:1.5;"/>
    </g>
    <g id="line2d_19"/>
    <g id="text_19">
     <!-- measured -->
     <defs>
      <path d="M 45.40625 46.390625 
L 45.40625 75.984375 
L 54.390625 75.984375 
L 54.390625 0 
L 45.40625 0 
L 45.40625 8.203125 
Q 42.578125 3.328125 38.25 0.953125 
Q 33.9375 -1.421875 27.875 -1.421875 
Q 17.96875 -1.421875 11.734375 6.484375 
Q 5.515625 14.40625 5.515625 27.296875 
Q 5.515625 40.1875 11.734375 48.09375 
Q 17.96875 56 27.875 56 
Q 33.9375 56 38.25 53.625 
Q 42.578125 51.265625 45.40625 46.390625 
z
M 14.796875 27.296875 
Q 14.796875 17.390625 18.875 11.75 
Q 22.953125 6.109375 30.078125 6.109375 
Q 37.203125 6.109375 41.296875 11.75 
Q 45.40625 17.390625 45.40625 27.296875 
Q 45.40625 37.203125 41.296875 42.84375 
Q 37.203125 48.484375 30.078125 48.484375 
Q 22.953125 48.484375 18.875 42.84375 
Q 14.796875 37.203125 14.796875 27.296875 
z
" id="DejaVuSans-100"/>
     </defs>
     <g transform="translate(94.6 58.070437)scale(0.1 -0.1)">
      <use xlink:href="#DejaVuSans-109"/>
      <use x="97.412109" xlink:href="#DejaVuSans-101"/>
      <use x="158.935547" xlink:href="#DejaVuSans-97"/>
      <use x="220.214844" xlink:href="#DejaVuSans-115"/>
      <use x="272.314453" xlink:href="#DejaVuSans-117"/>
      <use x="335.693359" xlink:href="#DejaVuSans-114"/>
      <use x="376.775391" xlink:href="#DejaVuSans-101"/>
      <use x="438.298828" xlink:href="#DejaVuSans-100"/>
     </g>
    </g>
    <g id="LineCollection_2">
     <path d="M 76.6 74.250125 
L 76.6 64.250125 
" style="fill:none;stroke:#000000;stroke-opacity:0.2;stroke-width:1.5;"/>
    </g>
    <g id="line2d_20"/>
    <g id="line2d_21">
     <g>
      <use style="fill-opacity:0.2;stroke:#000000;stroke-opacity:0.2;" x="76.6" xlink:href="#m3f7bf7b128" y="69.250125"/>
     </g>
    </g>
    <g id="text_20">
     <!-- liner fitting $D$=2.244 -->
     <defs>
      <path d="M 9.421875 75.984375 
L 18.40625 75.984375 
L 18.40625 0 
L 9.421875 0 
z
" id="DejaVuSans-108"/>
      <path d="M 16.890625 72.90625 
L 38.09375 72.90625 
Q 54.984375 72.90625 63.59375 65.75 
Q 72.21875 58.59375 72.21875 44.484375 
Q 72.21875 35.15625 68.9375 26.53125 
Q 65.671875 17.921875 59.90625 12.015625 
Q 54.109375 5.953125 45.171875 2.96875 
Q 36.234375 0 24.03125 0 
L 2.6875 0 
z
M 25.203125 64.796875 
L 14.203125 8.109375 
L 27.09375 8.109375 
Q 43.65625 8.109375 52.734375 17.625 
Q 61.8125 27.15625 61.8125 44.484375 
Q 61.8125 54.984375 55.953125 59.890625 
Q 50.09375 64.796875 37.59375 64.796875 
z
" id="DejaVuSans-Oblique-68"/>
      <path d="M 10.59375 45.40625 
L 73.1875 45.40625 
L 73.1875 37.203125 
L 10.59375 37.203125 
z
M 10.59375 25.484375 
L 73.1875 25.484375 
L 73.1875 17.1875 
L 10.59375 17.1875 
z
" id="DejaVuSans-61"/>
     </defs>
     <g transform="translate(94.6 72.750125)scale(0.1 -0.1)">
      <use transform="translate(0 0.015625)" xlink:href="#DejaVuSans-108"/>
      <use transform="translate(27.783203 0.015625)" xlink:href="#DejaVuSans-105"/>
      <use transform="translate(55.566406 0.015625)" xlink:href="#DejaVuSans-110"/>
      <use transform="translate(118.945312 0.015625)" xlink:href="#DejaVuSans-101"/>
      <use transform="translate(180.46875 0.015625)" xlink:href="#DejaVuSans-114"/>
      <use transform="translate(221.582031 0.015625)" xlink:href="#DejaVuSans-32"/>
      <use transform="translate(253.369141 0.015625)" xlink:href="#DejaVuSans-102"/>
      <use transform="translate(288.574219 0.015625)" xlink:href="#DejaVuSans-105"/>
      <use transform="translate(316.357422 0.015625)" xlink:href="#DejaVuSans-116"/>
      <use transform="translate(355.566406 0.015625)" xlink:href="#DejaVuSans-116"/>
      <use transform="translate(394.775391 0.015625)" xlink:href="#DejaVuSans-105"/>
      <use transform="translate(422.558594 0.015625)" xlink:href="#DejaVuSans-110"/>
      <use transform="translate(485.9375 0.015625)" xlink:href="#DejaVuSans-103"/>
      <use transform="translate(549.414062 0.015625)" xlink:href="#DejaVuSans-32"/>
      <use transform="translate(581.201172 0.015625)" xlink:href="#DejaVuSans-Oblique-68"/>
      <use transform="translate(658.203125 0.015625)" xlink:href="#DejaVuSans-61"/>
      <use transform="translate(741.992188 0.015625)" xlink:href="#DejaVuSans-50"/>
      <use transform="translate(805.615234 0.015625)" xlink:href="#DejaVuSans-46"/>
      <use transform="translate(837.324219 0.015625)" xlink:href="#DejaVuSans-50"/>
      <use transform="translate(900.947266 0.015625)" xlink:href="#DejaVuSans-52"/>
      <use transform="translate(964.570312 0.015625)" xlink:href="#DejaVuSans-52"/>
     </g>
    </g>
   </g>
  </g>
 </g>
 <defs>
  <clipPath id="p8e80de9d05">
   <rect height="266.112" width="357.12" x="57.6" y="41.472"/>
  </clipPath>
 </defs>
</svg>
