<?xml version="1.0" encoding="utf-8" standalone="no"?>
<!DOCTYPE svg PUBLIC "-//W3C//DTD SVG 1.1//EN"
  "http://www.w3.org/Graphics/SVG/1.1/DTD/svg11.dtd">
<!-- Created with matplotlib (https://matplotlib.org/) -->
<svg height="345.6pt" version="1.1" viewBox="0 0 460.8 345.6" width="460.8pt" xmlns="http://www.w3.org/2000/svg" xmlns:xlink="http://www.w3.org/1999/xlink">
 <defs>
  <style type="text/css">
*{stroke-linecap:butt;stroke-linejoin:round;}
  </style>
 </defs>
 <g id="figure_1">
  <g id="patch_1">
   <path d="M 0 345.6 
L 460.8 345.6 
L 460.8 0 
L 0 0 
z
" style="fill:#ffffff;"/>
  </g>
  <g id="axes_1">
   <g id="patch_2">
    <path d="M 57.6 307.584 
L 414.72 307.584 
L 414.72 41.472 
L 57.6 41.472 
z
" style="fill:#ffffff;"/>
   </g>
   <g id="matplotlib.axis_1">
    <g id="xtick_1">
     <g id="line2d_1">
      <defs>
       <path d="M 0 0 
L 0 3.5 
" id="m8e1c11cbc3" style="stroke:#000000;stroke-width:0.8;"/>
      </defs>
      <g>
       <use style="stroke:#000000;stroke-width:0.8;" x="73.832727" xlink:href="#m8e1c11cbc3" y="307.584"/>
      </g>
     </g>
     <g id="text_1">
      <!-- 0.0 -->
      <defs>
       <path d="M 31.78125 66.40625 
Q 24.171875 66.40625 20.328125 58.90625 
Q 16.5 51.421875 16.5 36.375 
Q 16.5 21.390625 20.328125 13.890625 
Q 24.171875 6.390625 31.78125 6.390625 
Q 39.453125 6.390625 43.28125 13.890625 
Q 47.125 21.390625 47.125 36.375 
Q 47.125 51.421875 43.28125 58.90625 
Q 39.453125 66.40625 31.78125 66.40625 
z
M 31.78125 74.21875 
Q 44.046875 74.21875 50.515625 64.515625 
Q 56.984375 54.828125 56.984375 36.375 
Q 56.984375 17.96875 50.515625 8.265625 
Q 44.046875 -1.421875 31.78125 -1.421875 
Q 19.53125 -1.421875 13.0625 8.265625 
Q 6.59375 17.96875 6.59375 36.375 
Q 6.59375 54.828125 13.0625 64.515625 
Q 19.53125 74.21875 31.78125 74.21875 
z
" id="DejaVuSans-48"/>
       <path d="M 10.6875 12.40625 
L 21 12.40625 
L 21 0 
L 10.6875 0 
z
" id="DejaVuSans-46"/>
      </defs>
      <g transform="translate(65.881165 322.182437)scale(0.1 -0.1)">
       <use xlink:href="#DejaVuSans-48"/>
       <use x="63.623047" xlink:href="#DejaVuSans-46"/>
       <use x="95.410156" xlink:href="#DejaVuSans-48"/>
      </g>
     </g>
    </g>
    <g id="xtick_2">
     <g id="line2d_2">
      <g>
       <use style="stroke:#000000;stroke-width:0.8;" x="114.647631" xlink:href="#m8e1c11cbc3" y="307.584"/>
      </g>
     </g>
     <g id="text_2">
      <!-- 0.5 -->
      <defs>
       <path d="M 10.796875 72.90625 
L 49.515625 72.90625 
L 49.515625 64.59375 
L 19.828125 64.59375 
L 19.828125 46.734375 
Q 21.96875 47.46875 24.109375 47.828125 
Q 26.265625 48.1875 28.421875 48.1875 
Q 40.625 48.1875 47.75 41.5 
Q 54.890625 34.8125 54.890625 23.390625 
Q 54.890625 11.625 47.5625 5.09375 
Q 40.234375 -1.421875 26.90625 -1.421875 
Q 22.3125 -1.421875 17.546875 -0.640625 
Q 12.796875 0.140625 7.71875 1.703125 
L 7.71875 11.625 
Q 12.109375 9.234375 16.796875 8.0625 
Q 21.484375 6.890625 26.703125 6.890625 
Q 35.15625 6.890625 40.078125 11.328125 
Q 45.015625 15.765625 45.015625 23.390625 
Q 45.015625 31 40.078125 35.4375 
Q 35.15625 39.890625 26.703125 39.890625 
Q 22.75 39.890625 18.8125 39.015625 
Q 14.890625 38.140625 10.796875 36.28125 
z
" id="DejaVuSans-53"/>
      </defs>
      <g transform="translate(106.696068 322.182437)scale(0.1 -0.1)">
       <use xlink:href="#DejaVuSans-48"/>
       <use x="63.623047" xlink:href="#DejaVuSans-46"/>
       <use x="95.410156" xlink:href="#DejaVuSans-53"/>
      </g>
     </g>
    </g>
    <g id="xtick_3">
     <g id="line2d_3">
      <g>
       <use style="stroke:#000000;stroke-width:0.8;" x="155.462534" xlink:href="#m8e1c11cbc3" y="307.584"/>
      </g>
     </g>
     <g id="text_3">
      <!-- 1.0 -->
      <defs>
       <path d="M 12.40625 8.296875 
L 28.515625 8.296875 
L 28.515625 63.921875 
L 10.984375 60.40625 
L 10.984375 69.390625 
L 28.421875 72.90625 
L 38.28125 72.90625 
L 38.28125 8.296875 
L 54.390625 8.296875 
L 54.390625 0 
L 12.40625 0 
z
" id="DejaVuSans-49"/>
      </defs>
      <g transform="translate(147.510972 322.182437)scale(0.1 -0.1)">
       <use xlink:href="#DejaVuSans-49"/>
       <use x="63.623047" xlink:href="#DejaVuSans-46"/>
       <use x="95.410156" xlink:href="#DejaVuSans-48"/>
      </g>
     </g>
    </g>
    <g id="xtick_4">
     <g id="line2d_4">
      <g>
       <use style="stroke:#000000;stroke-width:0.8;" x="196.277438" xlink:href="#m8e1c11cbc3" y="307.584"/>
      </g>
     </g>
     <g id="text_4">
      <!-- 1.5 -->
      <g transform="translate(188.325875 322.182437)scale(0.1 -0.1)">
       <use xlink:href="#DejaVuSans-49"/>
       <use x="63.623047" xlink:href="#DejaVuSans-46"/>
       <use x="95.410156" xlink:href="#DejaVuSans-53"/>
      </g>
     </g>
    </g>
    <g id="xtick_5">
     <g id="line2d_5">
      <g>
       <use style="stroke:#000000;stroke-width:0.8;" x="237.092341" xlink:href="#m8e1c11cbc3" y="307.584"/>
      </g>
     </g>
     <g id="text_5">
      <!-- 2.0 -->
      <defs>
       <path d="M 19.1875 8.296875 
L 53.609375 8.296875 
L 53.609375 0 
L 7.328125 0 
L 7.328125 8.296875 
Q 12.9375 14.109375 22.625 23.890625 
Q 32.328125 33.6875 34.8125 36.53125 
Q 39.546875 41.84375 41.421875 45.53125 
Q 43.3125 49.21875 43.3125 52.78125 
Q 43.3125 58.59375 39.234375 62.25 
Q 35.15625 65.921875 28.609375 65.921875 
Q 23.96875 65.921875 18.8125 64.3125 
Q 13.671875 62.703125 7.8125 59.421875 
L 7.8125 69.390625 
Q 13.765625 71.78125 18.9375 73 
Q 24.125 74.21875 28.421875 74.21875 
Q 39.75 74.21875 46.484375 68.546875 
Q 53.21875 62.890625 53.21875 53.421875 
Q 53.21875 48.921875 51.53125 44.890625 
Q 49.859375 40.875 45.40625 35.40625 
Q 44.1875 33.984375 37.640625 27.21875 
Q 31.109375 20.453125 19.1875 8.296875 
z
" id="DejaVuSans-50"/>
      </defs>
      <g transform="translate(229.140779 322.182437)scale(0.1 -0.1)">
       <use xlink:href="#DejaVuSans-50"/>
       <use x="63.623047" xlink:href="#DejaVuSans-46"/>
       <use x="95.410156" xlink:href="#DejaVuSans-48"/>
      </g>
     </g>
    </g>
    <g id="xtick_6">
     <g id="line2d_6">
      <g>
       <use style="stroke:#000000;stroke-width:0.8;" x="277.907245" xlink:href="#m8e1c11cbc3" y="307.584"/>
      </g>
     </g>
     <g id="text_6">
      <!-- 2.5 -->
      <g transform="translate(269.955682 322.182437)scale(0.1 -0.1)">
       <use xlink:href="#DejaVuSans-50"/>
       <use x="63.623047" xlink:href="#DejaVuSans-46"/>
       <use x="95.410156" xlink:href="#DejaVuSans-53"/>
      </g>
     </g>
    </g>
    <g id="xtick_7">
     <g id="line2d_7">
      <g>
       <use style="stroke:#000000;stroke-width:0.8;" x="318.722148" xlink:href="#m8e1c11cbc3" y="307.584"/>
      </g>
     </g>
     <g id="text_7">
      <!-- 3.0 -->
      <defs>
       <path d="M 40.578125 39.3125 
Q 47.65625 37.796875 51.625 33 
Q 55.609375 28.21875 55.609375 21.1875 
Q 55.609375 10.40625 48.1875 4.484375 
Q 40.765625 -1.421875 27.09375 -1.421875 
Q 22.515625 -1.421875 17.65625 -0.515625 
Q 12.796875 0.390625 7.625 2.203125 
L 7.625 11.71875 
Q 11.71875 9.328125 16.59375 8.109375 
Q 21.484375 6.890625 26.8125 6.890625 
Q 36.078125 6.890625 40.9375 10.546875 
Q 45.796875 14.203125 45.796875 21.1875 
Q 45.796875 27.640625 41.28125 31.265625 
Q 36.765625 34.90625 28.71875 34.90625 
L 20.21875 34.90625 
L 20.21875 43.015625 
L 29.109375 43.015625 
Q 36.375 43.015625 40.234375 45.921875 
Q 44.09375 48.828125 44.09375 54.296875 
Q 44.09375 59.90625 40.109375 62.90625 
Q 36.140625 65.921875 28.71875 65.921875 
Q 24.65625 65.921875 20.015625 65.03125 
Q 15.375 64.15625 9.8125 62.3125 
L 9.8125 71.09375 
Q 15.4375 72.65625 20.34375 73.4375 
Q 25.25 74.21875 29.59375 74.21875 
Q 40.828125 74.21875 47.359375 69.109375 
Q 53.90625 64.015625 53.90625 55.328125 
Q 53.90625 49.265625 50.4375 45.09375 
Q 46.96875 40.921875 40.578125 39.3125 
z
" id="DejaVuSans-51"/>
      </defs>
      <g transform="translate(310.770586 322.182437)scale(0.1 -0.1)">
       <use xlink:href="#DejaVuSans-51"/>
       <use x="63.623047" xlink:href="#DejaVuSans-46"/>
       <use x="95.410156" xlink:href="#DejaVuSans-48"/>
      </g>
     </g>
    </g>
    <g id="xtick_8">
     <g id="line2d_8">
      <g>
       <use style="stroke:#000000;stroke-width:0.8;" x="359.537052" xlink:href="#m8e1c11cbc3" y="307.584"/>
      </g>
     </g>
     <g id="text_8">
      <!-- 3.5 -->
      <g transform="translate(351.585489 322.182437)scale(0.1 -0.1)">
       <use xlink:href="#DejaVuSans-51"/>
       <use x="63.623047" xlink:href="#DejaVuSans-46"/>
       <use x="95.410156" xlink:href="#DejaVuSans-53"/>
      </g>
     </g>
    </g>
    <g id="xtick_9">
     <g id="line2d_9">
      <g>
       <use style="stroke:#000000;stroke-width:0.8;" x="400.351955" xlink:href="#m8e1c11cbc3" y="307.584"/>
      </g>
     </g>
     <g id="text_9">
      <!-- 4.0 -->
      <defs>
       <path d="M 37.796875 64.3125 
L 12.890625 25.390625 
L 37.796875 25.390625 
z
M 35.203125 72.90625 
L 47.609375 72.90625 
L 47.609375 25.390625 
L 58.015625 25.390625 
L 58.015625 17.1875 
L 47.609375 17.1875 
L 47.609375 0 
L 37.796875 0 
L 37.796875 17.1875 
L 4.890625 17.1875 
L 4.890625 26.703125 
z
" id="DejaVuSans-52"/>
      </defs>
      <g transform="translate(392.400393 322.182437)scale(0.1 -0.1)">
       <use xlink:href="#DejaVuSans-52"/>
       <use x="63.623047" xlink:href="#DejaVuSans-46"/>
       <use x="95.410156" xlink:href="#DejaVuSans-48"/>
      </g>
     </g>
    </g>
    <g id="text_10">
     <!-- time [ s ] -->
     <defs>
      <path d="M 18.3125 70.21875 
L 18.3125 54.6875 
L 36.8125 54.6875 
L 36.8125 47.703125 
L 18.3125 47.703125 
L 18.3125 18.015625 
Q 18.3125 11.328125 20.140625 9.421875 
Q 21.96875 7.515625 27.59375 7.515625 
L 36.8125 7.515625 
L 36.8125 0 
L 27.59375 0 
Q 17.1875 0 13.234375 3.875 
Q 9.28125 7.765625 9.28125 18.015625 
L 9.28125 47.703125 
L 2.6875 47.703125 
L 2.6875 54.6875 
L 9.28125 54.6875 
L 9.28125 70.21875 
z
" id="DejaVuSans-116"/>
      <path d="M 9.421875 54.6875 
L 18.40625 54.6875 
L 18.40625 0 
L 9.421875 0 
z
M 9.421875 75.984375 
L 18.40625 75.984375 
L 18.40625 64.59375 
L 9.421875 64.59375 
z
" id="DejaVuSans-105"/>
      <path d="M 52 44.1875 
Q 55.375 50.25 60.0625 53.125 
Q 64.75 56 71.09375 56 
Q 79.640625 56 84.28125 50.015625 
Q 88.921875 44.046875 88.921875 33.015625 
L 88.921875 0 
L 79.890625 0 
L 79.890625 32.71875 
Q 79.890625 40.578125 77.09375 44.375 
Q 74.3125 48.1875 68.609375 48.1875 
Q 61.625 48.1875 57.5625 43.546875 
Q 53.515625 38.921875 53.515625 30.90625 
L 53.515625 0 
L 44.484375 0 
L 44.484375 32.71875 
Q 44.484375 40.625 41.703125 44.40625 
Q 38.921875 48.1875 33.109375 48.1875 
Q 26.21875 48.1875 22.15625 43.53125 
Q 18.109375 38.875 18.109375 30.90625 
L 18.109375 0 
L 9.078125 0 
L 9.078125 54.6875 
L 18.109375 54.6875 
L 18.109375 46.1875 
Q 21.1875 51.21875 25.484375 53.609375 
Q 29.78125 56 35.6875 56 
Q 41.65625 56 45.828125 52.96875 
Q 50 49.953125 52 44.1875 
z
" id="DejaVuSans-109"/>
      <path d="M 56.203125 29.59375 
L 56.203125 25.203125 
L 14.890625 25.203125 
Q 15.484375 15.921875 20.484375 11.0625 
Q 25.484375 6.203125 34.421875 6.203125 
Q 39.59375 6.203125 44.453125 7.46875 
Q 49.3125 8.734375 54.109375 11.28125 
L 54.109375 2.78125 
Q 49.265625 0.734375 44.1875 -0.34375 
Q 39.109375 -1.421875 33.890625 -1.421875 
Q 20.796875 -1.421875 13.15625 6.1875 
Q 5.515625 13.8125 5.515625 26.8125 
Q 5.515625 40.234375 12.765625 48.109375 
Q 20.015625 56 32.328125 56 
Q 43.359375 56 49.78125 48.890625 
Q 56.203125 41.796875 56.203125 29.59375 
z
M 47.21875 32.234375 
Q 47.125 39.59375 43.09375 43.984375 
Q 39.0625 48.390625 32.421875 48.390625 
Q 24.90625 48.390625 20.390625 44.140625 
Q 15.875 39.890625 15.1875 32.171875 
z
" id="DejaVuSans-101"/>
      <path id="DejaVuSans-32"/>
      <path d="M 8.59375 75.984375 
L 29.296875 75.984375 
L 29.296875 69 
L 17.578125 69 
L 17.578125 -6.203125 
L 29.296875 -6.203125 
L 29.296875 -13.1875 
L 8.59375 -13.1875 
z
" id="DejaVuSans-91"/>
      <path d="M 44.28125 53.078125 
L 44.28125 44.578125 
Q 40.484375 46.53125 36.375 47.5 
Q 32.28125 48.484375 27.875 48.484375 
Q 21.1875 48.484375 17.84375 46.4375 
Q 14.5 44.390625 14.5 40.28125 
Q 14.5 37.15625 16.890625 35.375 
Q 19.28125 33.59375 26.515625 31.984375 
L 29.59375 31.296875 
Q 39.15625 29.25 43.1875 25.515625 
Q 47.21875 21.78125 47.21875 15.09375 
Q 47.21875 7.46875 41.1875 3.015625 
Q 35.15625 -1.421875 24.609375 -1.421875 
Q 20.21875 -1.421875 15.453125 -0.5625 
Q 10.6875 0.296875 5.421875 2 
L 5.421875 11.28125 
Q 10.40625 8.6875 15.234375 7.390625 
Q 20.0625 6.109375 24.8125 6.109375 
Q 31.15625 6.109375 34.5625 8.28125 
Q 37.984375 10.453125 37.984375 14.40625 
Q 37.984375 18.0625 35.515625 20.015625 
Q 33.0625 21.96875 24.703125 23.78125 
L 21.578125 24.515625 
Q 13.234375 26.265625 9.515625 29.90625 
Q 5.8125 33.546875 5.8125 39.890625 
Q 5.8125 47.609375 11.28125 51.796875 
Q 16.75 56 26.8125 56 
Q 31.78125 56 36.171875 55.265625 
Q 40.578125 54.546875 44.28125 53.078125 
z
" id="DejaVuSans-115"/>
      <path d="M 30.421875 75.984375 
L 30.421875 -13.1875 
L 9.71875 -13.1875 
L 9.71875 -6.203125 
L 21.390625 -6.203125 
L 21.390625 69 
L 9.71875 69 
L 9.71875 75.984375 
z
" id="DejaVuSans-93"/>
     </defs>
     <g transform="translate(213.590469 335.860562)scale(0.1 -0.1)">
      <use xlink:href="#DejaVuSans-116"/>
      <use x="39.208984" xlink:href="#DejaVuSans-105"/>
      <use x="66.992188" xlink:href="#DejaVuSans-109"/>
      <use x="164.404297" xlink:href="#DejaVuSans-101"/>
      <use x="225.927734" xlink:href="#DejaVuSans-32"/>
      <use x="257.714844" xlink:href="#DejaVuSans-91"/>
      <use x="296.728516" xlink:href="#DejaVuSans-32"/>
      <use x="328.515625" xlink:href="#DejaVuSans-115"/>
      <use x="380.615234" xlink:href="#DejaVuSans-32"/>
      <use x="412.402344" xlink:href="#DejaVuSans-93"/>
     </g>
    </g>
   </g>
   <g id="matplotlib.axis_2">
    <g id="ytick_1">
     <g id="line2d_10">
      <defs>
       <path d="M 0 0 
L -3.5 0 
" id="m93fec5ff9e" style="stroke:#000000;stroke-width:0.8;"/>
      </defs>
      <g>
       <use style="stroke:#000000;stroke-width:0.8;" x="57.6" xlink:href="#m93fec5ff9e" y="295.488"/>
      </g>
     </g>
     <g id="text_11">
      <!-- −1.0 -->
      <defs>
       <path d="M 10.59375 35.5 
L 73.1875 35.5 
L 73.1875 27.203125 
L 10.59375 27.203125 
z
" id="DejaVuSans-8722"/>
      </defs>
      <g transform="translate(26.317187 299.287219)scale(0.1 -0.1)">
       <use xlink:href="#DejaVuSans-8722"/>
       <use x="83.789062" xlink:href="#DejaVuSans-49"/>
       <use x="147.412109" xlink:href="#DejaVuSans-46"/>
       <use x="179.199219" xlink:href="#DejaVuSans-48"/>
      </g>
     </g>
    </g>
    <g id="ytick_2">
     <g id="line2d_11">
      <g>
       <use style="stroke:#000000;stroke-width:0.8;" x="57.6" xlink:href="#m93fec5ff9e" y="246.764646"/>
      </g>
     </g>
     <g id="text_12">
      <!-- −0.5 -->
      <g transform="translate(26.317187 250.563865)scale(0.1 -0.1)">
       <use xlink:href="#DejaVuSans-8722"/>
       <use x="83.789062" xlink:href="#DejaVuSans-48"/>
       <use x="147.412109" xlink:href="#DejaVuSans-46"/>
       <use x="179.199219" xlink:href="#DejaVuSans-53"/>
      </g>
     </g>
    </g>
    <g id="ytick_3">
     <g id="line2d_12">
      <g>
       <use style="stroke:#000000;stroke-width:0.8;" x="57.6" xlink:href="#m93fec5ff9e" y="198.041292"/>
      </g>
     </g>
     <g id="text_13">
      <!-- 0.0 -->
      <g transform="translate(34.696875 201.840511)scale(0.1 -0.1)">
       <use xlink:href="#DejaVuSans-48"/>
       <use x="63.623047" xlink:href="#DejaVuSans-46"/>
       <use x="95.410156" xlink:href="#DejaVuSans-48"/>
      </g>
     </g>
    </g>
    <g id="ytick_4">
     <g id="line2d_13">
      <g>
       <use style="stroke:#000000;stroke-width:0.8;" x="57.6" xlink:href="#m93fec5ff9e" y="149.317938"/>
      </g>
     </g>
     <g id="text_14">
      <!-- 0.5 -->
      <g transform="translate(34.696875 153.117157)scale(0.1 -0.1)">
       <use xlink:href="#DejaVuSans-48"/>
       <use x="63.623047" xlink:href="#DejaVuSans-46"/>
       <use x="95.410156" xlink:href="#DejaVuSans-53"/>
      </g>
     </g>
    </g>
    <g id="ytick_5">
     <g id="line2d_14">
      <g>
       <use style="stroke:#000000;stroke-width:0.8;" x="57.6" xlink:href="#m93fec5ff9e" y="100.594584"/>
      </g>
     </g>
     <g id="text_15">
      <!-- 1.0 -->
      <g transform="translate(34.696875 104.393803)scale(0.1 -0.1)">
       <use xlink:href="#DejaVuSans-49"/>
       <use x="63.623047" xlink:href="#DejaVuSans-46"/>
       <use x="95.410156" xlink:href="#DejaVuSans-48"/>
      </g>
     </g>
    </g>
    <g id="ytick_6">
     <g id="line2d_15">
      <g>
       <use style="stroke:#000000;stroke-width:0.8;" x="57.6" xlink:href="#m93fec5ff9e" y="51.87123"/>
      </g>
     </g>
     <g id="text_16">
      <!-- 1.5 -->
      <g transform="translate(34.696875 55.670449)scale(0.1 -0.1)">
       <use xlink:href="#DejaVuSans-49"/>
       <use x="63.623047" xlink:href="#DejaVuSans-46"/>
       <use x="95.410156" xlink:href="#DejaVuSans-53"/>
      </g>
     </g>
    </g>
    <g id="text_17">
     <!-- $V [ r ] $ [px] -->
     <defs>
      <path d="M 20.609375 0 
L 7.8125 72.90625 
L 17.484375 72.90625 
L 28.078125 10.203125 
L 63.484375 72.90625 
L 74.21875 72.90625 
L 32.078125 0 
z
" id="DejaVuSans-Oblique-86"/>
      <path d="M 44.578125 46.390625 
Q 43.21875 47.125 41.453125 47.515625 
Q 39.703125 47.90625 37.703125 47.90625 
Q 30.515625 47.90625 25.140625 42.453125 
Q 19.78125 37.015625 18.015625 27.875 
L 12.5 0 
L 3.515625 0 
L 14.203125 54.6875 
L 23.1875 54.6875 
L 21.484375 46.1875 
Q 25.046875 50.921875 30 53.453125 
Q 34.96875 56 40.578125 56 
Q 42.046875 56 43.453125 55.828125 
Q 44.875 55.671875 46.296875 55.28125 
z
" id="DejaVuSans-Oblique-114"/>
      <path d="M 18.109375 8.203125 
L 18.109375 -20.796875 
L 9.078125 -20.796875 
L 9.078125 54.6875 
L 18.109375 54.6875 
L 18.109375 46.390625 
Q 20.953125 51.265625 25.265625 53.625 
Q 29.59375 56 35.59375 56 
Q 45.5625 56 51.78125 48.09375 
Q 58.015625 40.1875 58.015625 27.296875 
Q 58.015625 14.40625 51.78125 6.484375 
Q 45.5625 -1.421875 35.59375 -1.421875 
Q 29.59375 -1.421875 25.265625 0.953125 
Q 20.953125 3.328125 18.109375 8.203125 
z
M 48.6875 27.296875 
Q 48.6875 37.203125 44.609375 42.84375 
Q 40.53125 48.484375 33.40625 48.484375 
Q 26.265625 48.484375 22.1875 42.84375 
Q 18.109375 37.203125 18.109375 27.296875 
Q 18.109375 17.390625 22.1875 11.75 
Q 26.265625 6.109375 33.40625 6.109375 
Q 40.53125 6.109375 44.609375 11.75 
Q 48.6875 17.390625 48.6875 27.296875 
z
" id="DejaVuSans-112"/>
      <path d="M 54.890625 54.6875 
L 35.109375 28.078125 
L 55.90625 0 
L 45.3125 0 
L 29.390625 21.484375 
L 13.484375 0 
L 2.875 0 
L 24.125 28.609375 
L 4.6875 54.6875 
L 15.28125 54.6875 
L 29.78125 35.203125 
L 44.28125 54.6875 
z
" id="DejaVuSans-120"/>
     </defs>
     <g transform="translate(20.217187 195.578)rotate(-90)scale(0.1 -0.1)">
      <use transform="translate(0 0.015625)" xlink:href="#DejaVuSans-Oblique-86"/>
      <use transform="translate(68.408203 0.015625)" xlink:href="#DejaVuSans-91"/>
      <use transform="translate(107.421875 0.015625)" xlink:href="#DejaVuSans-Oblique-114"/>
      <use transform="translate(148.535156 0.015625)" xlink:href="#DejaVuSans-93"/>
      <use transform="translate(187.548828 0.015625)" xlink:href="#DejaVuSans-32"/>
      <use transform="translate(219.335938 0.015625)" xlink:href="#DejaVuSans-91"/>
      <use transform="translate(258.349609 0.015625)" xlink:href="#DejaVuSans-112"/>
      <use transform="translate(321.826172 0.015625)" xlink:href="#DejaVuSans-120"/>
      <use transform="translate(381.005859 0.015625)" xlink:href="#DejaVuSans-93"/>
     </g>
    </g>
   </g>
   <g id="LineCollection_1">
    <path clip-path="url(#pdaa7eef3cc)" d="M 73.832727 295.488 
L 73.832727 100.594584 
" style="fill:none;stroke:#000000;stroke-opacity:0.2;stroke-width:1.5;"/>
    <path clip-path="url(#pdaa7eef3cc)" d="M 82.157203 294.403622 
L 82.157203 99.510206 
" style="fill:none;stroke:#000000;stroke-opacity:0.2;stroke-width:1.5;"/>
    <path clip-path="url(#pdaa7eef3cc)" d="M 90.481678 292.621758 
L 90.481678 97.728343 
" style="fill:none;stroke:#000000;stroke-opacity:0.2;stroke-width:1.5;"/>
    <path clip-path="url(#pdaa7eef3cc)" d="M 98.806154 291.511482 
L 98.806154 96.618066 
" style="fill:none;stroke:#000000;stroke-opacity:0.2;stroke-width:1.5;"/>
    <path clip-path="url(#pdaa7eef3cc)" d="M 107.130629 288.885986 
L 107.130629 93.99257 
" style="fill:none;stroke:#000000;stroke-opacity:0.2;stroke-width:1.5;"/>
    <path clip-path="url(#pdaa7eef3cc)" d="M 115.455105 291.737786 
L 115.455105 96.84437 
" style="fill:none;stroke:#000000;stroke-opacity:0.2;stroke-width:1.5;"/>
    <path clip-path="url(#pdaa7eef3cc)" d="M 123.77958 293.098573 
L 123.77958 98.205157 
" style="fill:none;stroke:#000000;stroke-opacity:0.2;stroke-width:1.5;"/>
    <path clip-path="url(#pdaa7eef3cc)" d="M 132.104056 294.816048 
L 132.104056 99.922632 
" style="fill:none;stroke:#000000;stroke-opacity:0.2;stroke-width:1.5;"/>
    <path clip-path="url(#pdaa7eef3cc)" d="M 140.428531 294.037985 
L 140.428531 99.144569 
" style="fill:none;stroke:#000000;stroke-opacity:0.2;stroke-width:1.5;"/>
    <path clip-path="url(#pdaa7eef3cc)" d="M 148.753007 292.931892 
L 148.753007 98.038476 
" style="fill:none;stroke:#000000;stroke-opacity:0.2;stroke-width:1.5;"/>
    <path clip-path="url(#pdaa7eef3cc)" d="M 157.077483 293.876547 
L 157.077483 98.983131 
" style="fill:none;stroke:#000000;stroke-opacity:0.2;stroke-width:1.5;"/>
    <path clip-path="url(#pdaa7eef3cc)" d="M 165.401958 295.449009 
L 165.401958 100.555593 
" style="fill:none;stroke:#000000;stroke-opacity:0.2;stroke-width:1.5;"/>
    <path clip-path="url(#pdaa7eef3cc)" d="M 173.726434 294.32891 
L 173.726434 99.435494 
" style="fill:none;stroke:#000000;stroke-opacity:0.2;stroke-width:1.5;"/>
    <path clip-path="url(#pdaa7eef3cc)" d="M 182.050909 294.529831 
L 182.050909 99.636416 
" style="fill:none;stroke:#000000;stroke-opacity:0.2;stroke-width:1.5;"/>
    <path clip-path="url(#pdaa7eef3cc)" d="M 190.375385 295.322207 
L 190.375385 100.428792 
" style="fill:none;stroke:#000000;stroke-opacity:0.2;stroke-width:1.5;"/>
    <path clip-path="url(#pdaa7eef3cc)" d="M 198.69986 294.429821 
L 198.69986 99.536405 
" style="fill:none;stroke:#000000;stroke-opacity:0.2;stroke-width:1.5;"/>
    <path clip-path="url(#pdaa7eef3cc)" d="M 207.024336 294.523899 
L 207.024336 99.630483 
" style="fill:none;stroke:#000000;stroke-opacity:0.2;stroke-width:1.5;"/>
    <path clip-path="url(#pdaa7eef3cc)" d="M 215.348811 294.835572 
L 215.348811 99.942156 
" style="fill:none;stroke:#000000;stroke-opacity:0.2;stroke-width:1.5;"/>
    <path clip-path="url(#pdaa7eef3cc)" d="M 223.673287 293.23656 
L 223.673287 98.343145 
" style="fill:none;stroke:#000000;stroke-opacity:0.2;stroke-width:1.5;"/>
    <path clip-path="url(#pdaa7eef3cc)" d="M 231.997762 281.328585 
L 231.997762 86.435169 
" style="fill:none;stroke:#000000;stroke-opacity:0.2;stroke-width:1.5;"/>
    <path clip-path="url(#pdaa7eef3cc)" d="M 240.322238 258.108765 
L 240.322238 63.215349 
" style="fill:none;stroke:#000000;stroke-opacity:0.2;stroke-width:1.5;"/>
    <path clip-path="url(#pdaa7eef3cc)" d="M 248.646713 248.461416 
L 248.646713 53.568 
" style="fill:none;stroke:#000000;stroke-opacity:0.2;stroke-width:1.5;"/>
    <path clip-path="url(#pdaa7eef3cc)" d="M 256.971189 260.626369 
L 256.971189 65.732954 
" style="fill:none;stroke:#000000;stroke-opacity:0.2;stroke-width:1.5;"/>
    <path clip-path="url(#pdaa7eef3cc)" d="M 265.295664 248.493393 
L 265.295664 53.599977 
" style="fill:none;stroke:#000000;stroke-opacity:0.2;stroke-width:1.5;"/>
    <path clip-path="url(#pdaa7eef3cc)" d="M 273.62014 254.929122 
L 273.62014 60.035706 
" style="fill:none;stroke:#000000;stroke-opacity:0.2;stroke-width:1.5;"/>
    <path clip-path="url(#pdaa7eef3cc)" d="M 281.944615 270.368887 
L 281.944615 75.475472 
" style="fill:none;stroke:#000000;stroke-opacity:0.2;stroke-width:1.5;"/>
    <path clip-path="url(#pdaa7eef3cc)" d="M 290.269091 287.523421 
L 290.269091 92.630005 
" style="fill:none;stroke:#000000;stroke-opacity:0.2;stroke-width:1.5;"/>
    <path clip-path="url(#pdaa7eef3cc)" d="M 298.593566 278.772884 
L 298.593566 83.879468 
" style="fill:none;stroke:#000000;stroke-opacity:0.2;stroke-width:1.5;"/>
    <path clip-path="url(#pdaa7eef3cc)" d="M 306.918042 292.774081 
L 306.918042 97.880665 
" style="fill:none;stroke:#000000;stroke-opacity:0.2;stroke-width:1.5;"/>
    <path clip-path="url(#pdaa7eef3cc)" d="M 315.242517 295.116673 
L 315.242517 100.223257 
" style="fill:none;stroke:#000000;stroke-opacity:0.2;stroke-width:1.5;"/>
    <path clip-path="url(#pdaa7eef3cc)" d="M 323.566993 294.893738 
L 323.566993 100.000322 
" style="fill:none;stroke:#000000;stroke-opacity:0.2;stroke-width:1.5;"/>
    <path clip-path="url(#pdaa7eef3cc)" d="M 331.891469 294.71517 
L 331.891469 99.821754 
" style="fill:none;stroke:#000000;stroke-opacity:0.2;stroke-width:1.5;"/>
    <path clip-path="url(#pdaa7eef3cc)" d="M 340.215944 294.847669 
L 340.215944 99.954253 
" style="fill:none;stroke:#000000;stroke-opacity:0.2;stroke-width:1.5;"/>
    <path clip-path="url(#pdaa7eef3cc)" d="M 348.54042 293.515284 
L 348.54042 98.621868 
" style="fill:none;stroke:#000000;stroke-opacity:0.2;stroke-width:1.5;"/>
    <path clip-path="url(#pdaa7eef3cc)" d="M 356.864895 292.338821 
L 356.864895 97.445405 
" style="fill:none;stroke:#000000;stroke-opacity:0.2;stroke-width:1.5;"/>
    <path clip-path="url(#pdaa7eef3cc)" d="M 365.189371 284.984678 
L 365.189371 90.091262 
" style="fill:none;stroke:#000000;stroke-opacity:0.2;stroke-width:1.5;"/>
    <path clip-path="url(#pdaa7eef3cc)" d="M 373.513846 270.410775 
L 373.513846 75.517359 
" style="fill:none;stroke:#000000;stroke-opacity:0.2;stroke-width:1.5;"/>
    <path clip-path="url(#pdaa7eef3cc)" d="M 381.838322 292.720263 
L 381.838322 97.826847 
" style="fill:none;stroke:#000000;stroke-opacity:0.2;stroke-width:1.5;"/>
    <path clip-path="url(#pdaa7eef3cc)" d="M 390.162797 293.002384 
L 390.162797 98.108969 
" style="fill:none;stroke:#000000;stroke-opacity:0.2;stroke-width:1.5;"/>
    <path clip-path="url(#pdaa7eef3cc)" d="M 398.487273 293.125823 
L 398.487273 98.232407 
" style="fill:none;stroke:#000000;stroke-opacity:0.2;stroke-width:1.5;"/>
   </g>
   <g id="line2d_16">
    <path clip-path="url(#pdaa7eef3cc)" d="M 73.832727 198.041292 
L 82.157203 197.640215 
L 90.481678 197.239137 
L 98.806154 196.83806 
L 107.130629 196.436983 
L 115.455105 196.035905 
L 123.77958 195.634828 
L 132.104056 195.23375 
L 140.428531 194.832673 
L 148.753007 194.431596 
L 157.077483 194.030518 
L 165.401958 193.629441 
L 173.726434 193.228363 
L 182.050909 192.827286 
L 190.375385 192.426209 
L 198.69986 192.025131 
L 207.024336 191.624054 
L 215.348811 191.222977 
L 223.673287 190.821899 
L 231.997762 190.420822 
L 240.322238 190.019744 
L 248.646713 189.618667 
L 256.971189 189.21759 
L 265.295664 188.816512 
L 273.62014 188.415435 
L 281.944615 188.014357 
L 290.269091 187.61328 
L 298.593566 187.212203 
L 306.918042 186.811125 
L 315.242517 186.410048 
L 323.566993 186.00897 
L 331.891469 185.607893 
L 340.215944 185.206816 
L 348.54042 184.805738 
L 356.864895 184.404661 
L 365.189371 184.003584 
L 373.513846 183.602506 
L 381.838322 183.201429 
L 390.162797 182.800351 
L 398.487273 182.399274 
" style="fill:none;stroke:#008080;stroke-linecap:square;stroke-opacity:0.6;stroke-width:1.5;"/>
   </g>
   <g id="line2d_17">
    <defs>
     <path d="M 0 3 
C 0.795609 3 1.55874 2.683901 2.12132 2.12132 
C 2.683901 1.55874 3 0.795609 3 0 
C 3 -0.795609 2.683901 -1.55874 2.12132 -2.12132 
C 1.55874 -2.683901 0.795609 -3 0 -3 
C -0.795609 -3 -1.55874 -2.683901 -2.12132 -2.12132 
C -2.683901 -1.55874 -3 -0.795609 -3 0 
C -3 0.795609 -2.683901 1.55874 -2.12132 2.12132 
C -1.55874 2.683901 -0.795609 3 0 3 
z
" id="m5e42fd37cd" style="stroke:#000000;stroke-opacity:0.2;"/>
    </defs>
    <g clip-path="url(#pdaa7eef3cc)">
     <use style="fill-opacity:0.2;stroke:#000000;stroke-opacity:0.2;" x="73.832727" xlink:href="#m5e42fd37cd" y="198.041292"/>
     <use style="fill-opacity:0.2;stroke:#000000;stroke-opacity:0.2;" x="82.157203" xlink:href="#m5e42fd37cd" y="196.956914"/>
     <use style="fill-opacity:0.2;stroke:#000000;stroke-opacity:0.2;" x="90.481678" xlink:href="#m5e42fd37cd" y="195.175051"/>
     <use style="fill-opacity:0.2;stroke:#000000;stroke-opacity:0.2;" x="98.806154" xlink:href="#m5e42fd37cd" y="194.064774"/>
     <use style="fill-opacity:0.2;stroke:#000000;stroke-opacity:0.2;" x="107.130629" xlink:href="#m5e42fd37cd" y="191.439278"/>
     <use style="fill-opacity:0.2;stroke:#000000;stroke-opacity:0.2;" x="115.455105" xlink:href="#m5e42fd37cd" y="194.291078"/>
     <use style="fill-opacity:0.2;stroke:#000000;stroke-opacity:0.2;" x="123.77958" xlink:href="#m5e42fd37cd" y="195.651865"/>
     <use style="fill-opacity:0.2;stroke:#000000;stroke-opacity:0.2;" x="132.104056" xlink:href="#m5e42fd37cd" y="197.36934"/>
     <use style="fill-opacity:0.2;stroke:#000000;stroke-opacity:0.2;" x="140.428531" xlink:href="#m5e42fd37cd" y="196.591277"/>
     <use style="fill-opacity:0.2;stroke:#000000;stroke-opacity:0.2;" x="148.753007" xlink:href="#m5e42fd37cd" y="195.485184"/>
     <use style="fill-opacity:0.2;stroke:#000000;stroke-opacity:0.2;" x="157.077483" xlink:href="#m5e42fd37cd" y="196.429839"/>
     <use style="fill-opacity:0.2;stroke:#000000;stroke-opacity:0.2;" x="165.401958" xlink:href="#m5e42fd37cd" y="198.002301"/>
     <use style="fill-opacity:0.2;stroke:#000000;stroke-opacity:0.2;" x="173.726434" xlink:href="#m5e42fd37cd" y="196.882202"/>
     <use style="fill-opacity:0.2;stroke:#000000;stroke-opacity:0.2;" x="182.050909" xlink:href="#m5e42fd37cd" y="197.083123"/>
     <use style="fill-opacity:0.2;stroke:#000000;stroke-opacity:0.2;" x="190.375385" xlink:href="#m5e42fd37cd" y="197.875499"/>
     <use style="fill-opacity:0.2;stroke:#000000;stroke-opacity:0.2;" x="198.69986" xlink:href="#m5e42fd37cd" y="196.983113"/>
     <use style="fill-opacity:0.2;stroke:#000000;stroke-opacity:0.2;" x="207.024336" xlink:href="#m5e42fd37cd" y="197.077191"/>
     <use style="fill-opacity:0.2;stroke:#000000;stroke-opacity:0.2;" x="215.348811" xlink:href="#m5e42fd37cd" y="197.388864"/>
     <use style="fill-opacity:0.2;stroke:#000000;stroke-opacity:0.2;" x="223.673287" xlink:href="#m5e42fd37cd" y="195.789852"/>
     <use style="fill-opacity:0.2;stroke:#000000;stroke-opacity:0.2;" x="231.997762" xlink:href="#m5e42fd37cd" y="183.881877"/>
     <use style="fill-opacity:0.2;stroke:#000000;stroke-opacity:0.2;" x="240.322238" xlink:href="#m5e42fd37cd" y="160.662057"/>
     <use style="fill-opacity:0.2;stroke:#000000;stroke-opacity:0.2;" x="248.646713" xlink:href="#m5e42fd37cd" y="151.014708"/>
     <use style="fill-opacity:0.2;stroke:#000000;stroke-opacity:0.2;" x="256.971189" xlink:href="#m5e42fd37cd" y="163.179661"/>
     <use style="fill-opacity:0.2;stroke:#000000;stroke-opacity:0.2;" x="265.295664" xlink:href="#m5e42fd37cd" y="151.046685"/>
     <use style="fill-opacity:0.2;stroke:#000000;stroke-opacity:0.2;" x="273.62014" xlink:href="#m5e42fd37cd" y="157.482414"/>
     <use style="fill-opacity:0.2;stroke:#000000;stroke-opacity:0.2;" x="281.944615" xlink:href="#m5e42fd37cd" y="172.92218"/>
     <use style="fill-opacity:0.2;stroke:#000000;stroke-opacity:0.2;" x="290.269091" xlink:href="#m5e42fd37cd" y="190.076713"/>
     <use style="fill-opacity:0.2;stroke:#000000;stroke-opacity:0.2;" x="298.593566" xlink:href="#m5e42fd37cd" y="181.326176"/>
     <use style="fill-opacity:0.2;stroke:#000000;stroke-opacity:0.2;" x="306.918042" xlink:href="#m5e42fd37cd" y="195.327373"/>
     <use style="fill-opacity:0.2;stroke:#000000;stroke-opacity:0.2;" x="315.242517" xlink:href="#m5e42fd37cd" y="197.669965"/>
     <use style="fill-opacity:0.2;stroke:#000000;stroke-opacity:0.2;" x="323.566993" xlink:href="#m5e42fd37cd" y="197.44703"/>
     <use style="fill-opacity:0.2;stroke:#000000;stroke-opacity:0.2;" x="331.891469" xlink:href="#m5e42fd37cd" y="197.268462"/>
     <use style="fill-opacity:0.2;stroke:#000000;stroke-opacity:0.2;" x="340.215944" xlink:href="#m5e42fd37cd" y="197.400961"/>
     <use style="fill-opacity:0.2;stroke:#000000;stroke-opacity:0.2;" x="348.54042" xlink:href="#m5e42fd37cd" y="196.068576"/>
     <use style="fill-opacity:0.2;stroke:#000000;stroke-opacity:0.2;" x="356.864895" xlink:href="#m5e42fd37cd" y="194.892113"/>
     <use style="fill-opacity:0.2;stroke:#000000;stroke-opacity:0.2;" x="365.189371" xlink:href="#m5e42fd37cd" y="187.53797"/>
     <use style="fill-opacity:0.2;stroke:#000000;stroke-opacity:0.2;" x="373.513846" xlink:href="#m5e42fd37cd" y="172.964067"/>
     <use style="fill-opacity:0.2;stroke:#000000;stroke-opacity:0.2;" x="381.838322" xlink:href="#m5e42fd37cd" y="195.273555"/>
     <use style="fill-opacity:0.2;stroke:#000000;stroke-opacity:0.2;" x="390.162797" xlink:href="#m5e42fd37cd" y="195.555676"/>
     <use style="fill-opacity:0.2;stroke:#000000;stroke-opacity:0.2;" x="398.487273" xlink:href="#m5e42fd37cd" y="195.679115"/>
    </g>
   </g>
   <g id="patch_3">
    <path d="M 57.6 307.584 
L 57.6 41.472 
" style="fill:none;stroke:#000000;stroke-linecap:square;stroke-linejoin:miter;stroke-width:0.8;"/>
   </g>
   <g id="patch_4">
    <path d="M 414.72 307.584 
L 414.72 41.472 
" style="fill:none;stroke:#000000;stroke-linecap:square;stroke-linejoin:miter;stroke-width:0.8;"/>
   </g>
   <g id="patch_5">
    <path d="M 57.6 307.584 
L 414.72 307.584 
" style="fill:none;stroke:#000000;stroke-linecap:square;stroke-linejoin:miter;stroke-width:0.8;"/>
   </g>
   <g id="patch_6">
    <path d="M 57.6 41.472 
L 414.72 41.472 
" style="fill:none;stroke:#000000;stroke-linecap:square;stroke-linejoin:miter;stroke-width:0.8;"/>
   </g>
   <g id="text_18">
    <!--  $ V [ r ] $ as function of time r-g0.500-C4 -->
    <defs>
     <path d="M 34.28125 27.484375 
Q 23.390625 27.484375 19.1875 25 
Q 14.984375 22.515625 14.984375 16.5 
Q 14.984375 11.71875 18.140625 8.90625 
Q 21.296875 6.109375 26.703125 6.109375 
Q 34.1875 6.109375 38.703125 11.40625 
Q 43.21875 16.703125 43.21875 25.484375 
L 43.21875 27.484375 
z
M 52.203125 31.203125 
L 52.203125 0 
L 43.21875 0 
L 43.21875 8.296875 
Q 40.140625 3.328125 35.546875 0.953125 
Q 30.953125 -1.421875 24.3125 -1.421875 
Q 15.921875 -1.421875 10.953125 3.296875 
Q 6 8.015625 6 15.921875 
Q 6 25.140625 12.171875 29.828125 
Q 18.359375 34.515625 30.609375 34.515625 
L 43.21875 34.515625 
L 43.21875 35.40625 
Q 43.21875 41.609375 39.140625 45 
Q 35.0625 48.390625 27.6875 48.390625 
Q 23 48.390625 18.546875 47.265625 
Q 14.109375 46.140625 10.015625 43.890625 
L 10.015625 52.203125 
Q 14.9375 54.109375 19.578125 55.046875 
Q 24.21875 56 28.609375 56 
Q 40.484375 56 46.34375 49.84375 
Q 52.203125 43.703125 52.203125 31.203125 
z
" id="DejaVuSans-97"/>
     <path d="M 37.109375 75.984375 
L 37.109375 68.5 
L 28.515625 68.5 
Q 23.6875 68.5 21.796875 66.546875 
Q 19.921875 64.59375 19.921875 59.515625 
L 19.921875 54.6875 
L 34.71875 54.6875 
L 34.71875 47.703125 
L 19.921875 47.703125 
L 19.921875 0 
L 10.890625 0 
L 10.890625 47.703125 
L 2.296875 47.703125 
L 2.296875 54.6875 
L 10.890625 54.6875 
L 10.890625 58.5 
Q 10.890625 67.625 15.140625 71.796875 
Q 19.390625 75.984375 28.609375 75.984375 
z
" id="DejaVuSans-102"/>
     <path d="M 8.5 21.578125 
L 8.5 54.6875 
L 17.484375 54.6875 
L 17.484375 21.921875 
Q 17.484375 14.15625 20.5 10.265625 
Q 23.53125 6.390625 29.59375 6.390625 
Q 36.859375 6.390625 41.078125 11.03125 
Q 45.3125 15.671875 45.3125 23.6875 
L 45.3125 54.6875 
L 54.296875 54.6875 
L 54.296875 0 
L 45.3125 0 
L 45.3125 8.40625 
Q 42.046875 3.421875 37.71875 1 
Q 33.40625 -1.421875 27.6875 -1.421875 
Q 18.265625 -1.421875 13.375 4.4375 
Q 8.5 10.296875 8.5 21.578125 
z
M 31.109375 56 
z
" id="DejaVuSans-117"/>
     <path d="M 54.890625 33.015625 
L 54.890625 0 
L 45.90625 0 
L 45.90625 32.71875 
Q 45.90625 40.484375 42.875 44.328125 
Q 39.84375 48.1875 33.796875 48.1875 
Q 26.515625 48.1875 22.3125 43.546875 
Q 18.109375 38.921875 18.109375 30.90625 
L 18.109375 0 
L 9.078125 0 
L 9.078125 54.6875 
L 18.109375 54.6875 
L 18.109375 46.1875 
Q 21.34375 51.125 25.703125 53.5625 
Q 30.078125 56 35.796875 56 
Q 45.21875 56 50.046875 50.171875 
Q 54.890625 44.34375 54.890625 33.015625 
z
" id="DejaVuSans-110"/>
     <path d="M 48.78125 52.59375 
L 48.78125 44.1875 
Q 44.96875 46.296875 41.140625 47.34375 
Q 37.3125 48.390625 33.40625 48.390625 
Q 24.65625 48.390625 19.8125 42.84375 
Q 14.984375 37.3125 14.984375 27.296875 
Q 14.984375 17.28125 19.8125 11.734375 
Q 24.65625 6.203125 33.40625 6.203125 
Q 37.3125 6.203125 41.140625 7.25 
Q 44.96875 8.296875 48.78125 10.40625 
L 48.78125 2.09375 
Q 45.015625 0.34375 40.984375 -0.53125 
Q 36.96875 -1.421875 32.421875 -1.421875 
Q 20.0625 -1.421875 12.78125 6.34375 
Q 5.515625 14.109375 5.515625 27.296875 
Q 5.515625 40.671875 12.859375 48.328125 
Q 20.21875 56 33.015625 56 
Q 37.15625 56 41.109375 55.140625 
Q 45.0625 54.296875 48.78125 52.59375 
z
" id="DejaVuSans-99"/>
     <path d="M 30.609375 48.390625 
Q 23.390625 48.390625 19.1875 42.75 
Q 14.984375 37.109375 14.984375 27.296875 
Q 14.984375 17.484375 19.15625 11.84375 
Q 23.34375 6.203125 30.609375 6.203125 
Q 37.796875 6.203125 41.984375 11.859375 
Q 46.1875 17.53125 46.1875 27.296875 
Q 46.1875 37.015625 41.984375 42.703125 
Q 37.796875 48.390625 30.609375 48.390625 
z
M 30.609375 56 
Q 42.328125 56 49.015625 48.375 
Q 55.71875 40.765625 55.71875 27.296875 
Q 55.71875 13.875 49.015625 6.21875 
Q 42.328125 -1.421875 30.609375 -1.421875 
Q 18.84375 -1.421875 12.171875 6.21875 
Q 5.515625 13.875 5.515625 27.296875 
Q 5.515625 40.765625 12.171875 48.375 
Q 18.84375 56 30.609375 56 
z
" id="DejaVuSans-111"/>
     <path d="M 41.109375 46.296875 
Q 39.59375 47.171875 37.8125 47.578125 
Q 36.03125 48 33.890625 48 
Q 26.265625 48 22.1875 43.046875 
Q 18.109375 38.09375 18.109375 28.8125 
L 18.109375 0 
L 9.078125 0 
L 9.078125 54.6875 
L 18.109375 54.6875 
L 18.109375 46.1875 
Q 20.953125 51.171875 25.484375 53.578125 
Q 30.03125 56 36.53125 56 
Q 37.453125 56 38.578125 55.875 
Q 39.703125 55.765625 41.0625 55.515625 
z
" id="DejaVuSans-114"/>
     <path d="M 4.890625 31.390625 
L 31.203125 31.390625 
L 31.203125 23.390625 
L 4.890625 23.390625 
z
" id="DejaVuSans-45"/>
     <path d="M 45.40625 27.984375 
Q 45.40625 37.75 41.375 43.109375 
Q 37.359375 48.484375 30.078125 48.484375 
Q 22.859375 48.484375 18.828125 43.109375 
Q 14.796875 37.75 14.796875 27.984375 
Q 14.796875 18.265625 18.828125 12.890625 
Q 22.859375 7.515625 30.078125 7.515625 
Q 37.359375 7.515625 41.375 12.890625 
Q 45.40625 18.265625 45.40625 27.984375 
z
M 54.390625 6.78125 
Q 54.390625 -7.171875 48.1875 -13.984375 
Q 42 -20.796875 29.203125 -20.796875 
Q 24.46875 -20.796875 20.265625 -20.09375 
Q 16.0625 -19.390625 12.109375 -17.921875 
L 12.109375 -9.1875 
Q 16.0625 -11.328125 19.921875 -12.34375 
Q 23.78125 -13.375 27.78125 -13.375 
Q 36.625 -13.375 41.015625 -8.765625 
Q 45.40625 -4.15625 45.40625 5.171875 
L 45.40625 9.625 
Q 42.625 4.78125 38.28125 2.390625 
Q 33.9375 0 27.875 0 
Q 17.828125 0 11.671875 7.65625 
Q 5.515625 15.328125 5.515625 27.984375 
Q 5.515625 40.671875 11.671875 48.328125 
Q 17.828125 56 27.875 56 
Q 33.9375 56 38.28125 53.609375 
Q 42.625 51.21875 45.40625 46.390625 
L 45.40625 54.6875 
L 54.390625 54.6875 
z
" id="DejaVuSans-103"/>
     <path d="M 64.40625 67.28125 
L 64.40625 56.890625 
Q 59.421875 61.53125 53.78125 63.8125 
Q 48.140625 66.109375 41.796875 66.109375 
Q 29.296875 66.109375 22.65625 58.46875 
Q 16.015625 50.828125 16.015625 36.375 
Q 16.015625 21.96875 22.65625 14.328125 
Q 29.296875 6.6875 41.796875 6.6875 
Q 48.140625 6.6875 53.78125 8.984375 
Q 59.421875 11.28125 64.40625 15.921875 
L 64.40625 5.609375 
Q 59.234375 2.09375 53.4375 0.328125 
Q 47.65625 -1.421875 41.21875 -1.421875 
Q 24.65625 -1.421875 15.125 8.703125 
Q 5.609375 18.84375 5.609375 36.375 
Q 5.609375 53.953125 15.125 64.078125 
Q 24.65625 74.21875 41.21875 74.21875 
Q 47.75 74.21875 53.53125 72.484375 
Q 59.328125 70.75 64.40625 67.28125 
z
" id="DejaVuSans-67"/>
    </defs>
    <g transform="translate(127.02 35.472)scale(0.12 -0.12)">
     <use transform="translate(0 0.015625)" xlink:href="#DejaVuSans-32"/>
     <use transform="translate(31.787109 0.015625)" xlink:href="#DejaVuSans-Oblique-86"/>
     <use transform="translate(100.195312 0.015625)" xlink:href="#DejaVuSans-91"/>
     <use transform="translate(139.208984 0.015625)" xlink:href="#DejaVuSans-Oblique-114"/>
     <use transform="translate(180.322266 0.015625)" xlink:href="#DejaVuSans-93"/>
     <use transform="translate(219.335938 0.015625)" xlink:href="#DejaVuSans-32"/>
     <use transform="translate(251.123047 0.015625)" xlink:href="#DejaVuSans-97"/>
     <use transform="translate(312.402344 0.015625)" xlink:href="#DejaVuSans-115"/>
     <use transform="translate(364.501953 0.015625)" xlink:href="#DejaVuSans-32"/>
     <use transform="translate(396.289062 0.015625)" xlink:href="#DejaVuSans-102"/>
     <use transform="translate(431.494141 0.015625)" xlink:href="#DejaVuSans-117"/>
     <use transform="translate(494.873047 0.015625)" xlink:href="#DejaVuSans-110"/>
     <use transform="translate(558.251953 0.015625)" xlink:href="#DejaVuSans-99"/>
     <use transform="translate(613.232422 0.015625)" xlink:href="#DejaVuSans-116"/>
     <use transform="translate(652.441406 0.015625)" xlink:href="#DejaVuSans-105"/>
     <use transform="translate(680.224609 0.015625)" xlink:href="#DejaVuSans-111"/>
     <use transform="translate(741.40625 0.015625)" xlink:href="#DejaVuSans-110"/>
     <use transform="translate(804.785156 0.015625)" xlink:href="#DejaVuSans-32"/>
     <use transform="translate(836.572266 0.015625)" xlink:href="#DejaVuSans-111"/>
     <use transform="translate(897.753906 0.015625)" xlink:href="#DejaVuSans-102"/>
     <use transform="translate(932.958984 0.015625)" xlink:href="#DejaVuSans-32"/>
     <use transform="translate(964.746094 0.015625)" xlink:href="#DejaVuSans-116"/>
     <use transform="translate(1003.955078 0.015625)" xlink:href="#DejaVuSans-105"/>
     <use transform="translate(1031.738281 0.015625)" xlink:href="#DejaVuSans-109"/>
     <use transform="translate(1129.150391 0.015625)" xlink:href="#DejaVuSans-101"/>
     <use transform="translate(1190.673828 0.015625)" xlink:href="#DejaVuSans-32"/>
     <use transform="translate(1222.460938 0.015625)" xlink:href="#DejaVuSans-114"/>
     <use transform="translate(1263.574219 0.015625)" xlink:href="#DejaVuSans-45"/>
     <use transform="translate(1299.658203 0.015625)" xlink:href="#DejaVuSans-103"/>
     <use transform="translate(1363.134766 0.015625)" xlink:href="#DejaVuSans-48"/>
     <use transform="translate(1426.757812 0.015625)" xlink:href="#DejaVuSans-46"/>
     <use transform="translate(1458.544922 0.015625)" xlink:href="#DejaVuSans-53"/>
     <use transform="translate(1522.167969 0.015625)" xlink:href="#DejaVuSans-48"/>
     <use transform="translate(1585.791016 0.015625)" xlink:href="#DejaVuSans-48"/>
     <use transform="translate(1649.414062 0.015625)" xlink:href="#DejaVuSans-45"/>
     <use transform="translate(1685.498047 0.015625)" xlink:href="#DejaVuSans-67"/>
     <use transform="translate(1755.322266 0.015625)" xlink:href="#DejaVuSans-52"/>
    </g>
   </g>
   <g id="legend_1">
    <g id="patch_7">
     <path d="M 272.82 78.850125 
L 407.72 78.850125 
Q 409.72 78.850125 409.72 76.850125 
L 409.72 48.472 
Q 409.72 46.472 407.72 46.472 
L 272.82 46.472 
Q 270.82 46.472 270.82 48.472 
L 270.82 76.850125 
Q 270.82 78.850125 272.82 78.850125 
z
" style="fill:#ffffff;opacity:0.8;stroke:#cccccc;stroke-linejoin:miter;"/>
    </g>
    <g id="line2d_18">
     <path d="M 274.82 54.570437 
L 294.82 54.570437 
" style="fill:none;stroke:#008080;stroke-linecap:square;stroke-opacity:0.6;stroke-width:1.5;"/>
    </g>
    <g id="line2d_19"/>
    <g id="text_19">
     <!-- measured -->
     <defs>
      <path d="M 45.40625 46.390625 
L 45.40625 75.984375 
L 54.390625 75.984375 
L 54.390625 0 
L 45.40625 0 
L 45.40625 8.203125 
Q 42.578125 3.328125 38.25 0.953125 
Q 33.9375 -1.421875 27.875 -1.421875 
Q 17.96875 -1.421875 11.734375 6.484375 
Q 5.515625 14.40625 5.515625 27.296875 
Q 5.515625 40.1875 11.734375 48.09375 
Q 17.96875 56 27.875 56 
Q 33.9375 56 38.25 53.625 
Q 42.578125 51.265625 45.40625 46.390625 
z
M 14.796875 27.296875 
Q 14.796875 17.390625 18.875 11.75 
Q 22.953125 6.109375 30.078125 6.109375 
Q 37.203125 6.109375 41.296875 11.75 
Q 45.40625 17.390625 45.40625 27.296875 
Q 45.40625 37.203125 41.296875 42.84375 
Q 37.203125 48.484375 30.078125 48.484375 
Q 22.953125 48.484375 18.875 42.84375 
Q 14.796875 37.203125 14.796875 27.296875 
z
" id="DejaVuSans-100"/>
     </defs>
     <g transform="translate(302.82 58.070437)scale(0.1 -0.1)">
      <use xlink:href="#DejaVuSans-109"/>
      <use x="97.412109" xlink:href="#DejaVuSans-101"/>
      <use x="158.935547" xlink:href="#DejaVuSans-97"/>
      <use x="220.214844" xlink:href="#DejaVuSans-115"/>
      <use x="272.314453" xlink:href="#DejaVuSans-117"/>
      <use x="335.693359" xlink:href="#DejaVuSans-114"/>
      <use x="376.775391" xlink:href="#DejaVuSans-101"/>
      <use x="438.298828" xlink:href="#DejaVuSans-100"/>
     </g>
    </g>
    <g id="LineCollection_2">
     <path d="M 284.82 74.250125 
L 284.82 64.250125 
" style="fill:none;stroke:#000000;stroke-opacity:0.2;stroke-width:1.5;"/>
    </g>
    <g id="line2d_20"/>
    <g id="line2d_21">
     <g>
      <use style="fill-opacity:0.2;stroke:#000000;stroke-opacity:0.2;" x="284.82" xlink:href="#m5e42fd37cd" y="69.250125"/>
     </g>
    </g>
    <g id="text_20">
     <!-- liner fitting $D$=0.040 -->
     <defs>
      <path d="M 9.421875 75.984375 
L 18.40625 75.984375 
L 18.40625 0 
L 9.421875 0 
z
" id="DejaVuSans-108"/>
      <path d="M 16.890625 72.90625 
L 38.09375 72.90625 
Q 54.984375 72.90625 63.59375 65.75 
Q 72.21875 58.59375 72.21875 44.484375 
Q 72.21875 35.15625 68.9375 26.53125 
Q 65.671875 17.921875 59.90625 12.015625 
Q 54.109375 5.953125 45.171875 2.96875 
Q 36.234375 0 24.03125 0 
L 2.6875 0 
z
M 25.203125 64.796875 
L 14.203125 8.109375 
L 27.09375 8.109375 
Q 43.65625 8.109375 52.734375 17.625 
Q 61.8125 27.15625 61.8125 44.484375 
Q 61.8125 54.984375 55.953125 59.890625 
Q 50.09375 64.796875 37.59375 64.796875 
z
" id="DejaVuSans-Oblique-68"/>
      <path d="M 10.59375 45.40625 
L 73.1875 45.40625 
L 73.1875 37.203125 
L 10.59375 37.203125 
z
M 10.59375 25.484375 
L 73.1875 25.484375 
L 73.1875 17.1875 
L 10.59375 17.1875 
z
" id="DejaVuSans-61"/>
     </defs>
     <g transform="translate(302.82 72.750125)scale(0.1 -0.1)">
      <use transform="translate(0 0.015625)" xlink:href="#DejaVuSans-108"/>
      <use transform="translate(27.783203 0.015625)" xlink:href="#DejaVuSans-105"/>
      <use transform="translate(55.566406 0.015625)" xlink:href="#DejaVuSans-110"/>
      <use transform="translate(118.945312 0.015625)" xlink:href="#DejaVuSans-101"/>
      <use transform="translate(180.46875 0.015625)" xlink:href="#DejaVuSans-114"/>
      <use transform="translate(221.582031 0.015625)" xlink:href="#DejaVuSans-32"/>
      <use transform="translate(253.369141 0.015625)" xlink:href="#DejaVuSans-102"/>
      <use transform="translate(288.574219 0.015625)" xlink:href="#DejaVuSans-105"/>
      <use transform="translate(316.357422 0.015625)" xlink:href="#DejaVuSans-116"/>
      <use transform="translate(355.566406 0.015625)" xlink:href="#DejaVuSans-116"/>
      <use transform="translate(394.775391 0.015625)" xlink:href="#DejaVuSans-105"/>
      <use transform="translate(422.558594 0.015625)" xlink:href="#DejaVuSans-110"/>
      <use transform="translate(485.9375 0.015625)" xlink:href="#DejaVuSans-103"/>
      <use transform="translate(549.414062 0.015625)" xlink:href="#DejaVuSans-32"/>
      <use transform="translate(581.201172 0.015625)" xlink:href="#DejaVuSans-Oblique-68"/>
      <use transform="translate(658.203125 0.015625)" xlink:href="#DejaVuSans-61"/>
      <use transform="translate(741.992188 0.015625)" xlink:href="#DejaVuSans-48"/>
      <use transform="translate(805.615234 0.015625)" xlink:href="#DejaVuSans-46"/>
      <use transform="translate(837.402344 0.015625)" xlink:href="#DejaVuSans-48"/>
      <use transform="translate(901.025391 0.015625)" xlink:href="#DejaVuSans-52"/>
      <use transform="translate(964.648438 0.015625)" xlink:href="#DejaVuSans-48"/>
     </g>
    </g>
   </g>
  </g>
 </g>
 <defs>
  <clipPath id="pdaa7eef3cc">
   <rect height="266.112" width="357.12" x="57.6" y="41.472"/>
  </clipPath>
 </defs>
</svg>
