<?xml version="1.0" encoding="utf-8" standalone="no"?>
<!DOCTYPE svg PUBLIC "-//W3C//DTD SVG 1.1//EN"
  "http://www.w3.org/Graphics/SVG/1.1/DTD/svg11.dtd">
<!-- Created with matplotlib (https://matplotlib.org/) -->
<svg height="345.6pt" version="1.1" viewBox="0 0 460.8 345.6" width="460.8pt" xmlns="http://www.w3.org/2000/svg" xmlns:xlink="http://www.w3.org/1999/xlink">
 <defs>
  <style type="text/css">
*{stroke-linecap:butt;stroke-linejoin:round;}
  </style>
 </defs>
 <g id="figure_1">
  <g id="patch_1">
   <path d="M 0 345.6 
L 460.8 345.6 
L 460.8 0 
L 0 0 
z
" style="fill:#ffffff;"/>
  </g>
  <g id="axes_1">
   <g id="patch_2">
    <path d="M 57.6 307.584 
L 414.72 307.584 
L 414.72 41.472 
L 57.6 41.472 
z
" style="fill:#ffffff;"/>
   </g>
   <g id="matplotlib.axis_1">
    <g id="xtick_1">
     <g id="line2d_1">
      <defs>
       <path d="M 0 0 
L 0 3.5 
" id="mbd60ae78a2" style="stroke:#000000;stroke-width:0.8;"/>
      </defs>
      <g>
       <use style="stroke:#000000;stroke-width:0.8;" x="73.832727" xlink:href="#mbd60ae78a2" y="307.584"/>
      </g>
     </g>
     <g id="text_1">
      <!-- 0.0 -->
      <defs>
       <path d="M 31.78125 66.40625 
Q 24.171875 66.40625 20.328125 58.90625 
Q 16.5 51.421875 16.5 36.375 
Q 16.5 21.390625 20.328125 13.890625 
Q 24.171875 6.390625 31.78125 6.390625 
Q 39.453125 6.390625 43.28125 13.890625 
Q 47.125 21.390625 47.125 36.375 
Q 47.125 51.421875 43.28125 58.90625 
Q 39.453125 66.40625 31.78125 66.40625 
z
M 31.78125 74.21875 
Q 44.046875 74.21875 50.515625 64.515625 
Q 56.984375 54.828125 56.984375 36.375 
Q 56.984375 17.96875 50.515625 8.265625 
Q 44.046875 -1.421875 31.78125 -1.421875 
Q 19.53125 -1.421875 13.0625 8.265625 
Q 6.59375 17.96875 6.59375 36.375 
Q 6.59375 54.828125 13.0625 64.515625 
Q 19.53125 74.21875 31.78125 74.21875 
z
" id="DejaVuSans-48"/>
       <path d="M 10.6875 12.40625 
L 21 12.40625 
L 21 0 
L 10.6875 0 
z
" id="DejaVuSans-46"/>
      </defs>
      <g transform="translate(65.881165 322.182437)scale(0.1 -0.1)">
       <use xlink:href="#DejaVuSans-48"/>
       <use x="63.623047" xlink:href="#DejaVuSans-46"/>
       <use x="95.410156" xlink:href="#DejaVuSans-48"/>
      </g>
     </g>
    </g>
    <g id="xtick_2">
     <g id="line2d_2">
      <g>
       <use style="stroke:#000000;stroke-width:0.8;" x="114.622657" xlink:href="#mbd60ae78a2" y="307.584"/>
      </g>
     </g>
     <g id="text_2">
      <!-- 0.5 -->
      <defs>
       <path d="M 10.796875 72.90625 
L 49.515625 72.90625 
L 49.515625 64.59375 
L 19.828125 64.59375 
L 19.828125 46.734375 
Q 21.96875 47.46875 24.109375 47.828125 
Q 26.265625 48.1875 28.421875 48.1875 
Q 40.625 48.1875 47.75 41.5 
Q 54.890625 34.8125 54.890625 23.390625 
Q 54.890625 11.625 47.5625 5.09375 
Q 40.234375 -1.421875 26.90625 -1.421875 
Q 22.3125 -1.421875 17.546875 -0.640625 
Q 12.796875 0.140625 7.71875 1.703125 
L 7.71875 11.625 
Q 12.109375 9.234375 16.796875 8.0625 
Q 21.484375 6.890625 26.703125 6.890625 
Q 35.15625 6.890625 40.078125 11.328125 
Q 45.015625 15.765625 45.015625 23.390625 
Q 45.015625 31 40.078125 35.4375 
Q 35.15625 39.890625 26.703125 39.890625 
Q 22.75 39.890625 18.8125 39.015625 
Q 14.890625 38.140625 10.796875 36.28125 
z
" id="DejaVuSans-53"/>
      </defs>
      <g transform="translate(106.671095 322.182437)scale(0.1 -0.1)">
       <use xlink:href="#DejaVuSans-48"/>
       <use x="63.623047" xlink:href="#DejaVuSans-46"/>
       <use x="95.410156" xlink:href="#DejaVuSans-53"/>
      </g>
     </g>
    </g>
    <g id="xtick_3">
     <g id="line2d_3">
      <g>
       <use style="stroke:#000000;stroke-width:0.8;" x="155.412587" xlink:href="#mbd60ae78a2" y="307.584"/>
      </g>
     </g>
     <g id="text_3">
      <!-- 1.0 -->
      <defs>
       <path d="M 12.40625 8.296875 
L 28.515625 8.296875 
L 28.515625 63.921875 
L 10.984375 60.40625 
L 10.984375 69.390625 
L 28.421875 72.90625 
L 38.28125 72.90625 
L 38.28125 8.296875 
L 54.390625 8.296875 
L 54.390625 0 
L 12.40625 0 
z
" id="DejaVuSans-49"/>
      </defs>
      <g transform="translate(147.461025 322.182437)scale(0.1 -0.1)">
       <use xlink:href="#DejaVuSans-49"/>
       <use x="63.623047" xlink:href="#DejaVuSans-46"/>
       <use x="95.410156" xlink:href="#DejaVuSans-48"/>
      </g>
     </g>
    </g>
    <g id="xtick_4">
     <g id="line2d_4">
      <g>
       <use style="stroke:#000000;stroke-width:0.8;" x="196.202517" xlink:href="#mbd60ae78a2" y="307.584"/>
      </g>
     </g>
     <g id="text_4">
      <!-- 1.5 -->
      <g transform="translate(188.250955 322.182437)scale(0.1 -0.1)">
       <use xlink:href="#DejaVuSans-49"/>
       <use x="63.623047" xlink:href="#DejaVuSans-46"/>
       <use x="95.410156" xlink:href="#DejaVuSans-53"/>
      </g>
     </g>
    </g>
    <g id="xtick_5">
     <g id="line2d_5">
      <g>
       <use style="stroke:#000000;stroke-width:0.8;" x="236.992448" xlink:href="#mbd60ae78a2" y="307.584"/>
      </g>
     </g>
     <g id="text_5">
      <!-- 2.0 -->
      <defs>
       <path d="M 19.1875 8.296875 
L 53.609375 8.296875 
L 53.609375 0 
L 7.328125 0 
L 7.328125 8.296875 
Q 12.9375 14.109375 22.625 23.890625 
Q 32.328125 33.6875 34.8125 36.53125 
Q 39.546875 41.84375 41.421875 45.53125 
Q 43.3125 49.21875 43.3125 52.78125 
Q 43.3125 58.59375 39.234375 62.25 
Q 35.15625 65.921875 28.609375 65.921875 
Q 23.96875 65.921875 18.8125 64.3125 
Q 13.671875 62.703125 7.8125 59.421875 
L 7.8125 69.390625 
Q 13.765625 71.78125 18.9375 73 
Q 24.125 74.21875 28.421875 74.21875 
Q 39.75 74.21875 46.484375 68.546875 
Q 53.21875 62.890625 53.21875 53.421875 
Q 53.21875 48.921875 51.53125 44.890625 
Q 49.859375 40.875 45.40625 35.40625 
Q 44.1875 33.984375 37.640625 27.21875 
Q 31.109375 20.453125 19.1875 8.296875 
z
" id="DejaVuSans-50"/>
      </defs>
      <g transform="translate(229.040885 322.182437)scale(0.1 -0.1)">
       <use xlink:href="#DejaVuSans-50"/>
       <use x="63.623047" xlink:href="#DejaVuSans-46"/>
       <use x="95.410156" xlink:href="#DejaVuSans-48"/>
      </g>
     </g>
    </g>
    <g id="xtick_6">
     <g id="line2d_6">
      <g>
       <use style="stroke:#000000;stroke-width:0.8;" x="277.782378" xlink:href="#mbd60ae78a2" y="307.584"/>
      </g>
     </g>
     <g id="text_6">
      <!-- 2.5 -->
      <g transform="translate(269.830815 322.182437)scale(0.1 -0.1)">
       <use xlink:href="#DejaVuSans-50"/>
       <use x="63.623047" xlink:href="#DejaVuSans-46"/>
       <use x="95.410156" xlink:href="#DejaVuSans-53"/>
      </g>
     </g>
    </g>
    <g id="xtick_7">
     <g id="line2d_7">
      <g>
       <use style="stroke:#000000;stroke-width:0.8;" x="318.572308" xlink:href="#mbd60ae78a2" y="307.584"/>
      </g>
     </g>
     <g id="text_7">
      <!-- 3.0 -->
      <defs>
       <path d="M 40.578125 39.3125 
Q 47.65625 37.796875 51.625 33 
Q 55.609375 28.21875 55.609375 21.1875 
Q 55.609375 10.40625 48.1875 4.484375 
Q 40.765625 -1.421875 27.09375 -1.421875 
Q 22.515625 -1.421875 17.65625 -0.515625 
Q 12.796875 0.390625 7.625 2.203125 
L 7.625 11.71875 
Q 11.71875 9.328125 16.59375 8.109375 
Q 21.484375 6.890625 26.8125 6.890625 
Q 36.078125 6.890625 40.9375 10.546875 
Q 45.796875 14.203125 45.796875 21.1875 
Q 45.796875 27.640625 41.28125 31.265625 
Q 36.765625 34.90625 28.71875 34.90625 
L 20.21875 34.90625 
L 20.21875 43.015625 
L 29.109375 43.015625 
Q 36.375 43.015625 40.234375 45.921875 
Q 44.09375 48.828125 44.09375 54.296875 
Q 44.09375 59.90625 40.109375 62.90625 
Q 36.140625 65.921875 28.71875 65.921875 
Q 24.65625 65.921875 20.015625 65.03125 
Q 15.375 64.15625 9.8125 62.3125 
L 9.8125 71.09375 
Q 15.4375 72.65625 20.34375 73.4375 
Q 25.25 74.21875 29.59375 74.21875 
Q 40.828125 74.21875 47.359375 69.109375 
Q 53.90625 64.015625 53.90625 55.328125 
Q 53.90625 49.265625 50.4375 45.09375 
Q 46.96875 40.921875 40.578125 39.3125 
z
" id="DejaVuSans-51"/>
      </defs>
      <g transform="translate(310.620745 322.182437)scale(0.1 -0.1)">
       <use xlink:href="#DejaVuSans-51"/>
       <use x="63.623047" xlink:href="#DejaVuSans-46"/>
       <use x="95.410156" xlink:href="#DejaVuSans-48"/>
      </g>
     </g>
    </g>
    <g id="xtick_8">
     <g id="line2d_8">
      <g>
       <use style="stroke:#000000;stroke-width:0.8;" x="359.362238" xlink:href="#mbd60ae78a2" y="307.584"/>
      </g>
     </g>
     <g id="text_8">
      <!-- 3.5 -->
      <g transform="translate(351.410675 322.182437)scale(0.1 -0.1)">
       <use xlink:href="#DejaVuSans-51"/>
       <use x="63.623047" xlink:href="#DejaVuSans-46"/>
       <use x="95.410156" xlink:href="#DejaVuSans-53"/>
      </g>
     </g>
    </g>
    <g id="xtick_9">
     <g id="line2d_9">
      <g>
       <use style="stroke:#000000;stroke-width:0.8;" x="400.152168" xlink:href="#mbd60ae78a2" y="307.584"/>
      </g>
     </g>
     <g id="text_9">
      <!-- 4.0 -->
      <defs>
       <path d="M 37.796875 64.3125 
L 12.890625 25.390625 
L 37.796875 25.390625 
z
M 35.203125 72.90625 
L 47.609375 72.90625 
L 47.609375 25.390625 
L 58.015625 25.390625 
L 58.015625 17.1875 
L 47.609375 17.1875 
L 47.609375 0 
L 37.796875 0 
L 37.796875 17.1875 
L 4.890625 17.1875 
L 4.890625 26.703125 
z
" id="DejaVuSans-52"/>
      </defs>
      <g transform="translate(392.200605 322.182437)scale(0.1 -0.1)">
       <use xlink:href="#DejaVuSans-52"/>
       <use x="63.623047" xlink:href="#DejaVuSans-46"/>
       <use x="95.410156" xlink:href="#DejaVuSans-48"/>
      </g>
     </g>
    </g>
    <g id="text_10">
     <!-- time [ s ] -->
     <defs>
      <path d="M 18.3125 70.21875 
L 18.3125 54.6875 
L 36.8125 54.6875 
L 36.8125 47.703125 
L 18.3125 47.703125 
L 18.3125 18.015625 
Q 18.3125 11.328125 20.140625 9.421875 
Q 21.96875 7.515625 27.59375 7.515625 
L 36.8125 7.515625 
L 36.8125 0 
L 27.59375 0 
Q 17.1875 0 13.234375 3.875 
Q 9.28125 7.765625 9.28125 18.015625 
L 9.28125 47.703125 
L 2.6875 47.703125 
L 2.6875 54.6875 
L 9.28125 54.6875 
L 9.28125 70.21875 
z
" id="DejaVuSans-116"/>
      <path d="M 9.421875 54.6875 
L 18.40625 54.6875 
L 18.40625 0 
L 9.421875 0 
z
M 9.421875 75.984375 
L 18.40625 75.984375 
L 18.40625 64.59375 
L 9.421875 64.59375 
z
" id="DejaVuSans-105"/>
      <path d="M 52 44.1875 
Q 55.375 50.25 60.0625 53.125 
Q 64.75 56 71.09375 56 
Q 79.640625 56 84.28125 50.015625 
Q 88.921875 44.046875 88.921875 33.015625 
L 88.921875 0 
L 79.890625 0 
L 79.890625 32.71875 
Q 79.890625 40.578125 77.09375 44.375 
Q 74.3125 48.1875 68.609375 48.1875 
Q 61.625 48.1875 57.5625 43.546875 
Q 53.515625 38.921875 53.515625 30.90625 
L 53.515625 0 
L 44.484375 0 
L 44.484375 32.71875 
Q 44.484375 40.625 41.703125 44.40625 
Q 38.921875 48.1875 33.109375 48.1875 
Q 26.21875 48.1875 22.15625 43.53125 
Q 18.109375 38.875 18.109375 30.90625 
L 18.109375 0 
L 9.078125 0 
L 9.078125 54.6875 
L 18.109375 54.6875 
L 18.109375 46.1875 
Q 21.1875 51.21875 25.484375 53.609375 
Q 29.78125 56 35.6875 56 
Q 41.65625 56 45.828125 52.96875 
Q 50 49.953125 52 44.1875 
z
" id="DejaVuSans-109"/>
      <path d="M 56.203125 29.59375 
L 56.203125 25.203125 
L 14.890625 25.203125 
Q 15.484375 15.921875 20.484375 11.0625 
Q 25.484375 6.203125 34.421875 6.203125 
Q 39.59375 6.203125 44.453125 7.46875 
Q 49.3125 8.734375 54.109375 11.28125 
L 54.109375 2.78125 
Q 49.265625 0.734375 44.1875 -0.34375 
Q 39.109375 -1.421875 33.890625 -1.421875 
Q 20.796875 -1.421875 13.15625 6.1875 
Q 5.515625 13.8125 5.515625 26.8125 
Q 5.515625 40.234375 12.765625 48.109375 
Q 20.015625 56 32.328125 56 
Q 43.359375 56 49.78125 48.890625 
Q 56.203125 41.796875 56.203125 29.59375 
z
M 47.21875 32.234375 
Q 47.125 39.59375 43.09375 43.984375 
Q 39.0625 48.390625 32.421875 48.390625 
Q 24.90625 48.390625 20.390625 44.140625 
Q 15.875 39.890625 15.1875 32.171875 
z
" id="DejaVuSans-101"/>
      <path id="DejaVuSans-32"/>
      <path d="M 8.59375 75.984375 
L 29.296875 75.984375 
L 29.296875 69 
L 17.578125 69 
L 17.578125 -6.203125 
L 29.296875 -6.203125 
L 29.296875 -13.1875 
L 8.59375 -13.1875 
z
" id="DejaVuSans-91"/>
      <path d="M 44.28125 53.078125 
L 44.28125 44.578125 
Q 40.484375 46.53125 36.375 47.5 
Q 32.28125 48.484375 27.875 48.484375 
Q 21.1875 48.484375 17.84375 46.4375 
Q 14.5 44.390625 14.5 40.28125 
Q 14.5 37.15625 16.890625 35.375 
Q 19.28125 33.59375 26.515625 31.984375 
L 29.59375 31.296875 
Q 39.15625 29.25 43.1875 25.515625 
Q 47.21875 21.78125 47.21875 15.09375 
Q 47.21875 7.46875 41.1875 3.015625 
Q 35.15625 -1.421875 24.609375 -1.421875 
Q 20.21875 -1.421875 15.453125 -0.5625 
Q 10.6875 0.296875 5.421875 2 
L 5.421875 11.28125 
Q 10.40625 8.6875 15.234375 7.390625 
Q 20.0625 6.109375 24.8125 6.109375 
Q 31.15625 6.109375 34.5625 8.28125 
Q 37.984375 10.453125 37.984375 14.40625 
Q 37.984375 18.0625 35.515625 20.015625 
Q 33.0625 21.96875 24.703125 23.78125 
L 21.578125 24.515625 
Q 13.234375 26.265625 9.515625 29.90625 
Q 5.8125 33.546875 5.8125 39.890625 
Q 5.8125 47.609375 11.28125 51.796875 
Q 16.75 56 26.8125 56 
Q 31.78125 56 36.171875 55.265625 
Q 40.578125 54.546875 44.28125 53.078125 
z
" id="DejaVuSans-115"/>
      <path d="M 30.421875 75.984375 
L 30.421875 -13.1875 
L 9.71875 -13.1875 
L 9.71875 -6.203125 
L 21.390625 -6.203125 
L 21.390625 69 
L 9.71875 69 
L 9.71875 75.984375 
z
" id="DejaVuSans-93"/>
     </defs>
     <g transform="translate(213.590469 335.860562)scale(0.1 -0.1)">
      <use xlink:href="#DejaVuSans-116"/>
      <use x="39.208984" xlink:href="#DejaVuSans-105"/>
      <use x="66.992188" xlink:href="#DejaVuSans-109"/>
      <use x="164.404297" xlink:href="#DejaVuSans-101"/>
      <use x="225.927734" xlink:href="#DejaVuSans-32"/>
      <use x="257.714844" xlink:href="#DejaVuSans-91"/>
      <use x="296.728516" xlink:href="#DejaVuSans-32"/>
      <use x="328.515625" xlink:href="#DejaVuSans-115"/>
      <use x="380.615234" xlink:href="#DejaVuSans-32"/>
      <use x="412.402344" xlink:href="#DejaVuSans-93"/>
     </g>
    </g>
   </g>
   <g id="matplotlib.axis_2">
    <g id="ytick_1">
     <g id="line2d_10">
      <defs>
       <path d="M 0 0 
L -3.5 0 
" id="m226980fc72" style="stroke:#000000;stroke-width:0.8;"/>
      </defs>
      <g>
       <use style="stroke:#000000;stroke-width:0.8;" x="57.6" xlink:href="#m226980fc72" y="289.149614"/>
      </g>
     </g>
     <g id="text_11">
      <!-- 0 -->
      <g transform="translate(44.2375 292.948833)scale(0.1 -0.1)">
       <use xlink:href="#DejaVuSans-48"/>
      </g>
     </g>
    </g>
    <g id="ytick_2">
     <g id="line2d_11">
      <g>
       <use style="stroke:#000000;stroke-width:0.8;" x="57.6" xlink:href="#m226980fc72" y="257.457687"/>
      </g>
     </g>
     <g id="text_12">
      <!-- 5 -->
      <g transform="translate(44.2375 261.256906)scale(0.1 -0.1)">
       <use xlink:href="#DejaVuSans-53"/>
      </g>
     </g>
    </g>
    <g id="ytick_3">
     <g id="line2d_12">
      <g>
       <use style="stroke:#000000;stroke-width:0.8;" x="57.6" xlink:href="#m226980fc72" y="225.765759"/>
      </g>
     </g>
     <g id="text_13">
      <!-- 10 -->
      <g transform="translate(37.875 229.564978)scale(0.1 -0.1)">
       <use xlink:href="#DejaVuSans-49"/>
       <use x="63.623047" xlink:href="#DejaVuSans-48"/>
      </g>
     </g>
    </g>
    <g id="ytick_4">
     <g id="line2d_13">
      <g>
       <use style="stroke:#000000;stroke-width:0.8;" x="57.6" xlink:href="#m226980fc72" y="194.073832"/>
      </g>
     </g>
     <g id="text_14">
      <!-- 15 -->
      <g transform="translate(37.875 197.873051)scale(0.1 -0.1)">
       <use xlink:href="#DejaVuSans-49"/>
       <use x="63.623047" xlink:href="#DejaVuSans-53"/>
      </g>
     </g>
    </g>
    <g id="ytick_5">
     <g id="line2d_14">
      <g>
       <use style="stroke:#000000;stroke-width:0.8;" x="57.6" xlink:href="#m226980fc72" y="162.381904"/>
      </g>
     </g>
     <g id="text_15">
      <!-- 20 -->
      <g transform="translate(37.875 166.181123)scale(0.1 -0.1)">
       <use xlink:href="#DejaVuSans-50"/>
       <use x="63.623047" xlink:href="#DejaVuSans-48"/>
      </g>
     </g>
    </g>
    <g id="ytick_6">
     <g id="line2d_15">
      <g>
       <use style="stroke:#000000;stroke-width:0.8;" x="57.6" xlink:href="#m226980fc72" y="130.689977"/>
      </g>
     </g>
     <g id="text_16">
      <!-- 25 -->
      <g transform="translate(37.875 134.489195)scale(0.1 -0.1)">
       <use xlink:href="#DejaVuSans-50"/>
       <use x="63.623047" xlink:href="#DejaVuSans-53"/>
      </g>
     </g>
    </g>
    <g id="ytick_7">
     <g id="line2d_16">
      <g>
       <use style="stroke:#000000;stroke-width:0.8;" x="57.6" xlink:href="#m226980fc72" y="98.998049"/>
      </g>
     </g>
     <g id="text_17">
      <!-- 30 -->
      <g transform="translate(37.875 102.797268)scale(0.1 -0.1)">
       <use xlink:href="#DejaVuSans-51"/>
       <use x="63.623047" xlink:href="#DejaVuSans-48"/>
      </g>
     </g>
    </g>
    <g id="ytick_8">
     <g id="line2d_17">
      <g>
       <use style="stroke:#000000;stroke-width:0.8;" x="57.6" xlink:href="#m226980fc72" y="67.306122"/>
      </g>
     </g>
     <g id="text_18">
      <!-- 35 -->
      <g transform="translate(37.875 71.10534)scale(0.1 -0.1)">
       <use xlink:href="#DejaVuSans-51"/>
       <use x="63.623047" xlink:href="#DejaVuSans-53"/>
      </g>
     </g>
    </g>
    <g id="text_19">
     <!-- $V [ r ]_{[ 5 \mu m ]^2} $ -->
     <defs>
      <path d="M 20.609375 0 
L 7.8125 72.90625 
L 17.484375 72.90625 
L 28.078125 10.203125 
L 63.484375 72.90625 
L 74.21875 72.90625 
L 32.078125 0 
z
" id="DejaVuSans-Oblique-86"/>
      <path d="M 44.578125 46.390625 
Q 43.21875 47.125 41.453125 47.515625 
Q 39.703125 47.90625 37.703125 47.90625 
Q 30.515625 47.90625 25.140625 42.453125 
Q 19.78125 37.015625 18.015625 27.875 
L 12.5 0 
L 3.515625 0 
L 14.203125 54.6875 
L 23.1875 54.6875 
L 21.484375 46.1875 
Q 25.046875 50.921875 30 53.453125 
Q 34.96875 56 40.578125 56 
Q 42.046875 56 43.453125 55.828125 
Q 44.875 55.671875 46.296875 55.28125 
z
" id="DejaVuSans-Oblique-114"/>
      <path d="M -1.3125 -20.796875 
L 13.375 54.6875 
L 22.40625 54.6875 
L 15.765625 20.65625 
Q 15.578125 19.625 15.421875 18.359375 
Q 15.28125 17.09375 15.28125 15.828125 
Q 15.28125 11.28125 18.140625 8.828125 
Q 21 6.390625 26.3125 6.390625 
Q 33.546875 6.390625 37.984375 10.484375 
Q 42.4375 14.59375 44 22.796875 
L 50.203125 54.6875 
L 59.1875 54.6875 
L 51.03125 12.640625 
Q 50.828125 11.71875 50.75 11.03125 
Q 50.6875 10.359375 50.6875 9.8125 
Q 50.6875 8.296875 51.296875 7.59375 
Q 51.90625 6.890625 53.21875 6.890625 
Q 53.71875 6.890625 54.5625 7.125 
Q 55.421875 7.375 56.984375 8.015625 
L 55.609375 0.78125 
Q 53.46875 -0.296875 51.515625 -0.859375 
Q 49.5625 -1.421875 47.703125 -1.421875 
Q 44.484375 -1.421875 42.65625 0.625 
Q 40.828125 2.6875 40.828125 6.296875 
Q 38.09375 2.390625 34.296875 0.484375 
Q 30.515625 -1.421875 25.390625 -1.421875 
Q 20.84375 -1.421875 17.453125 0.671875 
Q 14.0625 2.78125 12.984375 6.203125 
L 7.71875 -20.796875 
z
" id="DejaVuSans-Oblique-956"/>
      <path d="M 89.796875 33.015625 
L 83.40625 0 
L 74.421875 0 
L 80.71875 32.71875 
Q 81.109375 34.8125 81.296875 36.328125 
Q 81.5 37.84375 81.5 38.921875 
Q 81.5 43.3125 79.046875 45.75 
Q 76.609375 48.1875 72.21875 48.1875 
Q 65.671875 48.1875 60.546875 43.28125 
Q 55.421875 38.375 53.90625 30.515625 
L 47.90625 0 
L 38.921875 0 
L 45.3125 32.71875 
Q 45.703125 34.515625 45.890625 36.046875 
Q 46.09375 37.59375 46.09375 38.8125 
Q 46.09375 43.265625 43.65625 45.71875 
Q 41.21875 48.1875 36.921875 48.1875 
Q 30.28125 48.1875 25.140625 43.28125 
Q 20.015625 38.375 18.5 30.515625 
L 12.5 0 
L 3.515625 0 
L 14.203125 54.6875 
L 23.1875 54.6875 
L 21.484375 46.1875 
Q 25.140625 50.984375 30.046875 53.484375 
Q 34.96875 56 40.578125 56 
Q 46.53125 56 50.359375 52.875 
Q 54.203125 49.75 54.984375 44.1875 
Q 59.078125 49.953125 64.46875 52.96875 
Q 69.875 56 75.875 56 
Q 82.90625 56 86.734375 51.953125 
Q 90.578125 47.90625 90.578125 40.484375 
Q 90.578125 38.875 90.375 36.9375 
Q 90.1875 35.015625 89.796875 33.015625 
z
" id="DejaVuSans-Oblique-109"/>
     </defs>
     <g transform="translate(30.775 196.378)rotate(-90)scale(0.1 -0.1)">
      <use transform="translate(0 0.015625)" xlink:href="#DejaVuSans-Oblique-86"/>
      <use transform="translate(68.408203 0.015625)" xlink:href="#DejaVuSans-91"/>
      <use transform="translate(107.421875 0.015625)" xlink:href="#DejaVuSans-Oblique-114"/>
      <use transform="translate(148.535156 0.015625)" xlink:href="#DejaVuSans-93"/>
      <use transform="translate(188.505859 -16.390625)scale(0.7)" xlink:href="#DejaVuSans-91"/>
      <use transform="translate(215.81543 -16.390625)scale(0.7)" xlink:href="#DejaVuSans-53"/>
      <use transform="translate(260.351562 -16.390625)scale(0.7)" xlink:href="#DejaVuSans-Oblique-956"/>
      <use transform="translate(304.887695 -16.390625)scale(0.7)" xlink:href="#DejaVuSans-Oblique-109"/>
      <use transform="translate(373.076172 -16.390625)scale(0.7)" xlink:href="#DejaVuSans-93"/>
      <use transform="translate(401.055664 10.40625)scale(0.49)" xlink:href="#DejaVuSans-50"/>
     </g>
    </g>
   </g>
   <g id="LineCollection_1">
    <path clip-path="url(#p14fb5eddff)" d="M 73.832727 295.488 
L 73.832727 282.811229 
" style="fill:none;stroke:#000000;stroke-opacity:0.2;stroke-width:1.5;"/>
    <path clip-path="url(#p14fb5eddff)" d="M 82.157203 287.069868 
L 82.157203 274.393097 
" style="fill:none;stroke:#000000;stroke-opacity:0.2;stroke-width:1.5;"/>
    <path clip-path="url(#p14fb5eddff)" d="M 90.481678 282.098974 
L 90.481678 269.422203 
" style="fill:none;stroke:#000000;stroke-opacity:0.2;stroke-width:1.5;"/>
    <path clip-path="url(#p14fb5eddff)" d="M 98.806154 273.089398 
L 98.806154 260.412627 
" style="fill:none;stroke:#000000;stroke-opacity:0.2;stroke-width:1.5;"/>
    <path clip-path="url(#p14fb5eddff)" d="M 107.130629 270.192324 
L 107.130629 257.515553 
" style="fill:none;stroke:#000000;stroke-opacity:0.2;stroke-width:1.5;"/>
    <path clip-path="url(#p14fb5eddff)" d="M 115.455105 270.361778 
L 115.455105 257.685007 
" style="fill:none;stroke:#000000;stroke-opacity:0.2;stroke-width:1.5;"/>
    <path clip-path="url(#p14fb5eddff)" d="M 123.77958 258.998219 
L 123.77958 246.321448 
" style="fill:none;stroke:#000000;stroke-opacity:0.2;stroke-width:1.5;"/>
    <path clip-path="url(#p14fb5eddff)" d="M 132.104056 246.651703 
L 132.104056 233.974932 
" style="fill:none;stroke:#000000;stroke-opacity:0.2;stroke-width:1.5;"/>
    <path clip-path="url(#p14fb5eddff)" d="M 140.428531 255.642338 
L 140.428531 242.965567 
" style="fill:none;stroke:#000000;stroke-opacity:0.2;stroke-width:1.5;"/>
    <path clip-path="url(#p14fb5eddff)" d="M 148.753007 245.148803 
L 148.753007 232.472032 
" style="fill:none;stroke:#000000;stroke-opacity:0.2;stroke-width:1.5;"/>
    <path clip-path="url(#p14fb5eddff)" d="M 157.077482 247.803303 
L 157.077482 235.126532 
" style="fill:none;stroke:#000000;stroke-opacity:0.2;stroke-width:1.5;"/>
    <path clip-path="url(#p14fb5eddff)" d="M 165.401958 253.645771 
L 165.401958 240.969 
" style="fill:none;stroke:#000000;stroke-opacity:0.2;stroke-width:1.5;"/>
    <path clip-path="url(#p14fb5eddff)" d="M 173.726434 244.521049 
L 173.726434 231.844278 
" style="fill:none;stroke:#000000;stroke-opacity:0.2;stroke-width:1.5;"/>
    <path clip-path="url(#p14fb5eddff)" d="M 182.050909 237.142649 
L 182.050909 224.465878 
" style="fill:none;stroke:#000000;stroke-opacity:0.2;stroke-width:1.5;"/>
    <path clip-path="url(#p14fb5eddff)" d="M 190.375385 228.276509 
L 190.375385 215.599738 
" style="fill:none;stroke:#000000;stroke-opacity:0.2;stroke-width:1.5;"/>
    <path clip-path="url(#p14fb5eddff)" d="M 198.69986 216.549881 
L 198.69986 203.87311 
" style="fill:none;stroke:#000000;stroke-opacity:0.2;stroke-width:1.5;"/>
    <path clip-path="url(#p14fb5eddff)" d="M 207.024336 205.529486 
L 207.024336 192.852715 
" style="fill:none;stroke:#000000;stroke-opacity:0.2;stroke-width:1.5;"/>
    <path clip-path="url(#p14fb5eddff)" d="M 215.348811 215.927519 
L 215.348811 203.250748 
" style="fill:none;stroke:#000000;stroke-opacity:0.2;stroke-width:1.5;"/>
    <path clip-path="url(#p14fb5eddff)" d="M 223.673287 230.260273 
L 223.673287 217.583502 
" style="fill:none;stroke:#000000;stroke-opacity:0.2;stroke-width:1.5;"/>
    <path clip-path="url(#p14fb5eddff)" d="M 231.997762 220.343344 
L 231.997762 207.666573 
" style="fill:none;stroke:#000000;stroke-opacity:0.2;stroke-width:1.5;"/>
    <path clip-path="url(#p14fb5eddff)" d="M 240.322238 229.757901 
L 240.322238 217.08113 
" style="fill:none;stroke:#000000;stroke-opacity:0.2;stroke-width:1.5;"/>
    <path clip-path="url(#p14fb5eddff)" d="M 248.646713 237.590301 
L 248.646713 224.91353 
" style="fill:none;stroke:#000000;stroke-opacity:0.2;stroke-width:1.5;"/>
    <path clip-path="url(#p14fb5eddff)" d="M 256.971189 230.738826 
L 256.971189 218.062055 
" style="fill:none;stroke:#000000;stroke-opacity:0.2;stroke-width:1.5;"/>
    <path clip-path="url(#p14fb5eddff)" d="M 265.295664 223.441062 
L 265.295664 210.764291 
" style="fill:none;stroke:#000000;stroke-opacity:0.2;stroke-width:1.5;"/>
    <path clip-path="url(#p14fb5eddff)" d="M 273.62014 223.754016 
L 273.62014 211.077245 
" style="fill:none;stroke:#000000;stroke-opacity:0.2;stroke-width:1.5;"/>
    <path clip-path="url(#p14fb5eddff)" d="M 281.944615 220.920759 
L 281.944615 208.243988 
" style="fill:none;stroke:#000000;stroke-opacity:0.2;stroke-width:1.5;"/>
    <path clip-path="url(#p14fb5eddff)" d="M 290.269091 204.834968 
L 290.269091 192.158197 
" style="fill:none;stroke:#000000;stroke-opacity:0.2;stroke-width:1.5;"/>
    <path clip-path="url(#p14fb5eddff)" d="M 298.593566 168.032415 
L 298.593566 155.355644 
" style="fill:none;stroke:#000000;stroke-opacity:0.2;stroke-width:1.5;"/>
    <path clip-path="url(#p14fb5eddff)" d="M 306.918042 156.282737 
L 306.918042 143.605966 
" style="fill:none;stroke:#000000;stroke-opacity:0.2;stroke-width:1.5;"/>
    <path clip-path="url(#p14fb5eddff)" d="M 315.242517 178.372251 
L 315.242517 165.69548 
" style="fill:none;stroke:#000000;stroke-opacity:0.2;stroke-width:1.5;"/>
    <path clip-path="url(#p14fb5eddff)" d="M 323.566993 174.904148 
L 323.566993 162.227377 
" style="fill:none;stroke:#000000;stroke-opacity:0.2;stroke-width:1.5;"/>
    <path clip-path="url(#p14fb5eddff)" d="M 331.891469 173.694427 
L 331.891469 161.017656 
" style="fill:none;stroke:#000000;stroke-opacity:0.2;stroke-width:1.5;"/>
    <path clip-path="url(#p14fb5eddff)" d="M 340.215944 169.368886 
L 340.215944 156.692115 
" style="fill:none;stroke:#000000;stroke-opacity:0.2;stroke-width:1.5;"/>
    <path clip-path="url(#p14fb5eddff)" d="M 348.54042 168.064764 
L 348.54042 155.387993 
" style="fill:none;stroke:#000000;stroke-opacity:0.2;stroke-width:1.5;"/>
    <path clip-path="url(#p14fb5eddff)" d="M 356.864895 157.272413 
L 356.864895 144.595642 
" style="fill:none;stroke:#000000;stroke-opacity:0.2;stroke-width:1.5;"/>
    <path clip-path="url(#p14fb5eddff)" d="M 365.189371 134.758697 
L 365.189371 122.081926 
" style="fill:none;stroke:#000000;stroke-opacity:0.2;stroke-width:1.5;"/>
    <path clip-path="url(#p14fb5eddff)" d="M 373.513846 104.764359 
L 373.513846 92.087588 
" style="fill:none;stroke:#000000;stroke-opacity:0.2;stroke-width:1.5;"/>
    <path clip-path="url(#p14fb5eddff)" d="M 381.838322 68.992188 
L 381.838322 56.315416 
" style="fill:none;stroke:#000000;stroke-opacity:0.2;stroke-width:1.5;"/>
    <path clip-path="url(#p14fb5eddff)" d="M 390.162797 66.244771 
L 390.162797 53.568 
" style="fill:none;stroke:#000000;stroke-opacity:0.2;stroke-width:1.5;"/>
    <path clip-path="url(#p14fb5eddff)" d="M 398.487273 69.310317 
L 398.487273 56.633546 
" style="fill:none;stroke:#000000;stroke-opacity:0.2;stroke-width:1.5;"/>
   </g>
   <g id="line2d_18">
    <path clip-path="url(#p14fb5eddff)" d="M 73.832727 289.149614 
L 82.157203 284.645463 
L 90.481678 280.141311 
L 98.806154 275.637159 
L 107.130629 271.133007 
L 115.455105 266.628855 
L 123.77958 262.124703 
L 132.104056 257.620551 
L 140.428531 253.116399 
L 148.753007 248.612248 
L 157.077482 244.108096 
L 165.401958 239.603944 
L 173.726434 235.099792 
L 182.050909 230.59564 
L 190.375385 226.091488 
L 198.69986 221.587336 
L 207.024336 217.083184 
L 215.348811 212.579032 
L 223.673287 208.074881 
L 231.997762 203.570729 
L 240.322238 199.066577 
L 248.646713 194.562425 
L 256.971189 190.058273 
L 265.295664 185.554121 
L 273.62014 181.049969 
L 281.944615 176.545817 
L 290.269091 172.041665 
L 298.593566 167.537514 
L 306.918042 163.033362 
L 315.242517 158.52921 
L 323.566993 154.025058 
L 331.891469 149.520906 
L 340.215944 145.016754 
L 348.54042 140.512602 
L 356.864895 136.00845 
L 365.189371 131.504298 
L 373.513846 127.000147 
L 381.838322 122.495995 
L 390.162797 117.991843 
L 398.487273 113.487691 
" style="fill:none;stroke:#008080;stroke-linecap:square;stroke-opacity:0.6;stroke-width:1.5;"/>
   </g>
   <g id="line2d_19">
    <defs>
     <path d="M 0 3 
C 0.795609 3 1.55874 2.683901 2.12132 2.12132 
C 2.683901 1.55874 3 0.795609 3 0 
C 3 -0.795609 2.683901 -1.55874 2.12132 -2.12132 
C 1.55874 -2.683901 0.795609 -3 0 -3 
C -0.795609 -3 -1.55874 -2.683901 -2.12132 -2.12132 
C -2.683901 -1.55874 -3 -0.795609 -3 0 
C -3 0.795609 -2.683901 1.55874 -2.12132 2.12132 
C -1.55874 2.683901 -0.795609 3 0 3 
z
" id="m31d9420c0e" style="stroke:#000000;stroke-opacity:0.2;"/>
    </defs>
    <g clip-path="url(#p14fb5eddff)">
     <use style="fill-opacity:0.2;stroke:#000000;stroke-opacity:0.2;" x="73.832727" xlink:href="#m31d9420c0e" y="289.149614"/>
     <use style="fill-opacity:0.2;stroke:#000000;stroke-opacity:0.2;" x="82.157203" xlink:href="#m31d9420c0e" y="280.731482"/>
     <use style="fill-opacity:0.2;stroke:#000000;stroke-opacity:0.2;" x="90.481678" xlink:href="#m31d9420c0e" y="275.760588"/>
     <use style="fill-opacity:0.2;stroke:#000000;stroke-opacity:0.2;" x="98.806154" xlink:href="#m31d9420c0e" y="266.751013"/>
     <use style="fill-opacity:0.2;stroke:#000000;stroke-opacity:0.2;" x="107.130629" xlink:href="#m31d9420c0e" y="263.853938"/>
     <use style="fill-opacity:0.2;stroke:#000000;stroke-opacity:0.2;" x="115.455105" xlink:href="#m31d9420c0e" y="264.023392"/>
     <use style="fill-opacity:0.2;stroke:#000000;stroke-opacity:0.2;" x="123.77958" xlink:href="#m31d9420c0e" y="252.659833"/>
     <use style="fill-opacity:0.2;stroke:#000000;stroke-opacity:0.2;" x="132.104056" xlink:href="#m31d9420c0e" y="240.313317"/>
     <use style="fill-opacity:0.2;stroke:#000000;stroke-opacity:0.2;" x="140.428531" xlink:href="#m31d9420c0e" y="249.303952"/>
     <use style="fill-opacity:0.2;stroke:#000000;stroke-opacity:0.2;" x="148.753007" xlink:href="#m31d9420c0e" y="238.810417"/>
     <use style="fill-opacity:0.2;stroke:#000000;stroke-opacity:0.2;" x="157.077482" xlink:href="#m31d9420c0e" y="241.464918"/>
     <use style="fill-opacity:0.2;stroke:#000000;stroke-opacity:0.2;" x="165.401958" xlink:href="#m31d9420c0e" y="247.307385"/>
     <use style="fill-opacity:0.2;stroke:#000000;stroke-opacity:0.2;" x="173.726434" xlink:href="#m31d9420c0e" y="238.182664"/>
     <use style="fill-opacity:0.2;stroke:#000000;stroke-opacity:0.2;" x="182.050909" xlink:href="#m31d9420c0e" y="230.804264"/>
     <use style="fill-opacity:0.2;stroke:#000000;stroke-opacity:0.2;" x="190.375385" xlink:href="#m31d9420c0e" y="221.938123"/>
     <use style="fill-opacity:0.2;stroke:#000000;stroke-opacity:0.2;" x="198.69986" xlink:href="#m31d9420c0e" y="210.211496"/>
     <use style="fill-opacity:0.2;stroke:#000000;stroke-opacity:0.2;" x="207.024336" xlink:href="#m31d9420c0e" y="199.1911"/>
     <use style="fill-opacity:0.2;stroke:#000000;stroke-opacity:0.2;" x="215.348811" xlink:href="#m31d9420c0e" y="209.589133"/>
     <use style="fill-opacity:0.2;stroke:#000000;stroke-opacity:0.2;" x="223.673287" xlink:href="#m31d9420c0e" y="223.921888"/>
     <use style="fill-opacity:0.2;stroke:#000000;stroke-opacity:0.2;" x="231.997762" xlink:href="#m31d9420c0e" y="214.004958"/>
     <use style="fill-opacity:0.2;stroke:#000000;stroke-opacity:0.2;" x="240.322238" xlink:href="#m31d9420c0e" y="223.419516"/>
     <use style="fill-opacity:0.2;stroke:#000000;stroke-opacity:0.2;" x="248.646713" xlink:href="#m31d9420c0e" y="231.251916"/>
     <use style="fill-opacity:0.2;stroke:#000000;stroke-opacity:0.2;" x="256.971189" xlink:href="#m31d9420c0e" y="224.400441"/>
     <use style="fill-opacity:0.2;stroke:#000000;stroke-opacity:0.2;" x="265.295664" xlink:href="#m31d9420c0e" y="217.102677"/>
     <use style="fill-opacity:0.2;stroke:#000000;stroke-opacity:0.2;" x="273.62014" xlink:href="#m31d9420c0e" y="217.415631"/>
     <use style="fill-opacity:0.2;stroke:#000000;stroke-opacity:0.2;" x="281.944615" xlink:href="#m31d9420c0e" y="214.582374"/>
     <use style="fill-opacity:0.2;stroke:#000000;stroke-opacity:0.2;" x="290.269091" xlink:href="#m31d9420c0e" y="198.496583"/>
     <use style="fill-opacity:0.2;stroke:#000000;stroke-opacity:0.2;" x="298.593566" xlink:href="#m31d9420c0e" y="161.69403"/>
     <use style="fill-opacity:0.2;stroke:#000000;stroke-opacity:0.2;" x="306.918042" xlink:href="#m31d9420c0e" y="149.944352"/>
     <use style="fill-opacity:0.2;stroke:#000000;stroke-opacity:0.2;" x="315.242517" xlink:href="#m31d9420c0e" y="172.033866"/>
     <use style="fill-opacity:0.2;stroke:#000000;stroke-opacity:0.2;" x="323.566993" xlink:href="#m31d9420c0e" y="168.565762"/>
     <use style="fill-opacity:0.2;stroke:#000000;stroke-opacity:0.2;" x="331.891469" xlink:href="#m31d9420c0e" y="167.356042"/>
     <use style="fill-opacity:0.2;stroke:#000000;stroke-opacity:0.2;" x="340.215944" xlink:href="#m31d9420c0e" y="163.030501"/>
     <use style="fill-opacity:0.2;stroke:#000000;stroke-opacity:0.2;" x="348.54042" xlink:href="#m31d9420c0e" y="161.726378"/>
     <use style="fill-opacity:0.2;stroke:#000000;stroke-opacity:0.2;" x="356.864895" xlink:href="#m31d9420c0e" y="150.934027"/>
     <use style="fill-opacity:0.2;stroke:#000000;stroke-opacity:0.2;" x="365.189371" xlink:href="#m31d9420c0e" y="128.420312"/>
     <use style="fill-opacity:0.2;stroke:#000000;stroke-opacity:0.2;" x="373.513846" xlink:href="#m31d9420c0e" y="98.425973"/>
     <use style="fill-opacity:0.2;stroke:#000000;stroke-opacity:0.2;" x="381.838322" xlink:href="#m31d9420c0e" y="62.653802"/>
     <use style="fill-opacity:0.2;stroke:#000000;stroke-opacity:0.2;" x="390.162797" xlink:href="#m31d9420c0e" y="59.906386"/>
     <use style="fill-opacity:0.2;stroke:#000000;stroke-opacity:0.2;" x="398.487273" xlink:href="#m31d9420c0e" y="62.971931"/>
    </g>
   </g>
   <g id="patch_3">
    <path d="M 57.6 307.584 
L 57.6 41.472 
" style="fill:none;stroke:#000000;stroke-linecap:square;stroke-linejoin:miter;stroke-width:0.8;"/>
   </g>
   <g id="patch_4">
    <path d="M 414.72 307.584 
L 414.72 41.472 
" style="fill:none;stroke:#000000;stroke-linecap:square;stroke-linejoin:miter;stroke-width:0.8;"/>
   </g>
   <g id="patch_5">
    <path d="M 57.6 307.584 
L 414.72 307.584 
" style="fill:none;stroke:#000000;stroke-linecap:square;stroke-linejoin:miter;stroke-width:0.8;"/>
   </g>
   <g id="patch_6">
    <path d="M 57.6 41.472 
L 414.72 41.472 
" style="fill:none;stroke:#000000;stroke-linecap:square;stroke-linejoin:miter;stroke-width:0.8;"/>
   </g>
   <g id="text_20">
    <!--  $ V [ r ] $ as function of time x-g0.600-A5 -->
    <defs>
     <path d="M 34.28125 27.484375 
Q 23.390625 27.484375 19.1875 25 
Q 14.984375 22.515625 14.984375 16.5 
Q 14.984375 11.71875 18.140625 8.90625 
Q 21.296875 6.109375 26.703125 6.109375 
Q 34.1875 6.109375 38.703125 11.40625 
Q 43.21875 16.703125 43.21875 25.484375 
L 43.21875 27.484375 
z
M 52.203125 31.203125 
L 52.203125 0 
L 43.21875 0 
L 43.21875 8.296875 
Q 40.140625 3.328125 35.546875 0.953125 
Q 30.953125 -1.421875 24.3125 -1.421875 
Q 15.921875 -1.421875 10.953125 3.296875 
Q 6 8.015625 6 15.921875 
Q 6 25.140625 12.171875 29.828125 
Q 18.359375 34.515625 30.609375 34.515625 
L 43.21875 34.515625 
L 43.21875 35.40625 
Q 43.21875 41.609375 39.140625 45 
Q 35.0625 48.390625 27.6875 48.390625 
Q 23 48.390625 18.546875 47.265625 
Q 14.109375 46.140625 10.015625 43.890625 
L 10.015625 52.203125 
Q 14.9375 54.109375 19.578125 55.046875 
Q 24.21875 56 28.609375 56 
Q 40.484375 56 46.34375 49.84375 
Q 52.203125 43.703125 52.203125 31.203125 
z
" id="DejaVuSans-97"/>
     <path d="M 37.109375 75.984375 
L 37.109375 68.5 
L 28.515625 68.5 
Q 23.6875 68.5 21.796875 66.546875 
Q 19.921875 64.59375 19.921875 59.515625 
L 19.921875 54.6875 
L 34.71875 54.6875 
L 34.71875 47.703125 
L 19.921875 47.703125 
L 19.921875 0 
L 10.890625 0 
L 10.890625 47.703125 
L 2.296875 47.703125 
L 2.296875 54.6875 
L 10.890625 54.6875 
L 10.890625 58.5 
Q 10.890625 67.625 15.140625 71.796875 
Q 19.390625 75.984375 28.609375 75.984375 
z
" id="DejaVuSans-102"/>
     <path d="M 8.5 21.578125 
L 8.5 54.6875 
L 17.484375 54.6875 
L 17.484375 21.921875 
Q 17.484375 14.15625 20.5 10.265625 
Q 23.53125 6.390625 29.59375 6.390625 
Q 36.859375 6.390625 41.078125 11.03125 
Q 45.3125 15.671875 45.3125 23.6875 
L 45.3125 54.6875 
L 54.296875 54.6875 
L 54.296875 0 
L 45.3125 0 
L 45.3125 8.40625 
Q 42.046875 3.421875 37.71875 1 
Q 33.40625 -1.421875 27.6875 -1.421875 
Q 18.265625 -1.421875 13.375 4.4375 
Q 8.5 10.296875 8.5 21.578125 
z
M 31.109375 56 
z
" id="DejaVuSans-117"/>
     <path d="M 54.890625 33.015625 
L 54.890625 0 
L 45.90625 0 
L 45.90625 32.71875 
Q 45.90625 40.484375 42.875 44.328125 
Q 39.84375 48.1875 33.796875 48.1875 
Q 26.515625 48.1875 22.3125 43.546875 
Q 18.109375 38.921875 18.109375 30.90625 
L 18.109375 0 
L 9.078125 0 
L 9.078125 54.6875 
L 18.109375 54.6875 
L 18.109375 46.1875 
Q 21.34375 51.125 25.703125 53.5625 
Q 30.078125 56 35.796875 56 
Q 45.21875 56 50.046875 50.171875 
Q 54.890625 44.34375 54.890625 33.015625 
z
" id="DejaVuSans-110"/>
     <path d="M 48.78125 52.59375 
L 48.78125 44.1875 
Q 44.96875 46.296875 41.140625 47.34375 
Q 37.3125 48.390625 33.40625 48.390625 
Q 24.65625 48.390625 19.8125 42.84375 
Q 14.984375 37.3125 14.984375 27.296875 
Q 14.984375 17.28125 19.8125 11.734375 
Q 24.65625 6.203125 33.40625 6.203125 
Q 37.3125 6.203125 41.140625 7.25 
Q 44.96875 8.296875 48.78125 10.40625 
L 48.78125 2.09375 
Q 45.015625 0.34375 40.984375 -0.53125 
Q 36.96875 -1.421875 32.421875 -1.421875 
Q 20.0625 -1.421875 12.78125 6.34375 
Q 5.515625 14.109375 5.515625 27.296875 
Q 5.515625 40.671875 12.859375 48.328125 
Q 20.21875 56 33.015625 56 
Q 37.15625 56 41.109375 55.140625 
Q 45.0625 54.296875 48.78125 52.59375 
z
" id="DejaVuSans-99"/>
     <path d="M 30.609375 48.390625 
Q 23.390625 48.390625 19.1875 42.75 
Q 14.984375 37.109375 14.984375 27.296875 
Q 14.984375 17.484375 19.15625 11.84375 
Q 23.34375 6.203125 30.609375 6.203125 
Q 37.796875 6.203125 41.984375 11.859375 
Q 46.1875 17.53125 46.1875 27.296875 
Q 46.1875 37.015625 41.984375 42.703125 
Q 37.796875 48.390625 30.609375 48.390625 
z
M 30.609375 56 
Q 42.328125 56 49.015625 48.375 
Q 55.71875 40.765625 55.71875 27.296875 
Q 55.71875 13.875 49.015625 6.21875 
Q 42.328125 -1.421875 30.609375 -1.421875 
Q 18.84375 -1.421875 12.171875 6.21875 
Q 5.515625 13.875 5.515625 27.296875 
Q 5.515625 40.765625 12.171875 48.375 
Q 18.84375 56 30.609375 56 
z
" id="DejaVuSans-111"/>
     <path d="M 54.890625 54.6875 
L 35.109375 28.078125 
L 55.90625 0 
L 45.3125 0 
L 29.390625 21.484375 
L 13.484375 0 
L 2.875 0 
L 24.125 28.609375 
L 4.6875 54.6875 
L 15.28125 54.6875 
L 29.78125 35.203125 
L 44.28125 54.6875 
z
" id="DejaVuSans-120"/>
     <path d="M 4.890625 31.390625 
L 31.203125 31.390625 
L 31.203125 23.390625 
L 4.890625 23.390625 
z
" id="DejaVuSans-45"/>
     <path d="M 45.40625 27.984375 
Q 45.40625 37.75 41.375 43.109375 
Q 37.359375 48.484375 30.078125 48.484375 
Q 22.859375 48.484375 18.828125 43.109375 
Q 14.796875 37.75 14.796875 27.984375 
Q 14.796875 18.265625 18.828125 12.890625 
Q 22.859375 7.515625 30.078125 7.515625 
Q 37.359375 7.515625 41.375 12.890625 
Q 45.40625 18.265625 45.40625 27.984375 
z
M 54.390625 6.78125 
Q 54.390625 -7.171875 48.1875 -13.984375 
Q 42 -20.796875 29.203125 -20.796875 
Q 24.46875 -20.796875 20.265625 -20.09375 
Q 16.0625 -19.390625 12.109375 -17.921875 
L 12.109375 -9.1875 
Q 16.0625 -11.328125 19.921875 -12.34375 
Q 23.78125 -13.375 27.78125 -13.375 
Q 36.625 -13.375 41.015625 -8.765625 
Q 45.40625 -4.15625 45.40625 5.171875 
L 45.40625 9.625 
Q 42.625 4.78125 38.28125 2.390625 
Q 33.9375 0 27.875 0 
Q 17.828125 0 11.671875 7.65625 
Q 5.515625 15.328125 5.515625 27.984375 
Q 5.515625 40.671875 11.671875 48.328125 
Q 17.828125 56 27.875 56 
Q 33.9375 56 38.28125 53.609375 
Q 42.625 51.21875 45.40625 46.390625 
L 45.40625 54.6875 
L 54.390625 54.6875 
z
" id="DejaVuSans-103"/>
     <path d="M 33.015625 40.375 
Q 26.375 40.375 22.484375 35.828125 
Q 18.609375 31.296875 18.609375 23.390625 
Q 18.609375 15.53125 22.484375 10.953125 
Q 26.375 6.390625 33.015625 6.390625 
Q 39.65625 6.390625 43.53125 10.953125 
Q 47.40625 15.53125 47.40625 23.390625 
Q 47.40625 31.296875 43.53125 35.828125 
Q 39.65625 40.375 33.015625 40.375 
z
M 52.59375 71.296875 
L 52.59375 62.3125 
Q 48.875 64.0625 45.09375 64.984375 
Q 41.3125 65.921875 37.59375 65.921875 
Q 27.828125 65.921875 22.671875 59.328125 
Q 17.53125 52.734375 16.796875 39.40625 
Q 19.671875 43.65625 24.015625 45.921875 
Q 28.375 48.1875 33.59375 48.1875 
Q 44.578125 48.1875 50.953125 41.515625 
Q 57.328125 34.859375 57.328125 23.390625 
Q 57.328125 12.15625 50.6875 5.359375 
Q 44.046875 -1.421875 33.015625 -1.421875 
Q 20.359375 -1.421875 13.671875 8.265625 
Q 6.984375 17.96875 6.984375 36.375 
Q 6.984375 53.65625 15.1875 63.9375 
Q 23.390625 74.21875 37.203125 74.21875 
Q 40.921875 74.21875 44.703125 73.484375 
Q 48.484375 72.75 52.59375 71.296875 
z
" id="DejaVuSans-54"/>
     <path d="M 34.1875 63.1875 
L 20.796875 26.90625 
L 47.609375 26.90625 
z
M 28.609375 72.90625 
L 39.796875 72.90625 
L 67.578125 0 
L 57.328125 0 
L 50.6875 18.703125 
L 17.828125 18.703125 
L 11.1875 0 
L 0.78125 0 
z
" id="DejaVuSans-65"/>
    </defs>
    <g transform="translate(126 35.472)scale(0.12 -0.12)">
     <use transform="translate(0 0.015625)" xlink:href="#DejaVuSans-32"/>
     <use transform="translate(31.787109 0.015625)" xlink:href="#DejaVuSans-Oblique-86"/>
     <use transform="translate(100.195312 0.015625)" xlink:href="#DejaVuSans-91"/>
     <use transform="translate(139.208984 0.015625)" xlink:href="#DejaVuSans-Oblique-114"/>
     <use transform="translate(180.322266 0.015625)" xlink:href="#DejaVuSans-93"/>
     <use transform="translate(219.335938 0.015625)" xlink:href="#DejaVuSans-32"/>
     <use transform="translate(251.123047 0.015625)" xlink:href="#DejaVuSans-97"/>
     <use transform="translate(312.402344 0.015625)" xlink:href="#DejaVuSans-115"/>
     <use transform="translate(364.501953 0.015625)" xlink:href="#DejaVuSans-32"/>
     <use transform="translate(396.289062 0.015625)" xlink:href="#DejaVuSans-102"/>
     <use transform="translate(431.494141 0.015625)" xlink:href="#DejaVuSans-117"/>
     <use transform="translate(494.873047 0.015625)" xlink:href="#DejaVuSans-110"/>
     <use transform="translate(558.251953 0.015625)" xlink:href="#DejaVuSans-99"/>
     <use transform="translate(613.232422 0.015625)" xlink:href="#DejaVuSans-116"/>
     <use transform="translate(652.441406 0.015625)" xlink:href="#DejaVuSans-105"/>
     <use transform="translate(680.224609 0.015625)" xlink:href="#DejaVuSans-111"/>
     <use transform="translate(741.40625 0.015625)" xlink:href="#DejaVuSans-110"/>
     <use transform="translate(804.785156 0.015625)" xlink:href="#DejaVuSans-32"/>
     <use transform="translate(836.572266 0.015625)" xlink:href="#DejaVuSans-111"/>
     <use transform="translate(897.753906 0.015625)" xlink:href="#DejaVuSans-102"/>
     <use transform="translate(932.958984 0.015625)" xlink:href="#DejaVuSans-32"/>
     <use transform="translate(964.746094 0.015625)" xlink:href="#DejaVuSans-116"/>
     <use transform="translate(1003.955078 0.015625)" xlink:href="#DejaVuSans-105"/>
     <use transform="translate(1031.738281 0.015625)" xlink:href="#DejaVuSans-109"/>
     <use transform="translate(1129.150391 0.015625)" xlink:href="#DejaVuSans-101"/>
     <use transform="translate(1190.673828 0.015625)" xlink:href="#DejaVuSans-32"/>
     <use transform="translate(1222.460938 0.015625)" xlink:href="#DejaVuSans-120"/>
     <use transform="translate(1281.640625 0.015625)" xlink:href="#DejaVuSans-45"/>
     <use transform="translate(1317.724609 0.015625)" xlink:href="#DejaVuSans-103"/>
     <use transform="translate(1381.201172 0.015625)" xlink:href="#DejaVuSans-48"/>
     <use transform="translate(1444.824219 0.015625)" xlink:href="#DejaVuSans-46"/>
     <use transform="translate(1476.611328 0.015625)" xlink:href="#DejaVuSans-54"/>
     <use transform="translate(1540.234375 0.015625)" xlink:href="#DejaVuSans-48"/>
     <use transform="translate(1603.857422 0.015625)" xlink:href="#DejaVuSans-48"/>
     <use transform="translate(1667.480469 0.015625)" xlink:href="#DejaVuSans-45"/>
     <use transform="translate(1703.564453 0.015625)" xlink:href="#DejaVuSans-65"/>
     <use transform="translate(1771.972656 0.015625)" xlink:href="#DejaVuSans-53"/>
    </g>
   </g>
   <g id="legend_1">
    <g id="patch_7">
     <path d="M 64.6 78.850125 
L 199.5 78.850125 
Q 201.5 78.850125 201.5 76.850125 
L 201.5 48.472 
Q 201.5 46.472 199.5 46.472 
L 64.6 46.472 
Q 62.6 46.472 62.6 48.472 
L 62.6 76.850125 
Q 62.6 78.850125 64.6 78.850125 
z
" style="fill:#ffffff;opacity:0.8;stroke:#cccccc;stroke-linejoin:miter;"/>
    </g>
    <g id="line2d_20">
     <path d="M 66.6 54.572 
L 86.6 54.572 
" style="fill:none;stroke:#008080;stroke-linecap:square;stroke-opacity:0.6;stroke-width:1.5;"/>
    </g>
    <g id="line2d_21"/>
    <g id="text_21">
     <!-- liner fitting $D$=6.964 -->
     <defs>
      <path d="M 9.421875 75.984375 
L 18.40625 75.984375 
L 18.40625 0 
L 9.421875 0 
z
" id="DejaVuSans-108"/>
      <path d="M 41.109375 46.296875 
Q 39.59375 47.171875 37.8125 47.578125 
Q 36.03125 48 33.890625 48 
Q 26.265625 48 22.1875 43.046875 
Q 18.109375 38.09375 18.109375 28.8125 
L 18.109375 0 
L 9.078125 0 
L 9.078125 54.6875 
L 18.109375 54.6875 
L 18.109375 46.1875 
Q 20.953125 51.171875 25.484375 53.578125 
Q 30.03125 56 36.53125 56 
Q 37.453125 56 38.578125 55.875 
Q 39.703125 55.765625 41.0625 55.515625 
z
" id="DejaVuSans-114"/>
      <path d="M 16.890625 72.90625 
L 38.09375 72.90625 
Q 54.984375 72.90625 63.59375 65.75 
Q 72.21875 58.59375 72.21875 44.484375 
Q 72.21875 35.15625 68.9375 26.53125 
Q 65.671875 17.921875 59.90625 12.015625 
Q 54.109375 5.953125 45.171875 2.96875 
Q 36.234375 0 24.03125 0 
L 2.6875 0 
z
M 25.203125 64.796875 
L 14.203125 8.109375 
L 27.09375 8.109375 
Q 43.65625 8.109375 52.734375 17.625 
Q 61.8125 27.15625 61.8125 44.484375 
Q 61.8125 54.984375 55.953125 59.890625 
Q 50.09375 64.796875 37.59375 64.796875 
z
" id="DejaVuSans-Oblique-68"/>
      <path d="M 10.59375 45.40625 
L 73.1875 45.40625 
L 73.1875 37.203125 
L 10.59375 37.203125 
z
M 10.59375 25.484375 
L 73.1875 25.484375 
L 73.1875 17.1875 
L 10.59375 17.1875 
z
" id="DejaVuSans-61"/>
      <path d="M 10.984375 1.515625 
L 10.984375 10.5 
Q 14.703125 8.734375 18.5 7.8125 
Q 22.3125 6.890625 25.984375 6.890625 
Q 35.75 6.890625 40.890625 13.453125 
Q 46.046875 20.015625 46.78125 33.40625 
Q 43.953125 29.203125 39.59375 26.953125 
Q 35.25 24.703125 29.984375 24.703125 
Q 19.046875 24.703125 12.671875 31.3125 
Q 6.296875 37.9375 6.296875 49.421875 
Q 6.296875 60.640625 12.9375 67.421875 
Q 19.578125 74.21875 30.609375 74.21875 
Q 43.265625 74.21875 49.921875 64.515625 
Q 56.59375 54.828125 56.59375 36.375 
Q 56.59375 19.140625 48.40625 8.859375 
Q 40.234375 -1.421875 26.421875 -1.421875 
Q 22.703125 -1.421875 18.890625 -0.6875 
Q 15.09375 0.046875 10.984375 1.515625 
z
M 30.609375 32.421875 
Q 37.25 32.421875 41.125 36.953125 
Q 45.015625 41.5 45.015625 49.421875 
Q 45.015625 57.28125 41.125 61.84375 
Q 37.25 66.40625 30.609375 66.40625 
Q 23.96875 66.40625 20.09375 61.84375 
Q 16.21875 57.28125 16.21875 49.421875 
Q 16.21875 41.5 20.09375 36.953125 
Q 23.96875 32.421875 30.609375 32.421875 
z
" id="DejaVuSans-57"/>
     </defs>
     <g transform="translate(94.6 58.072)scale(0.1 -0.1)">
      <use transform="translate(0 0.015625)" xlink:href="#DejaVuSans-108"/>
      <use transform="translate(27.783203 0.015625)" xlink:href="#DejaVuSans-105"/>
      <use transform="translate(55.566406 0.015625)" xlink:href="#DejaVuSans-110"/>
      <use transform="translate(118.945312 0.015625)" xlink:href="#DejaVuSans-101"/>
      <use transform="translate(180.46875 0.015625)" xlink:href="#DejaVuSans-114"/>
      <use transform="translate(221.582031 0.015625)" xlink:href="#DejaVuSans-32"/>
      <use transform="translate(253.369141 0.015625)" xlink:href="#DejaVuSans-102"/>
      <use transform="translate(288.574219 0.015625)" xlink:href="#DejaVuSans-105"/>
      <use transform="translate(316.357422 0.015625)" xlink:href="#DejaVuSans-116"/>
      <use transform="translate(355.566406 0.015625)" xlink:href="#DejaVuSans-116"/>
      <use transform="translate(394.775391 0.015625)" xlink:href="#DejaVuSans-105"/>
      <use transform="translate(422.558594 0.015625)" xlink:href="#DejaVuSans-110"/>
      <use transform="translate(485.9375 0.015625)" xlink:href="#DejaVuSans-103"/>
      <use transform="translate(549.414062 0.015625)" xlink:href="#DejaVuSans-32"/>
      <use transform="translate(581.201172 0.015625)" xlink:href="#DejaVuSans-Oblique-68"/>
      <use transform="translate(658.203125 0.015625)" xlink:href="#DejaVuSans-61"/>
      <use transform="translate(741.992188 0.015625)" xlink:href="#DejaVuSans-54"/>
      <use transform="translate(805.615234 0.015625)" xlink:href="#DejaVuSans-46"/>
      <use transform="translate(837.402344 0.015625)" xlink:href="#DejaVuSans-57"/>
      <use transform="translate(901.025391 0.015625)" xlink:href="#DejaVuSans-54"/>
      <use transform="translate(964.648438 0.015625)" xlink:href="#DejaVuSans-52"/>
     </g>
    </g>
    <g id="LineCollection_2">
     <path d="M 76.6 74.270438 
L 76.6 64.270438 
" style="fill:none;stroke:#000000;stroke-opacity:0.2;stroke-width:1.5;"/>
    </g>
    <g id="line2d_22"/>
    <g id="line2d_23">
     <g>
      <use style="fill-opacity:0.2;stroke:#000000;stroke-opacity:0.2;" x="76.6" xlink:href="#m31d9420c0e" y="69.270438"/>
     </g>
    </g>
    <g id="text_22">
     <!-- measured -->
     <defs>
      <path d="M 45.40625 46.390625 
L 45.40625 75.984375 
L 54.390625 75.984375 
L 54.390625 0 
L 45.40625 0 
L 45.40625 8.203125 
Q 42.578125 3.328125 38.25 0.953125 
Q 33.9375 -1.421875 27.875 -1.421875 
Q 17.96875 -1.421875 11.734375 6.484375 
Q 5.515625 14.40625 5.515625 27.296875 
Q 5.515625 40.1875 11.734375 48.09375 
Q 17.96875 56 27.875 56 
Q 33.9375 56 38.25 53.625 
Q 42.578125 51.265625 45.40625 46.390625 
z
M 14.796875 27.296875 
Q 14.796875 17.390625 18.875 11.75 
Q 22.953125 6.109375 30.078125 6.109375 
Q 37.203125 6.109375 41.296875 11.75 
Q 45.40625 17.390625 45.40625 27.296875 
Q 45.40625 37.203125 41.296875 42.84375 
Q 37.203125 48.484375 30.078125 48.484375 
Q 22.953125 48.484375 18.875 42.84375 
Q 14.796875 37.203125 14.796875 27.296875 
z
" id="DejaVuSans-100"/>
     </defs>
     <g transform="translate(94.6 72.770438)scale(0.1 -0.1)">
      <use xlink:href="#DejaVuSans-109"/>
      <use x="97.412109" xlink:href="#DejaVuSans-101"/>
      <use x="158.935547" xlink:href="#DejaVuSans-97"/>
      <use x="220.214844" xlink:href="#DejaVuSans-115"/>
      <use x="272.314453" xlink:href="#DejaVuSans-117"/>
      <use x="335.693359" xlink:href="#DejaVuSans-114"/>
      <use x="376.775391" xlink:href="#DejaVuSans-101"/>
      <use x="438.298828" xlink:href="#DejaVuSans-100"/>
     </g>
    </g>
   </g>
  </g>
 </g>
 <defs>
  <clipPath id="p14fb5eddff">
   <rect height="266.112" width="357.12" x="57.6" y="41.472"/>
  </clipPath>
 </defs>
</svg>
